<?xml version="1.0" encoding="UTF-8" standalone="no"?>
<!-- Created with Inkscape (http://www.inkscape.org/) -->

<svg
   xmlns:dc="http://purl.org/dc/elements/1.1/"
   xmlns:cc="http://creativecommons.org/ns#"
   xmlns:rdf="http://www.w3.org/1999/02/22-rdf-syntax-ns#"
   xmlns:svg="http://www.w3.org/2000/svg"
   xmlns="http://www.w3.org/2000/svg"
   xmlns:sodipodi="http://sodipodi.sourceforge.net/DTD/sodipodi-0.dtd"
   xmlns:inkscape="http://www.inkscape.org/namespaces/inkscape"
   width="1360.6299"
   height="1003.3934"
   id="svg2"
   version="1.1"
   inkscape:version="0.48+devel r custom"
   sodipodi:docname="platte.svg">
  <defs
     id="defs4" />
  <sodipodi:namedview
     id="base"
     pagecolor="#ffffff"
     bordercolor="#666666"
     borderopacity="1.0"
     inkscape:pageopacity="0.0"
     inkscape:pageshadow="2"
     inkscape:zoom="0.49497475"
     inkscape:cx="153.9574"
     inkscape:cy="2.1573313"
     inkscape:document-units="px"
     inkscape:current-layer="layer1"
     showgrid="false"
     inkscape:window-width="1436"
     inkscape:window-height="420"
     inkscape:window-x="0"
     inkscape:window-y="459"
     inkscape:window-maximized="0"
     fit-margin-top="0"
     fit-margin-left="0"
     fit-margin-right="0"
     fit-margin-bottom="0"
     units="mm" />
  <metadata
     id="metadata7">
    <rdf:RDF>
      <cc:Work
         rdf:about="">
        <dc:format>image/svg+xml</dc:format>
        <dc:type
           rdf:resource="http://purl.org/dc/dcmitype/StillImage" />
        <dc:title></dc:title>
      </cc:Work>
    </rdf:RDF>
  </metadata>
  <g
     inkscape:label="Layer 1"
     inkscape:groupmode="layer"
     id="layer1"
     transform="translate(-35.43307,-3.54337)">
    <path
       style="fill:#e6458b;fill-opacity:1;fill-rule:nonzero;stroke:none"
       d="m 21.259843,1041.7323 c 0,5.8707 -4.759179,10.6299 -10.629921,10.6299 C 4.7591783,1052.3622 0,1047.603 0,1041.7323 0,1035.8616 4.7591783,1031.1024 10.629922,1031.1024 16.500664,1031.1024 21.259843,1035.8616 21.259843,1041.7323 Z"
       id="path3170"
       inkscape:connector-curvature="0" />
    <path
       inkscape:connector-curvature="0"
       id="path3173"
       d="m 21.259843,1041.7323 c 0,5.8707 -4.759179,10.6299 -10.629921,10.6299 C 4.7591783,1052.3622 0,1047.603 0,1041.7323 0,1035.8616 4.7591783,1031.1024 10.629922,1031.1024 16.500664,1031.1024 21.259843,1035.8616 21.259843,1041.7323 Z"
       style="fill:#e6458b;fill-opacity:1;fill-rule:nonzero;stroke:none" />
    <path
       style="fill:#e6458b;fill-opacity:1;fill-rule:nonzero;stroke:none"
       d="m 21.259843,1041.7323 c 0,5.8707 -4.759179,10.6299 -10.629921,10.6299 C 4.7591783,1052.3622 0,1047.603 0,1041.7323 0,1035.8616 4.7591783,1031.1024 10.629922,1031.1024 16.500664,1031.1024 21.259843,1035.8616 21.259843,1041.7323 Z"
       id="path3175"
       inkscape:connector-curvature="0" />
    <path
       inkscape:connector-curvature="0"
       id="path3177"
       d="m 21.259843,1041.7323 c 0,5.8707 -4.759179,10.6299 -10.629921,10.6299 C 4.7591783,1052.3622 0,1047.603 0,1041.7323 0,1035.8616 4.7591783,1031.1024 10.629922,1031.1024 16.500664,1031.1024 21.259843,1035.8616 21.259843,1041.7323 Z"
       style="fill:#e6458b;fill-opacity:1;fill-rule:nonzero;stroke:none" />
    <path
       style="fill:#e6458b;fill-opacity:1;fill-rule:nonzero;stroke:none"
       d="m 21.259843,1041.7323 c 0,5.8707 -4.759179,10.6299 -10.629921,10.6299 C 4.7591783,1052.3622 0,1047.603 0,1041.7323 0,1035.8616 4.7591783,1031.1024 10.629922,1031.1024 16.500664,1031.1024 21.259843,1035.8616 21.259843,1041.7323 Z"
       id="path3179"
       inkscape:connector-curvature="0" />
    <path
       inkscape:connector-curvature="0"
       id="path3181"
       d="m 21.259843,1041.7323 c 0,5.8707 -4.759179,10.6299 -10.629921,10.6299 C 4.7591783,1052.3622 0,1047.603 0,1041.7323 0,1035.8616 4.7591783,1031.1024 10.629922,1031.1024 16.500664,1031.1024 21.259843,1035.8616 21.259843,1041.7323 Z"
       style="fill:#e6458b;fill-opacity:1;fill-rule:nonzero;stroke:none" />
    <path
       style="fill:#e6458b;fill-opacity:1;fill-rule:nonzero;stroke:none"
       d="m 21.259843,1041.7323 c 0,5.8707 -4.759179,10.6299 -10.629921,10.6299 C 4.7591783,1052.3622 0,1047.603 0,1041.7323 0,1035.8616 4.7591783,1031.1024 10.629922,1031.1024 16.500664,1031.1024 21.259843,1035.8616 21.259843,1041.7323 Z"
       id="path3183"
       inkscape:connector-curvature="0" />
    <path
       inkscape:connector-curvature="0"
       id="path3185"
       d="m 21.259843,1041.7323 c 0,5.8707 -4.759179,10.6299 -10.629921,10.6299 C 4.7591783,1052.3622 0,1047.603 0,1041.7323 0,1035.8616 4.7591783,1031.1024 10.629922,1031.1024 16.500664,1031.1024 21.259843,1035.8616 21.259843,1041.7323 Z"
       style="fill:#e6458b;fill-opacity:1;fill-rule:nonzero;stroke:none" />
    <path
       style="fill:#e6458b;fill-opacity:1;fill-rule:nonzero;stroke:none"
       d="m 21.259843,1041.7323 c 0,5.8707 -4.759179,10.6299 -10.629921,10.6299 C 4.7591783,1052.3622 0,1047.603 0,1041.7323 0,1035.8616 4.7591783,1031.1024 10.629922,1031.1024 16.500664,1031.1024 21.259843,1035.8616 21.259843,1041.7323 Z"
       id="path3187"
       inkscape:connector-curvature="0" />
    <path
       inkscape:connector-curvature="0"
       id="path3189"
       d="m 21.259843,1041.7323 c 0,5.8707 -4.759179,10.6299 -10.629921,10.6299 C 4.7591783,1052.3622 0,1047.603 0,1041.7323 0,1035.8616 4.7591783,1031.1024 10.629922,1031.1024 16.500664,1031.1024 21.259843,1035.8616 21.259843,1041.7323 Z"
       style="fill:#e6458b;fill-opacity:1;fill-rule:nonzero;stroke:none" />
    <path
       style="fill:#e6458b;fill-opacity:1;fill-rule:nonzero;stroke:none"
       d="m 21.259843,1041.7323 c 0,5.8707 -4.759179,10.6299 -10.629921,10.6299 C 4.7591783,1052.3622 0,1047.603 0,1041.7323 0,1035.8616 4.7591783,1031.1024 10.629922,1031.1024 16.500664,1031.1024 21.259843,1035.8616 21.259843,1041.7323 Z"
       id="path3191"
       inkscape:connector-curvature="0" />
    <path
       inkscape:connector-curvature="0"
       id="path3193"
       d="m 21.259843,1041.7323 c 0,5.8707 -4.759179,10.6299 -10.629921,10.6299 C 4.7591783,1052.3622 0,1047.603 0,1041.7323 0,1035.8616 4.7591783,1031.1024 10.629922,1031.1024 16.500664,1031.1024 21.259843,1035.8616 21.259843,1041.7323 Z"
       style="fill:#e6458b;fill-opacity:1;fill-rule:nonzero;stroke:none" />
    <path
       style="fill:#e6458b;fill-opacity:1;fill-rule:nonzero;stroke:none"
       d="m 21.259843,1041.7323 c 0,5.8707 -4.759179,10.6299 -10.629921,10.6299 C 4.7591783,1052.3622 0,1047.603 0,1041.7323 0,1035.8616 4.7591783,1031.1024 10.629922,1031.1024 16.500664,1031.1024 21.259843,1035.8616 21.259843,1041.7323 Z"
       id="path3195"
       inkscape:connector-curvature="0" />
    <path
       inkscape:connector-curvature="0"
       id="path3197"
       d="m 21.259843,1041.7323 c 0,5.8707 -4.759179,10.6299 -10.629921,10.6299 C 4.7591783,1052.3622 0,1047.603 0,1041.7323 0,1035.8616 4.7591783,1031.1024 10.629922,1031.1024 16.500664,1031.1024 21.259843,1035.8616 21.259843,1041.7323 Z"
       style="fill:#e6458b;fill-opacity:1;fill-rule:nonzero;stroke:none" />
    <path
       style="fill:#e6458b;fill-opacity:1;fill-rule:nonzero;stroke:none"
       d="m 21.259843,1041.7323 c 0,5.8707 -4.759179,10.6299 -10.629921,10.6299 C 4.7591783,1052.3622 0,1047.603 0,1041.7323 0,1035.8616 4.7591783,1031.1024 10.629922,1031.1024 16.500664,1031.1024 21.259843,1035.8616 21.259843,1041.7323 Z"
       id="path3199"
       inkscape:connector-curvature="0" />
    <path
       inkscape:connector-curvature="0"
       id="path3201"
       d="m 21.259843,1041.7323 c 0,5.8707 -4.759179,10.6299 -10.629921,10.6299 C 4.7591783,1052.3622 0,1047.603 0,1041.7323 0,1035.8616 4.7591783,1031.1024 10.629922,1031.1024 16.500664,1031.1024 21.259843,1035.8616 21.259843,1041.7323 Z"
       style="fill:#e6458b;fill-opacity:1;fill-rule:nonzero;stroke:none" />
    <path
       style="fill:#e6458b;fill-opacity:1;fill-rule:nonzero;stroke:none"
       d="m 21.259843,1041.7323 c 0,5.8707 -4.759179,10.6299 -10.629921,10.6299 C 4.7591783,1052.3622 0,1047.603 0,1041.7323 0,1035.8616 4.7591783,1031.1024 10.629922,1031.1024 16.500664,1031.1024 21.259843,1035.8616 21.259843,1041.7323 Z"
       id="path3203"
       inkscape:connector-curvature="0" />
    <path
       inkscape:connector-curvature="0"
       id="path3205"
       d="m 21.259843,1041.7323 c 0,5.8707 -4.759179,10.6299 -10.629921,10.6299 C 4.7591783,1052.3622 0,1047.603 0,1041.7323 0,1035.8616 4.7591783,1031.1024 10.629922,1031.1024 16.500664,1031.1024 21.259843,1035.8616 21.259843,1041.7323 Z"
       style="fill:#e6458b;fill-opacity:1;fill-rule:nonzero;stroke:none" />
    <path
       style="fill:#e6458b;fill-opacity:1;fill-rule:nonzero;stroke:none"
       d="m 21.259843,1041.7323 c 0,5.8707 -4.759179,10.6299 -10.629921,10.6299 C 4.7591783,1052.3622 0,1047.603 0,1041.7323 0,1035.8616 4.7591783,1031.1024 10.629922,1031.1024 16.500664,1031.1024 21.259843,1035.8616 21.259843,1041.7323 Z"
       id="path3207"
       inkscape:connector-curvature="0" />
    <path
       inkscape:connector-curvature="0"
       id="path3209"
       d="m 21.259843,1041.7323 c 0,5.8707 -4.759179,10.6299 -10.629921,10.6299 C 4.7591783,1052.3622 0,1047.603 0,1041.7323 0,1035.8616 4.7591783,1031.1024 10.629922,1031.1024 16.500664,1031.1024 21.259843,1035.8616 21.259843,1041.7323 Z"
       style="fill:#e6458b;fill-opacity:1;fill-rule:nonzero;stroke:none" />
    <path
       style="fill:#e6458b;fill-opacity:1;fill-rule:nonzero;stroke:none"
       d="m 21.259843,1041.7323 c 0,5.8707 -4.759179,10.6299 -10.629921,10.6299 C 4.7591783,1052.3622 0,1047.603 0,1041.7323 0,1035.8616 4.7591783,1031.1024 10.629922,1031.1024 16.500664,1031.1024 21.259843,1035.8616 21.259843,1041.7323 Z"
       id="path3211"
       inkscape:connector-curvature="0" />
    <path
       inkscape:connector-curvature="0"
       id="path3213"
       d="m 21.259843,1041.7323 c 0,5.8707 -4.759179,10.6299 -10.629921,10.6299 C 4.7591783,1052.3622 0,1047.603 0,1041.7323 0,1035.8616 4.7591783,1031.1024 10.629922,1031.1024 16.500664,1031.1024 21.259843,1035.8616 21.259843,1041.7323 Z"
       style="fill:#e6458b;fill-opacity:1;fill-rule:nonzero;stroke:none" />
    <path
       style="fill:#e6458b;fill-opacity:1;fill-rule:nonzero;stroke:none"
       d="m 1386.0707,510.23625 c 0,34.24559 -27.7619,62.00747 -62.0075,62.00747 -34.2461,0 -62.008,-27.76188 -62.008,-62.00747 0,-34.24559 27.7619,-62.00747 62.008,-62.00747 C 1358.3088,448.22878 1386.0707,475.99066 1386.0707,510.23625 Z"
       id="path3215"
       inkscape:connector-curvature="0" />
    <path
       inkscape:connector-curvature="0"
       id="path3217"
       d="m 169.44083,75.543347 c 0,34.245683 -27.76183,62.007633 -62.00775,62.007633 -34.245923,0 -62.007772,-27.76195 -62.007772,-62.007633 0,-34.245686 27.761849,-62.007635 62.007772,-62.007635 C 141.679,13.535712 169.44083,41.297661 169.44083,75.543347 Z"
       style="fill:#e6458b;fill-opacity:1;fill-rule:nonzero;stroke:none" />
    <path
       style="fill:#e6458b;fill-opacity:1;fill-rule:nonzero;stroke:none"
       d="m 169.44083,944.92915 c 0,34.24569 -27.76183,62.00765 -62.00775,62.00765 -34.245923,0 -62.007772,-27.76196 -62.007772,-62.00765 0,-34.24569 27.761849,-62.00764 62.007772,-62.00764 C 141.679,882.92151 169.44083,910.68346 169.44083,944.92915 Z"
       id="path3219"
       inkscape:connector-curvature="0" />
    <path
       inkscape:connector-curvature="0"
       id="path3221"
       d="m 1273.2874,571.60633 c 0,5.8707 -4.7592,10.6299 -10.6299,10.6299 -5.8708,0 -10.63,-4.7592 -10.63,-10.6299 0,-5.8707 4.7592,-10.6299 10.63,-10.6299 C 1268.5282,560.97643 1273.2874,565.73563 1273.2874,571.60633 Z"
       style="fill:#e6458b;fill-opacity:1;fill-rule:nonzero;stroke:none" />
    <path
       style="fill:#e6458b;fill-opacity:1;fill-rule:nonzero;stroke:none"
       d="m 1396.063,571.60633 c 0,5.8707 -4.7592,10.6299 -10.63,10.6299 -5.8707,0 -10.6299,-4.7592 -10.6299,-10.6299 0,-5.8707 4.7592,-10.6299 10.6299,-10.6299 C 1391.3038,560.97643 1396.063,565.73563 1396.063,571.60633 Z"
       id="path3223"
       inkscape:connector-curvature="0" />
    <path
       inkscape:connector-curvature="0"
       id="path3225"
       d="m 1396.063,448.86617 c 0,5.8707 -4.7592,10.6299 -10.63,10.6299 -5.8707,0 -10.6299,-4.7592 -10.6299,-10.6299 0,-5.8707 4.7592,-10.6299 10.6299,-10.6299 C 1391.3038,438.23627 1396.063,442.99547 1396.063,448.86617 Z"
       style="fill:#e6458b;fill-opacity:1;fill-rule:nonzero;stroke:none" />
    <path
       style="fill:#e6458b;fill-opacity:1;fill-rule:nonzero;stroke:none"
       d="m 1273.2874,448.86617 c 0,5.8707 -4.7592,10.6299 -10.6299,10.6299 -5.8708,0 -10.63,-4.7592 -10.63,-10.6299 0,-5.8707 4.7592,-10.6299 10.63,-10.6299 C 1268.5282,438.23627 1273.2874,442.99547 1273.2874,448.86617 Z"
       id="path3227"
       inkscape:connector-curvature="0" />
    <path
       inkscape:connector-curvature="0"
       id="path3229"
       d="m 56.692913,136.94886 c 0,5.8707 -4.759179,10.6299 -10.629921,10.6299 -5.870744,0 -10.629922,-4.7592 -10.629922,-10.6299 0,-5.8707 4.759178,-10.6299 10.629922,-10.6299 C 51.933734,126.31896 56.692913,131.07816 56.692913,136.94886 Z"
       style="fill:#e6458b;fill-opacity:1;fill-rule:nonzero;stroke:none" />
    <path
       style="fill:#e6458b;fill-opacity:1;fill-rule:nonzero;stroke:none"
       d="m 179.4685,136.94886 c 0,5.8707 -4.75918,10.6299 -10.62992,10.6299 -5.87074,0 -10.62992,-4.7592 -10.62992,-10.6299 0,-5.8707 4.75918,-10.6299 10.62992,-10.6299 C 174.70932,126.31896 179.4685,131.07816 179.4685,136.94886 Z"
       id="path3231"
       inkscape:connector-curvature="0" />
    <path
       inkscape:connector-curvature="0"
       id="path3233"
       d="m 179.4685,14.17327 c 0,5.8707 -4.75918,10.6299 -10.62992,10.6299 -5.87074,0 -10.62992,-4.7592 -10.62992,-10.6299 0,-5.8707 4.75918,-10.6299 10.62992,-10.6299 C 174.70932,3.54337 179.4685,8.30257 179.4685,14.17327 Z"
       style="fill:#e6458b;fill-opacity:1;fill-rule:nonzero;stroke:none" />
    <path
       style="fill:#e6458b;fill-opacity:1;fill-rule:nonzero;stroke:none"
       d="m 56.692913,14.17327 c 0,5.8707 -4.759179,10.6299 -10.629921,10.6299 -5.870744,0 -10.629922,-4.7592 -10.629922,-10.6299 0,-5.8707 4.759178,-10.6299 10.629922,-10.6299 C 51.933734,3.54337 56.692913,8.30257 56.692913,14.17327 Z"
       id="path3235"
       inkscape:connector-curvature="0" />
    <path
       inkscape:connector-curvature="0"
       id="path3237"
       d="m 56.692913,1006.2992 c 0,5.8707 -4.759179,10.6299 -10.629921,10.6299 -5.870744,0 -10.629922,-4.7592 -10.629922,-10.6299 0,-5.8707 4.759178,-10.62987 10.629922,-10.62987 C 51.933734,995.66933 56.692913,1000.4285 56.692913,1006.2992 Z"
       style="fill:#e6458b;fill-opacity:1;fill-rule:nonzero;stroke:none" />
    <path
       style="fill:#e6458b;fill-opacity:1;fill-rule:nonzero;stroke:none"
       d="m 179.4685,1006.2992 c 0,5.8707 -4.75918,10.6299 -10.62992,10.6299 -5.87074,0 -10.62992,-4.7592 -10.62992,-10.6299 0,-5.8707 4.75918,-10.62987 10.62992,-10.62987 C 174.70932,995.66933 179.4685,1000.4285 179.4685,1006.2992 Z"
       id="path3239"
       inkscape:connector-curvature="0" />
    <path
       inkscape:connector-curvature="0"
       id="path3241"
       d="m 179.4685,883.52364 c 0,5.8707 -4.75918,10.6299 -10.62992,10.6299 -5.87074,0 -10.62992,-4.7592 -10.62992,-10.6299 0,-5.8707 4.75918,-10.6299 10.62992,-10.6299 C 174.70932,872.89374 179.4685,877.65294 179.4685,883.52364 Z"
       style="fill:#e6458b;fill-opacity:1;fill-rule:nonzero;stroke:none" />
    <path
       style="fill:#e6458b;fill-opacity:1;fill-rule:nonzero;stroke:none"
       d="m 56.692913,883.52364 c 0,5.8707 -4.759179,10.6299 -10.629921,10.6299 -5.870744,0 -10.629922,-4.7592 -10.629922,-10.6299 0,-5.8707 4.759178,-10.6299 10.629922,-10.6299 C 51.933734,872.89374 56.692913,877.65294 56.692913,883.52364 Z"
       id="path3243"
       inkscape:connector-curvature="0" />
    <path
       style="fill:#e6458b;fill-opacity:1;fill-rule:nonzero;stroke:none"
       d="m 251.46855,75.543347 c 0,11.741423 -9.51838,21.259842 -21.25988,21.259842 -11.74151,0 -21.25991,-9.518419 -21.25991,-21.259842 0,-11.741423 9.5184,-21.259842 21.25991,-21.259842 C 241.95017,54.283505 251.46855,63.801924 251.46855,75.543347 Z"
       id="path3264"
       inkscape:connector-curvature="0" />
    <path
       inkscape:connector-curvature="0"
       id="path3266"
       d="m 251.46855,944.92915 c 0,11.74142 -9.51838,21.25984 -21.25988,21.25984 -11.74151,0 -21.25991,-9.51842 -21.25991,-21.25984 0,-11.74142 9.5184,-21.25984 21.25991,-21.25984 C 241.95017,923.66931 251.46855,933.18773 251.46855,944.92915 Z"
       style="fill:#e6458b;fill-opacity:1;fill-rule:nonzero;stroke:none" />
    <path
       inkscape:connector-curvature="0"
       id="path3268"
       d="m 1222.5472,510.23625 c 0,11.7414 -9.5184,21.25979 -21.2598,21.25979 -11.7415,0 -21.2599,-9.51839 -21.2599,-21.25979 0,-11.7414 9.5184,-21.25979 21.2599,-21.25979 C 1213.0288,488.97646 1222.5472,498.49485 1222.5472,510.23625 Z"
       style="fill:#e6458b;fill-opacity:1;fill-rule:nonzero;stroke:none" />
    <rect
       style="fill:none;stroke:#000000;stroke-opacity:1"
       id="rect3270"
       width="1328.7401"
       height="814.96063"
       x="35.933071"
       y="102.7559" />
    <rect
       y="102.7559"
       x="35.933071"
       height="814.96063"
       width="1328.7401"
       id="rect4072"
       style="fill:none;stroke:#000000;stroke-opacity:1" />
    <rect
       style="fill:none;stroke:#000000;stroke-opacity:1"
       id="rect4074"
       width="1328.7401"
       height="814.96063"
       x="35.933071"
       y="102.7559" />
    <rect
       y="102.7559"
       x="35.933071"
       height="814.96063"
       width="1328.7401"
       id="rect4076"
       style="fill:none;stroke:#000000;stroke-opacity:1" />
    <rect
       style="fill:none;stroke:#000000;stroke-opacity:1"
       id="rect4078"
       width="1328.7401"
       height="814.96063"
       x="35.933071"
       y="102.7559" />
    <rect
       y="102.7559"
       x="35.933071"
       height="814.96063"
       width="1328.7401"
       id="rect4080"
       style="fill:none;stroke:#000000;stroke-opacity:1" />
    <rect
       style="fill:none;stroke:#000000;stroke-opacity:1"
       id="rect4082"
       width="1328.7401"
       height="814.96063"
       x="35.933071"
       y="102.7559" />
    <rect
       y="102.7559"
       x="35.933071"
       height="814.96063"
       width="1328.7401"
       id="rect4084"
       style="fill:none;stroke:#000000;stroke-opacity:1" />
    <rect
       style="fill:none;stroke:#000000;stroke-opacity:1"
       id="rect4086"
       width="1328.7401"
       height="814.96063"
       x="35.933071"
       y="102.7559" />
    <rect
       y="102.7559"
       x="35.933071"
       height="814.96063"
       width="1328.7401"
       id="rect4088"
       style="fill:none;stroke:#000000;stroke-opacity:1" />
    <rect
       style="fill:none;stroke:#000000;stroke-opacity:1"
       id="rect4090"
       width="1328.7401"
       height="814.96063"
       x="35.933071"
       y="102.7559" />
  </g>
</svg>
