<?xml version="1.0" encoding="UTF-8" standalone="no"?>
<!-- Created with Inkscape (http://www.inkscape.org/) -->

<svg
   xmlns:dc="http://purl.org/dc/elements/1.1/"
   xmlns:cc="http://creativecommons.org/ns#"
   xmlns:rdf="http://www.w3.org/1999/02/22-rdf-syntax-ns#"
   xmlns:svg="http://www.w3.org/2000/svg"
   xmlns="http://www.w3.org/2000/svg"
   xmlns:sodipodi="http://sodipodi.sourceforge.net/DTD/sodipodi-0.dtd"
   xmlns:inkscape="http://www.inkscape.org/namespaces/inkscape"
   width="1330.25"
   height="815.96875"
   id="svg2"
   version="1.1"
   inkscape:version="0.48+devel r custom"
   sodipodi:docname="platte-cropped.svg">
  <defs
     id="defs4" />
  <sodipodi:namedview
     id="base"
     pagecolor="#ffffff"
     bordercolor="#666666"
     borderopacity="1.0"
     inkscape:pageopacity="0.0"
     inkscape:pageshadow="2"
     inkscape:zoom="0.35355339"
     inkscape:cx="945.37705"
     inkscape:cy="278.98351"
     inkscape:document-units="px"
     inkscape:current-layer="layer1"
     showgrid="false"
     inkscape:window-width="1436"
     inkscape:window-height="861"
     inkscape:window-x="0"
     inkscape:window-y="18"
     inkscape:window-maximized="0"
     fit-margin-top="0"
     fit-margin-left="0"
     fit-margin-right="0"
     fit-margin-bottom="0"
     units="mm" />
  <metadata
     id="metadata7">
    <rdf:RDF>
      <cc:Work
         rdf:about="">
        <dc:format>image/svg+xml</dc:format>
        <dc:type
           rdf:resource="http://purl.org/dc/dcmitype/StillImage" />
        <dc:title></dc:title>
      </cc:Work>
    </rdf:RDF>
  </metadata>
  <g
     inkscape:label="Layer 1"
     inkscape:groupmode="layer"
     id="layer1"
     transform="translate(-34.93307,-102.26212)">
    <path
       style="fill:none;stroke:#000000;stroke-opacity:1;stroke-width:0.35433071;stroke-miterlimit:4;stroke-dasharray:none"
       d="m 1288.625,444.6875 c -34.2461,0 -62,27.75441 -62,62 0,34.24559 27.7539,62 62,62 15.5493,0 29.7409,-5.73234 40.625,-15.1875 l 0,-93.625 C 1318.3659,450.41984 1304.1743,444.6875 1288.625,444.6875 Z"
       id="path3215"
       inkscape:connector-curvature="0"
       transform="translate(35.43307,3.54337)" />
    <path
       style="fill:none;stroke:#000000;stroke-opacity:1;stroke-width:0.35433071;stroke-miterlimit:4;stroke-dasharray:none"
       d="M 16.28125,99.21875 C 26.364973,119.8121 47.524505,134 72,134 c 24.475493,0 45.63503,-14.1879 55.71875,-34.78125 L 16.28125,99.21875 Z"
       id="path3217"
       inkscape:connector-curvature="0"
       transform="translate(35.43307,3.54337)" />
    <path
       style="fill:none;stroke:#000000;stroke-opacity:1;stroke-width:0.35433071;stroke-miterlimit:4;stroke-dasharray:none"
       d="m 72,879.375 c -24.48926,0 -45.673078,14.20035 -55.75,34.8125 l 111.5,0 C 117.67308,893.57535 96.489258,879.375 72,879.375 Z"
       id="path3219"
       inkscape:connector-curvature="0"
       transform="translate(35.43307,3.54337)" />
    <path
       inkscape:connector-curvature="0"
       id="path3221"
       d="m 1273.2874,571.60633 c 0,5.8707 -4.7592,10.6299 -10.6299,10.6299 -5.8708,0 -10.63,-4.7592 -10.63,-10.6299 0,-5.8707 4.7592,-10.6299 10.63,-10.6299 C 1268.5282,560.97643 1273.2874,565.73563 1273.2874,571.60633 Z"
       style="fill:none;stroke:#000000;stroke-opacity:1;stroke-width:0.35433071;stroke-miterlimit:4;stroke-dasharray:none" />
    <path
       style="fill:none;stroke:#000000;stroke-opacity:1;stroke-width:0.35433071;stroke-miterlimit:4;stroke-dasharray:none"
       d="m 1273.2874,448.86617 c 0,5.8707 -4.7592,10.6299 -10.6299,10.6299 -5.8708,0 -10.63,-4.7592 -10.63,-10.6299 0,-5.8707 4.7592,-10.6299 10.63,-10.6299 C 1268.5282,438.23627 1273.2874,442.99547 1273.2874,448.86617 Z"
       id="path3227"
       inkscape:connector-curvature="0" />
    <path
       inkscape:connector-curvature="0"
       id="path3229"
       d="m 56.692913,136.94886 c 0,5.8707 -4.759179,10.6299 -10.629921,10.6299 -5.870744,0 -10.629922,-4.7592 -10.629922,-10.6299 0,-5.8707 4.759178,-10.6299 10.629922,-10.6299 C 51.933734,126.31896 56.692913,131.07816 56.692913,136.94886 Z"
       style="fill:none;stroke:#000000;stroke-opacity:1;stroke-width:0.35433071;stroke-miterlimit:4;stroke-dasharray:none" />
    <path
       style="fill:none;stroke:#000000;stroke-opacity:1;stroke-width:0.35433071;stroke-miterlimit:4;stroke-dasharray:none"
       d="m 179.4685,136.94886 c 0,5.8707 -4.75918,10.6299 -10.62992,10.6299 -5.87074,0 -10.62992,-4.7592 -10.62992,-10.6299 0,-5.8707 4.75918,-10.6299 10.62992,-10.6299 C 174.70932,126.31896 179.4685,131.07816 179.4685,136.94886 Z"
       id="path3231"
       inkscape:connector-curvature="0" />
    <path
       inkscape:connector-curvature="0"
       id="path3241"
       d="m 179.4685,883.52364 c 0,5.8707 -4.75918,10.6299 -10.62992,10.6299 -5.87074,0 -10.62992,-4.7592 -10.62992,-10.6299 0,-5.8707 4.75918,-10.6299 10.62992,-10.6299 C 174.70932,872.89374 179.4685,877.65294 179.4685,883.52364 Z"
       style="fill:none;stroke:#000000;stroke-opacity:1;stroke-width:0.35433071;stroke-miterlimit:4;stroke-dasharray:none" />
    <path
       style="fill:none;stroke:#000000;stroke-opacity:1;stroke-width:0.35433071;stroke-miterlimit:4;stroke-dasharray:none"
       d="m 56.692913,883.52364 c 0,5.8707 -4.759179,10.6299 -10.629921,10.6299 -5.870744,0 -10.629922,-4.7592 -10.629922,-10.6299 0,-5.8707 4.759178,-10.6299 10.629922,-10.6299 C 51.933734,872.89374 56.692913,877.65294 56.692913,883.52364 Z"
       id="path3243"
       inkscape:connector-curvature="0" />
    <path
       inkscape:connector-curvature="0"
       id="path3268"
       d="m 1222.3715,510.23625 c 0,11.64436 -9.4397,21.08408 -21.0841,21.08408 -11.6445,0 -21.0842,-9.43972 -21.0842,-21.08408 0,-11.64436 9.4397,-21.08408 21.0842,-21.08408 C 1212.9318,489.15217 1222.3715,498.59189 1222.3715,510.23625 Z"
       style="fill:none;stroke:#000000;stroke-width:0.35140222;stroke-miterlimit:4;stroke-opacity:1;stroke-dasharray:none" />
    <path
       style="fill:none;stroke:#000000;stroke-width:0.36778751;stroke-miterlimit:4;stroke-opacity:1;stroke-dasharray:none"
       d="m 128.52674,198.33665 c 0,11.63983 -9.43603,21.0759 -21.07595,21.0759 -11.639932,0 -21.075949,-9.43607 -21.075949,-21.0759 0,-11.63983 9.436017,-21.0759 21.075949,-21.0759 C 119.09071,177.26075 128.52674,186.69682 128.52674,198.33665 Z"
       id="path4283"
       inkscape:connector-curvature="0" />
    <path
       inkscape:connector-curvature="0"
       id="path4285"
       d="m 128.52674,822.13585 c 0,11.63983 -9.43603,21.0759 -21.07595,21.0759 -11.639932,0 -21.075949,-9.43607 -21.075949,-21.0759 0,-11.63983 9.436017,-21.0759 21.075949,-21.0759 C 119.09071,801.05995 128.52674,810.49602 128.52674,822.13585 Z"
       style="fill:none;stroke:#000000;stroke-width:0.36778751;stroke-miterlimit:4;stroke-opacity:1;stroke-dasharray:none" />
  </g>
</svg>
