  0
SECTION
  2
HEADER
  9
$ACADVER
  1
AC1014
  9
$HANDSEED
  5
FFFF
  9
$MEASUREMENT
 70
     1
  0
ENDSEC
  0
SECTION
  2
TABLES
  0
TABLE
  2
VPORT
  5
8
330
0
100
AcDbSymbolTable
 70
     4
  0
VPORT
  5
2E
330
8
100
AcDbSymbolTableRecord
100
AcDbViewportTableRecord
  2
*ACTIVE
 70
     0
 10
0.0
 20
0.0
 11
1.0
 21
1.0
 12
210.0
 22
148.5
 13
0.0
 23
0.0
 14
10.0
 24
10.0
 15
10.0
 25
10.0
 16
0.0
 26
0.0
 36
1.0
 17
0.0
 27
0.0
 37
0.0
 40
341.0
 41
1.24
 42
50.0
 43
0.0
 44
0.0
 50
0.0
 51
0.0
 71
     0
 72
   100
 73
     1
 74
     3
 75
     0
 76
     0
 77
     0
 78
     0
  0
ENDTAB
  0
TABLE
  2
LTYPE
  5
5
330
0
100
AcDbSymbolTable
 70
     1
  0
LTYPE
  5
14
330
5
100
AcDbSymbolTableRecord
100
AcDbLinetypeTableRecord
  2
BYBLOCK
 70
     0
  3

 72
    65
 73
     0
 40
0.0
  0
LTYPE
  5
15
330
5
100
AcDbSymbolTableRecord
100
AcDbLinetypeTableRecord
  2
BYLAYER
 70
     0
  3

 72
    65
 73
     0
 40
0.0
  0
LTYPE
  5
16
330
5
100
AcDbSymbolTableRecord
100
AcDbLinetypeTableRecord
  2
CONTINUOUS
 70
     0
  3
Solid line
 72
    65
 73
     0
 40
0.0
  0
ENDTAB
  0
TABLE
  2
LAYER
  5
2
100
AcDbSymbolTable
 70
2
  0
LAYER
  5
50
100
AcDbSymbolTableRecord
100
AcDbLayerTableRecord
  2
0
 70
0
  6
CONTINUOUS
  0
LAYER
  5
51
100
AcDbSymbolTableRecord
100
AcDbLayerTableRecord
  2
mytext
 70
0
  6
CONTINUOUS
  0
ENDTAB
  0
TABLE
  2
STYLE
  5
3
330
0
100
AcDbSymbolTable
 70
     1
  0
STYLE
  5
11
330
3
100
AcDbSymbolTableRecord
100
AcDbTextStyleTableRecord
  2
STANDARD
 70
     0
 40
0.0
 41
1.0
 50
0.0
 71
     0
 42
2.5
  3
txt
  4

  0
ENDTAB
  0
TABLE
  2
VIEW
  5
6
330
0
100
AcDbSymbolTable
 70
     0
  0
ENDTAB
  0
TABLE
  2
UCS
  5
7
330
0
100
AcDbSymbolTable
 70
     0
  0
ENDTAB
  0
TABLE
  2
APPID
  5
9
330
0
100
AcDbSymbolTable
 70
     2
  0
APPID
  5
12
330
9
100
AcDbSymbolTableRecord
100
AcDbRegAppTableRecord
  2
ACAD
 70
     0
  0
ENDTAB
  0
TABLE
  2
DIMSTYLE
  5
A
330
0
100
AcDbSymbolTable
 70
     1
  0
DIMSTYLE
105
27
330
A
100
AcDbSymbolTableRecord
100
AcDbDimStyleTableRecord
  2
ISO-25
 70
     0
  3

  4

  5

  6

  7

 40
1.0
 41
2.5
 42
0.625
 43
3.75
 44
1.25
 45
0.0
 46
0.0
 47
0.0
 48
0.0
140
2.5
141
2.5
142
0.0
143
0.03937007874016
144
1.0
145
0.0
146
1.0
147
0.625
 71
     0
 72
     0
 73
     0
 74
     0
 75
     0
 76
     0
 77
     1
 78
     8
170
     0
171
     3
172
     1
173
     0
174
     0
175
     0
176
     0
177
     0
178
     0
270
     2
271
     2
272
     2
273
     2
274
     3
340
11
275
     0
280
     0
281
     0
282
     0
283
     0
284
     8
285
     0
286
     0
287
     3
288
     0
  0
ENDTAB
  0
TABLE
  2
BLOCK_RECORD
  5
1
330
0
100
AcDbSymbolTable
 70
     1
  0
BLOCK_RECORD
  5
1F
330
1
100
AcDbSymbolTableRecord
100
AcDbBlockTableRecord
  2
*MODEL_SPACE
  0
BLOCK_RECORD
  5
1B
330
1
100
AcDbSymbolTableRecord
100
AcDbBlockTableRecord
  2
*PAPER_SPACE
  0
ENDTAB
  0
ENDSEC
  0
SECTION
  2
BLOCKS
  0
BLOCK
  5
20
330
1F
100
AcDbEntity
  8
0
100
AcDbBlockBegin
  2
*MODEL_SPACE
 70
     0
 10
0.0
 20
0.0
 30
0.0
  3
*MODEL_SPACE
  1

  0
ENDBLK
  5
21
330
1F
100
AcDbEntity
  8
0
100
AcDbBlockEnd
  0
BLOCK
  5
1C
330
1B
100
AcDbEntity
 67
     1
  8
0
100
AcDbBlockBegin
  2
*PAPER_SPACE
  1

  0
ENDBLK
  5
1D
330
1B
100
AcDbEntity
 67
     1
  8
0
100
AcDbBlockEnd
  0
ENDSEC
  0
SECTION
  2
ENTITIES
  0
SPLINE
  5
100
100
AcDbEntity
  8
mytext
 62
1
100
AcDbSpline
 70
8
 71
3
 72
8
 73
4
 74
0
 40
0
 40
0
 40
0
 40
0
 40
1
 40
1
 40
1
 40
1
 10
0.317536
 20
102.303232
 30
0.0
 10
0.322336
 20
101.404224
 30
0.0
 10
0.335536
 20
100.427920
 30
0.0
 10
0.355056
 20
99.371984
 30
0.0
  0
SPLINE
  5
101
100
AcDbEntity
  8
mytext
 62
1
100
AcDbSpline
 70
8
 71
3
 72
8
 73
4
 74
0
 40
0
 40
0
 40
0
 40
0
 40
1
 40
1
 40
1
 40
1
 10
0.355056
 20
99.371984
 30
0.0
 10
0.384896
 20
97.757984
 30
0.0
 10
0.431216
 20
95.960432
 30
0.0
 10
0.495680
 20
93.979792
 30
0.0
  0
SPLINE
  5
102
100
AcDbEntity
  8
mytext
 62
1
100
AcDbSpline
 70
8
 71
3
 72
8
 73
4
 74
0
 40
0
 40
0
 40
0
 40
0
 40
1
 40
1
 40
1
 40
1
 10
0.495680
 20
93.979792
 30
0.0
 10
0.495680
 20
93.979792
 30
0.0
 10
0.554000
 20
92.169976
 30
0.0
 10
0.612864
 20
90.361048
 30
0.0
  0
SPLINE
  5
103
100
AcDbEntity
  8
mytext
 62
1
100
AcDbSpline
 70
8
 71
3
 72
8
 73
4
 74
0
 40
0
 40
0
 40
0
 40
0
 40
1
 40
1
 40
1
 40
1
 10
0.612864
 20
90.361048
 30
0.0
 10
0.671744
 20
88.552112
 30
0.0
 10
0.731616
 20
86.743856
 30
0.0
 10
0.731616
 20
86.743856
 30
0.0
  0
SPLINE
  5
104
100
AcDbEntity
  8
mytext
 62
1
100
AcDbSpline
 70
8
 71
3
 72
8
 73
4
 74
0
 40
0
 40
0
 40
0
 40
0
 40
1
 40
1
 40
1
 40
1
 10
1.225368
 20
86.759456
 30
0.0
 10
1.466560
 20
86.767456
 30
0.0
 10
1.707088
 20
87.104048
 30
0.0
 10
1.948800
 20
87.770400
 30
0.0
  0
SPLINE
  5
105
100
AcDbEntity
  8
mytext
 62
1
100
AcDbSpline
 70
8
 71
3
 72
8
 73
4
 74
0
 40
0
 40
0
 40
0
 40
0
 40
1
 40
1
 40
1
 40
1
 10
1.948800
 20
87.770400
 30
0.0
 10
2.645480
 20
89.150168
 30
0.0
 10
3.784352
 20
90.315696
 30
0.0
 10
5.364424
 20
91.265712
 30
0.0
  0
SPLINE
  5
106
100
AcDbEntity
  8
mytext
 62
1
100
AcDbSpline
 70
8
 71
3
 72
8
 73
4
 74
0
 40
0
 40
0
 40
0
 40
0
 40
1
 40
1
 40
1
 40
1
 10
5.364424
 20
91.265712
 30
0.0
 10
6.613632
 20
92.016792
 30
0.0
 10
8.138072
 20
92.633248
 30
0.0
 10
9.939432
 20
93.115712
 30
0.0
  0
SPLINE
  5
107
100
AcDbEntity
  8
mytext
 62
1
100
AcDbSpline
 70
8
 71
3
 72
8
 73
4
 74
0
 40
0
 40
0
 40
0
 40
0
 40
1
 40
1
 40
1
 40
1
 10
9.939432
 20
93.115712
 30
0.0
 10
11.383896
 20
93.502584
 30
0.0
 10
13.007112
 20
93.803120
 30
0.0
 10
14.806616
 20
94.017272
 30
0.0
  0
SPLINE
  5
108
100
AcDbEntity
  8
mytext
 62
1
100
AcDbSpline
 70
8
 71
3
 72
8
 73
4
 74
0
 40
0
 40
0
 40
0
 40
0
 40
1
 40
1
 40
1
 40
1
 10
14.806616
 20
94.017272
 30
0.0
 10
16.326000
 20
94.198088
 30
0.0
 10
17.971608
 20
94.317400
 30
0.0
 10
19.744112
 20
94.375080
 30
0.0
  0
LWPOLYLINE
  5
109
100
AcDbEntity
  8
mytext
 62
1
100
AcDbPolyline
 90
2
 70
1
 10
0.731616
 20
86.743856
 30
0.0
 10
1.225368
 20
86.759456
 30
0.0
  0
SPLINE
  5
10a
100
AcDbEntity
  8
mytext
 62
1
100
AcDbSpline
 70
8
 71
3
 72
8
 73
4
 74
0
 40
0
 40
0
 40
0
 40
0
 40
1
 40
1
 40
1
 40
1
 10
24.490992
 20
94.529768
 30
0.0
 10
26.018496
 20
94.579448
 30
0.0
 10
27.710368
 20
94.634776
 30
0.0
 10
29.237864
 20
94.684456
 30
0.0
  0
SPLINE
  5
10b
100
AcDbEntity
  8
mytext
 62
1
100
AcDbSpline
 70
8
 71
3
 72
8
 73
4
 74
0
 40
0
 40
0
 40
0
 40
0
 40
1
 40
1
 40
1
 40
1
 10
29.237864
 20
94.684456
 30
0.0
 10
31.852448
 20
94.769504
 30
0.0
 10
33.984744
 20
94.839144
 30
0.0
 10
33.984744
 20
94.839144
 30
0.0
  0
SPLINE
  5
10c
100
AcDbEntity
  8
mytext
 62
1
100
AcDbSpline
 70
8
 71
3
 72
8
 73
4
 74
0
 40
0
 40
0
 40
0
 40
0
 40
1
 40
1
 40
1
 40
1
 10
33.984744
 20
94.839144
 30
0.0
 10
35.349704
 20
94.883544
 30
0.0
 10
36.756448
 20
94.720816
 30
0.0
 10
38.205056
 20
94.350088
 30
0.0
  0
SPLINE
  5
10d
100
AcDbEntity
  8
mytext
 62
1
100
AcDbSpline
 70
8
 71
3
 72
8
 73
4
 74
0
 40
0
 40
0
 40
0
 40
0
 40
1
 40
1
 40
1
 40
1
 10
38.205056
 20
94.350088
 30
0.0
 10
39.500264
 20
94.018640
 30
0.0
 10
40.828904
 20
93.521208
 30
0.0
 10
42.190992
 20
92.857896
 30
0.0
  0
SPLINE
  5
10e
100
AcDbEntity
  8
mytext
 62
1
100
AcDbSpline
 70
8
 71
3
 72
8
 73
4
 74
0
 40
0
 40
0
 40
0
 40
0
 40
1
 40
1
 40
1
 40
1
 10
42.190992
 20
92.857896
 30
0.0
 10
43.392296
 20
92.272888
 30
0.0
 10
44.620472
 20
91.558848
 30
0.0
 10
45.873800
 20
90.715712
 30
0.0
  0
LWPOLYLINE
  5
10f
100
AcDbEntity
  8
mytext
 62
1
100
AcDbPolyline
 90
2
 70
1
 10
19.744112
 20
94.375080
 30
0.0
 10
24.490992
 20
94.529768
 30
0.0
  0
SPLINE
  5
110
100
AcDbEntity
  8
mytext
 62
1
100
AcDbSpline
 70
8
 71
3
 72
8
 73
4
 74
0
 40
0
 40
0
 40
0
 40
0
 40
1
 40
1
 40
1
 40
1
 10
46.780056
 20
94.234472
 30
0.0
 10
46.558408
 20
95.794760
 30
0.0
 10
46.334016
 20
97.704960
 30
0.0
 10
46.109744
 20
99.964160
 30
0.0
  0
SPLINE
  5
111
100
AcDbEntity
  8
mytext
 62
1
100
AcDbSpline
 70
8
 71
3
 72
8
 73
4
 74
0
 40
0
 40
0
 40
0
 40
0
 40
1
 40
1
 40
1
 40
1
 10
46.109744
 20
99.964160
 30
0.0
 10
45.939584
 20
101.678192
 30
0.0
 10
45.768912
 20
103.593136
 30
0.0
 10
45.597240
 20
105.709472
 30
0.0
  0
SPLINE
  5
112
100
AcDbEntity
  8
mytext
 62
1
100
AcDbSpline
 70
8
 71
3
 72
8
 73
4
 74
0
 40
0
 40
0
 40
0
 40
0
 40
1
 40
1
 40
1
 40
1
 10
45.597240
 20
105.709472
 30
0.0
 10
45.453216
 20
107.485016
 30
0.0
 10
45.309512
 20
109.402328
 30
0.0
 10
45.164424
 20
111.461040
 30
0.0
  0
SPLINE
  5
113
100
AcDbEntity
  8
mytext
 62
1
100
AcDbSpline
 70
8
 71
3
 72
8
 73
4
 74
0
 40
0
 40
0
 40
0
 40
0
 40
1
 40
1
 40
1
 40
1
 10
45.164424
 20
111.461040
 30
0.0
 10
45.036912
 20
113.270312
 30
0.0
 10
44.908392
 20
115.189304
 30
0.0
 10
44.780056
 20
117.217288
 30
0.0
  0
LWPOLYLINE
  5
114
100
AcDbEntity
  8
mytext
 62
1
100
AcDbPolyline
 90
4
 70
1
 10
45.873800
 20
90.715712
 30
0.0
 10
46.398800
 20
90.732912
 30
0.0
 10
46.876928
 20
91.242288
 30
0.0
 10
46.780056
 20
94.234472
 30
0.0
  0
SPLINE
  5
115
100
AcDbEntity
  8
mytext
 62
1
100
AcDbSpline
 70
8
 71
3
 72
8
 73
4
 74
0
 40
0
 40
0
 40
0
 40
0
 40
1
 40
1
 40
1
 40
1
 10
44.262864
 20
117.923536
 30
0.0
 10
42.443144
 20
117.795264
 30
0.0
 10
40.792184
 20
117.671968
 30
0.0
 10
39.309744
 20
117.551664
 30
0.0
  0
SPLINE
  5
116
100
AcDbEntity
  8
mytext
 62
1
100
AcDbSpline
 70
8
 71
3
 72
8
 73
4
 74
0
 40
0
 40
0
 40
0
 40
0
 40
1
 40
1
 40
1
 40
1
 10
39.309744
 20
117.551664
 30
0.0
 10
37.373224
 20
117.394512
 30
0.0
 10
35.725400
 20
117.243656
 30
0.0
 10
34.364424
 20
117.100104
 30
0.0
  0
SPLINE
  5
117
100
AcDbEntity
  8
mytext
 62
1
100
AcDbSpline
 70
8
 71
3
 72
8
 73
4
 74
0
 40
0
 40
0
 40
0
 40
0
 40
1
 40
1
 40
1
 40
1
 10
34.364424
 20
117.100104
 30
0.0
 10
31.137648
 20
116.759728
 30
0.0
 10
29.527744
 20
116.457768
 30
0.0
 10
29.536304
 20
116.193848
 30
0.0
  0
LWPOLYLINE
  5
118
100
AcDbEntity
  8
mytext
 62
1
100
AcDbPolyline
 90
2
 70
1
 10
44.780056
 20
117.217288
 30
0.0
 10
44.262864
 20
117.923536
 30
0.0
  0
SPLINE
  5
119
100
AcDbEntity
  8
mytext
 62
1
100
AcDbSpline
 70
8
 71
3
 72
8
 73
4
 74
0
 40
0
 40
0
 40
0
 40
0
 40
1
 40
1
 40
1
 40
1
 10
35.948800
 20
111.398536
 30
0.0
 10
36.611144
 20
110.845768
 30
0.0
 10
37.092168
 20
109.535240
 30
0.0
 10
37.392552
 20
107.468848
 30
0.0
  0
SPLINE
  5
11a
100
AcDbEntity
  8
mytext
 62
1
100
AcDbSpline
 70
8
 71
3
 72
8
 73
4
 74
0
 40
0
 40
0
 40
0
 40
0
 40
1
 40
1
 40
1
 40
1
 10
37.392552
 20
107.468848
 30
0.0
 10
37.562856
 20
106.297296
 30
0.0
 10
37.674568
 20
104.883168
 30
0.0
 10
37.728488
 20
103.225096
 30
0.0
  0
LWPOLYLINE
  5
11b
100
AcDbEntity
  8
mytext
 62
1
100
AcDbPolyline
 90
3
 70
1
 10
29.536304
 20
116.193848
 30
0.0
 10
32.742552
 20
113.795416
 30
0.0
 10
35.948800
 20
111.398536
 30
0.0
  0
SPLINE
  5
11c
100
AcDbEntity
  8
mytext
 62
1
100
AcDbSpline
 70
8
 71
3
 72
8
 73
4
 74
0
 40
0
 40
0
 40
0
 40
0
 40
1
 40
1
 40
1
 40
1
 10
14.261288
 20
100.946944
 30
0.0
 10
12.465352
 20
100.888464
 30
0.0
 10
10.830528
 20
101.076024
 30
0.0
 10
9.356600
 20
101.511008
 30
0.0
  0
SPLINE
  5
11d
100
AcDbEntity
  8
mytext
 62
1
100
AcDbSpline
 70
8
 71
3
 72
8
 73
4
 74
0
 40
0
 40
0
 40
0
 40
0
 40
1
 40
1
 40
1
 40
1
 10
9.356600
 20
101.511008
 30
0.0
 10
7.720160
 20
101.993944
 30
0.0
 10
6.282064
 20
102.780784
 30
0.0
 10
5.042536
 20
103.871944
 30
0.0
  0
SPLINE
  5
11e
100
AcDbEntity
  8
mytext
 62
1
100
AcDbSpline
 70
8
 71
3
 72
8
 73
4
 74
0
 40
0
 40
0
 40
0
 40
0
 40
1
 40
1
 40
1
 40
1
 10
5.042536
 20
103.871944
 30
0.0
 10
3.868224
 20
104.905712
 30
0.0
 10
2.873096
 20
106.212576
 30
0.0
 10
2.055040
 20
107.792256
 30
0.0
  0
SPLINE
  5
11f
100
AcDbEntity
  8
mytext
 62
1
100
AcDbSpline
 70
8
 71
3
 72
8
 73
4
 74
0
 40
0
 40
0
 40
0
 40
0
 40
1
 40
1
 40
1
 40
1
 10
2.055040
 20
107.792256
 30
0.0
 10
1.830400
 20
109.299464
 30
0.0
 10
1.465592
 20
110.044592
 30
0.0
 10
0.961288
 20
110.028192
 30
0.0
  0
SPLINE
  5
120
100
AcDbEntity
  8
mytext
 62
1
100
AcDbSpline
 70
8
 71
3
 72
8
 73
4
 74
0
 40
0
 40
0
 40
0
 40
0
 40
1
 40
1
 40
1
 40
1
 10
0.961288
 20
110.028192
 30
0.0
 10
0.585152
 20
110.015952
 30
0.0
 10
0.372792
 20
108.262344
 30
0.0
 10
0.325352
 20
104.765696
 30
0.0
  0
SPLINE
  5
121
100
AcDbEntity
  8
mytext
 62
1
100
AcDbSpline
 70
8
 71
3
 72
8
 73
4
 74
0
 40
0
 40
0
 40
0
 40
0
 40
1
 40
1
 40
1
 40
1
 10
0.325352
 20
104.765696
 30
0.0
 10
0.315272
 20
104.023624
 30
0.0
 10
0.312792
 20
103.202200
 30
0.0
 10
0.317352
 20
102.303192
 30
0.0
  0
LWPOLYLINE
  5
122
100
AcDbEntity
  8
mytext
 62
1
100
AcDbPolyline
 90
6
 70
1
 10
37.728488
 20
103.225096
 30
0.0
 10
37.737848
 20
102.961040
 30
0.0
 10
32.372224
 20
102.407912
 30
0.0
 10
27.006600
 20
101.854784
 30
0.0
 10
21.642536
 20
101.301664
 30
0.0
 10
14.261288
 20
100.946944
 30
0.0
  0
LWPOLYLINE
  5
123
100
AcDbEntity
  8
mytext
 62
1
100
AcDbPolyline
 90
2
 70
1
 10
0.317352
 20
102.303192
 30
0.0
 10
0.317536
 20
102.303232
 30
0.0
  0
SPLINE
  5
124
100
AcDbEntity
  8
mytext
 62
1
100
AcDbSpline
 70
8
 71
3
 72
8
 73
4
 74
0
 40
0
 40
0
 40
0
 40
0
 40
1
 40
1
 40
1
 40
1
 10
5.695672
 20
137.542256
 30
0.0
 10
6.088816
 20
135.870184
 30
0.0
 10
6.455104
 20
134.353296
 30
0.0
 10
6.794104
 20
132.990696
 30
0.0
  0
SPLINE
  5
125
100
AcDbEntity
  8
mytext
 62
1
100
AcDbSpline
 70
8
 71
3
 72
8
 73
4
 74
0
 40
0
 40
0
 40
0
 40
0
 40
1
 40
1
 40
1
 40
1
 10
6.794104
 20
132.990696
 30
0.0
 10
7.234952
 20
131.218656
 30
0.0
 10
7.630784
 20
129.708096
 30
0.0
 10
7.980048
 20
128.459440
 30
0.0
  0
SPLINE
  5
126
100
AcDbEntity
  8
mytext
 62
1
100
AcDbSpline
 70
8
 71
3
 72
8
 73
4
 74
0
 40
0
 40
0
 40
0
 40
0
 40
1
 40
1
 40
1
 40
1
 10
7.980048
 20
128.459440
 30
0.0
 10
8.702240
 20
125.877536
 30
0.0
 10
9.227576
 20
124.414512
 30
0.0
 10
9.558168
 20
124.070384
 30
0.0
  0
SPLINE
  5
127
100
AcDbEntity
  8
mytext
 62
1
100
AcDbSpline
 70
8
 71
3
 72
8
 73
4
 74
0
 40
0
 40
0
 40
0
 40
0
 40
1
 40
1
 40
1
 40
1
 10
9.558168
 20
124.070384
 30
0.0
 10
9.952840
 20
124.083264
 30
0.0
 10
10.140544
 20
124.418840
 30
0.0
 10
10.119104
 20
125.076632
 30
0.0
  0
SPLINE
  5
128
100
AcDbEntity
  8
mytext
 62
1
100
AcDbSpline
 70
8
 71
3
 72
8
 73
4
 74
0
 40
0
 40
0
 40
0
 40
0
 40
1
 40
1
 40
1
 40
1
 10
10.119104
 20
125.076632
 30
0.0
 10
11.317336
 20
127.376432
 30
0.0
 10
12.408976
 20
128.542984
 30
0.0
 10
13.395672
 20
128.575064
 30
0.0
  0
LWPOLYLINE
  5
129
100
AcDbEntity
  8
mytext
 62
1
100
AcDbPolyline
 90
2
 70
1
 10
5.695672
 20
137.543856
 30
0.0
 10
5.695672
 20
137.542256
 30
0.0
  0
SPLINE
  5
12a
100
AcDbEntity
  8
mytext
 62
1
100
AcDbSpline
 70
8
 71
3
 72
8
 73
4
 74
0
 40
0
 40
0
 40
0
 40
0
 40
1
 40
1
 40
1
 40
1
 10
14.020672
 20
128.595384
 30
0.0
 10
15.586936
 20
128.646344
 30
0.0
 10
17.216000
 20
128.586344
 30
0.0
 10
18.906608
 20
128.415696
 30
0.0
  0
SPLINE
  5
12b
100
AcDbEntity
  8
mytext
 62
1
100
AcDbSpline
 70
8
 71
3
 72
8
 73
4
 74
0
 40
0
 40
0
 40
0
 40
0
 40
1
 40
1
 40
1
 40
1
 10
18.906608
 20
128.415696
 30
0.0
 10
20.464008
 20
128.258472
 30
0.0
 10
22.073384
 20
128.006312
 30
0.0
 10
23.736296
 20
127.661008
 30
0.0
  0
SPLINE
  5
12c
100
AcDbEntity
  8
mytext
 62
1
100
AcDbSpline
 70
8
 71
3
 72
8
 73
4
 74
0
 40
0
 40
0
 40
0
 40
0
 40
1
 40
1
 40
1
 40
1
 10
23.736296
 20
127.661008
 30
0.0
 10
25.271824
 20
127.342144
 30
0.0
 10
26.852976
 20
126.943384
 30
0.0
 10
28.478480
 20
126.464128
 30
0.0
  0
SPLINE
  5
12d
100
AcDbEntity
  8
mytext
 62
1
100
AcDbSpline
 70
8
 71
3
 72
8
 73
4
 74
0
 40
0
 40
0
 40
0
 40
0
 40
1
 40
1
 40
1
 40
1
 10
28.478480
 20
126.464128
 30
0.0
 10
30.492880
 20
125.857688
 30
0.0
 10
32.379112
 20
125.117768
 30
0.0
 10
34.137856
 20
124.243816
 30
0.0
  0
SPLINE
  5
12e
100
AcDbEntity
  8
mytext
 62
1
100
AcDbSpline
 70
8
 71
3
 72
8
 73
4
 74
0
 40
0
 40
0
 40
0
 40
0
 40
1
 40
1
 40
1
 40
1
 10
34.137856
 20
124.243816
 30
0.0
 10
35.998216
 20
123.319384
 30
0.0
 10
37.715112
 20
122.245688
 30
0.0
 10
39.289424
 20
121.021944
 30
0.0
  0
SPLINE
  5
12f
100
AcDbEntity
  8
mytext
 62
1
100
AcDbSpline
 70
8
 71
3
 72
8
 73
4
 74
0
 40
0
 40
0
 40
0
 40
0
 40
1
 40
1
 40
1
 40
1
 10
39.289424
 20
121.021944
 30
0.0
 10
39.720240
 20
121.035944
 30
0.0
 10
39.979352
 20
123.016280
 30
0.0
 10
40.065984
 20
126.964128
 30
0.0
  0
SPLINE
  5
130
100
AcDbEntity
  8
mytext
 62
1
100
AcDbSpline
 70
8
 71
3
 72
8
 73
4
 74
0
 40
0
 40
0
 40
0
 40
0
 40
1
 40
1
 40
1
 40
1
 10
40.065984
 20
126.964128
 30
0.0
 10
40.102784
 20
128.642224
 30
0.0
 10
40.108544
 20
130.675256
 30
0.0
 10
40.083184
 20
133.064128
 30
0.0
  0
LWPOLYLINE
  5
131
100
AcDbEntity
  8
mytext
 62
1
100
AcDbPolyline
 90
2
 70
1
 10
13.395672
 20
128.575064
 30
0.0
 10
14.020672
 20
128.595384
 30
0.0
  0
SPLINE
  5
132
100
AcDbEntity
  8
mytext
 62
1
100
AcDbSpline
 70
8
 71
3
 72
8
 73
4
 74
0
 40
0
 40
0
 40
0
 40
0
 40
1
 40
1
 40
1
 40
1
 10
39.433184
 20
133.834296
 30
0.0
 10
38.610752
 20
132.822232
 30
0.0
 10
37.683800
 20
132.049904
 30
0.0
 10
36.653496
 20
131.517112
 30
0.0
  0
SPLINE
  5
133
100
AcDbEntity
  8
mytext
 62
1
100
AcDbSpline
 70
8
 71
3
 72
8
 73
4
 74
0
 40
0
 40
0
 40
0
 40
0
 40
1
 40
1
 40
1
 40
1
 10
36.653496
 20
131.517112
 30
0.0
 10
35.595144
 20
130.969816
 30
0.0
 10
34.426512
 20
130.674336
 30
0.0
 10
33.148808
 20
130.632736
 30
0.0
  0
SPLINE
  5
134
100
AcDbEntity
  8
mytext
 62
1
100
AcDbSpline
 70
8
 71
3
 72
8
 73
4
 74
0
 40
0
 40
0
 40
0
 40
0
 40
1
 40
1
 40
1
 40
1
 10
33.148808
 20
130.632736
 30
0.0
 10
32.359464
 20
130.607056
 30
0.0
 10
31.880368
 20
130.855256
 30
0.0
 10
31.709752
 20
131.376488
 30
0.0
  0
LWPOLYLINE
  5
135
100
AcDbEntity
  8
mytext
 62
1
100
AcDbPolyline
 90
3
 70
1
 10
40.083184
 20
133.064128
 30
0.0
 10
39.662872
 20
133.840696
 30
0.0
 10
39.433184
 20
133.834296
 30
0.0
  0
SPLINE
  5
136
100
AcDbEntity
  8
mytext
 62
1
100
AcDbSpline
 70
8
 71
3
 72
8
 73
4
 74
0
 40
0
 40
0
 40
0
 40
0
 40
1
 40
1
 40
1
 40
1
 10
35.723808
 20
137.532736
 30
0.0
 10
37.459520
 20
137.589216
 30
0.0
 10
39.087320
 20
137.403936
 30
0.0
 10
40.608184
 20
136.976488
 30
0.0
  0
SPLINE
  5
137
100
AcDbEntity
  8
mytext
 62
1
100
AcDbSpline
 70
8
 71
3
 72
8
 73
4
 74
0
 40
0
 40
0
 40
0
 40
0
 40
1
 40
1
 40
1
 40
1
 10
40.608184
 20
136.976488
 30
0.0
 10
42.199696
 20
136.529192
 30
0.0
 10
43.673832
 20
135.816224
 30
0.0
 10
45.030064
 20
134.838984
 30
0.0
  0
LWPOLYLINE
  5
138
100
AcDbEntity
  8
mytext
 62
1
100
AcDbPolyline
 90
4
 70
1
 10
31.709752
 20
131.376488
 30
0.0
 10
31.867560
 20
133.587424
 30
0.0
 10
31.744120
 20
137.403048
 30
0.0
 10
35.723808
 20
137.532736
 30
0.0
  0
SPLINE
  5
139
100
AcDbEntity
  8
mytext
 62
1
100
AcDbSpline
 70
8
 71
3
 72
8
 73
4
 74
0
 40
0
 40
0
 40
0
 40
0
 40
1
 40
1
 40
1
 40
1
 10
43.403496
 20
148.384296
 30
0.0
 10
42.339808
 20
148.020432
 30
0.0
 10
39.455640
 20
145.849176
 30
0.0
 10
37.692560
 20
145.092112
 30
0.0
  0
SPLINE
  5
13a
100
AcDbEntity
  8
mytext
 62
1
100
AcDbSpline
 70
8
 71
3
 72
8
 73
4
 74
0
 40
0
 40
0
 40
0
 40
0
 40
1
 40
1
 40
1
 40
1
 10
37.692560
 20
145.092112
 30
0.0
 10
36.420728
 20
144.545992
 30
0.0
 10
34.948680
 20
143.998016
 30
0.0
 10
33.275376
 20
143.445240
 30
0.0
  0
SPLINE
  5
13b
100
AcDbEntity
  8
mytext
 62
1
100
AcDbSpline
 70
8
 71
3
 72
8
 73
4
 74
0
 40
0
 40
0
 40
0
 40
0
 40
1
 40
1
 40
1
 40
1
 10
33.275376
 20
143.445240
 30
0.0
 10
31.905120
 20
142.992584
 30
0.0
 10
30.399240
 20
142.536736
 30
0.0
 10
28.759752
 20
142.079608
 30
0.0
  0
LWPOLYLINE
  5
13c
100
AcDbEntity
  8
mytext
 62
1
100
AcDbPolyline
 90
5
 70
1
 10
45.030064
 20
134.838984
 30
0.0
 10
45.616000
 20
135.023360
 30
0.0
 10
44.878496
 20
139.476488
 30
0.0
 10
44.141000
 20
143.929608
 30
0.0
 10
43.403496
 20
148.384296
 30
0.0
  0
SPLINE
  5
13d
100
AcDbEntity
  8
mytext
 62
1
100
AcDbSpline
 70
8
 71
3
 72
8
 73
4
 74
0
 40
0
 40
0
 40
0
 40
0
 40
1
 40
1
 40
1
 40
1
 10
13.044120
 20
139.395240
 30
0.0
 10
11.575256
 20
139.255760
 30
0.0
 10
10.325320
 20
139.121216
 30
0.0
 10
9.295688
 20
138.992112
 30
0.0
  0
SPLINE
  5
13e
100
AcDbEntity
  8
mytext
 62
1
100
AcDbSpline
 70
8
 71
3
 72
8
 73
4
 74
0
 40
0
 40
0
 40
0
 40
0
 40
1
 40
1
 40
1
 40
1
 10
9.295688
 20
138.992112
 30
0.0
 10
6.874136
 20
138.688512
 30
0.0
 10
5.667376
 20
138.413272
 30
0.0
 10
5.675376
 20
138.167112
 30
0.0
  0
LWPOLYLINE
  5
13f
100
AcDbEntity
  8
mytext
 62
1
100
AcDbPolyline
 90
4
 70
1
 10
28.759752
 20
142.079608
 30
0.0
 10
23.520688
 20
141.184296
 30
0.0
 10
18.283184
 20
140.290552
 30
0.0
 10
13.044120
 20
139.395240
 30
0.0
  0
SPLINE
  5
140
100
AcDbEntity
  8
mytext
 62
1
100
AcDbSpline
 70
8
 71
3
 72
8
 73
4
 74
0
 40
0
 40
0
 40
0
 40
0
 40
1
 40
1
 40
1
 40
1
 10
18.614128
 20
134.144288
 30
0.0
 10
18.614128
 20
134.144288
 30
0.0
 10
20.733576
 20
133.513616
 30
0.0
 10
22.853032
 20
132.882944
 30
0.0
  0
SPLINE
  5
141
100
AcDbEntity
  8
mytext
 62
1
100
AcDbSpline
 70
8
 71
3
 72
8
 73
4
 74
0
 40
0
 40
0
 40
0
 40
0
 40
1
 40
1
 40
1
 40
1
 10
22.853032
 20
132.882944
 30
0.0
 10
24.972488
 20
132.252272
 30
0.0
 10
27.091944
 20
131.621600
 30
0.0
 10
27.091944
 20
131.621600
 30
0.0
  0
LWPOLYLINE
  5
142
100
AcDbEntity
  8
mytext
 62
1
100
AcDbPolyline
 90
2
 70
1
 10
5.675376
 20
138.167112
 30
0.0
 10
5.695672
 20
137.543856
 30
0.0
  0
SPLINE
  5
143
100
AcDbEntity
  8
mytext
 62
1
100
AcDbSpline
 70
8
 71
3
 72
8
 73
4
 74
0
 40
0
 40
0
 40
0
 40
0
 40
1
 40
1
 40
1
 40
1
 10
26.771280
 20
136.417592
 30
0.0
 10
25.214640
 20
136.101352
 30
0.0
 10
23.843120
 20
135.801848
 30
0.0
 10
22.656720
 20
135.519080
 30
0.0
  0
SPLINE
  5
144
100
AcDbEntity
  8
mytext
 62
1
100
AcDbSpline
 70
8
 71
3
 72
8
 73
4
 74
0
 40
0
 40
0
 40
0
 40
0
 40
1
 40
1
 40
1
 40
1
 10
22.656720
 20
135.519080
 30
0.0
 10
20.901536
 20
135.100744
 30
0.0
 10
19.551520
 20
134.719048
 30
0.0
 10
18.606680
 20
134.373968
 30
0.0
  0
LWPOLYLINE
  5
145
100
AcDbEntity
  8
mytext
 62
1
100
AcDbPolyline
 90
5
 70
0
 10
27.091944
 20
131.621600
 30
0.0
 10
27.322168
 20
131.628800
 30
0.0
 10
27.309288
 20
132.023480
 30
0.0
 10
26.935640
 20
136.423192
 30
0.0
 10
26.771280
 20
136.417592
 30
0.0
  0
SPLINE
  5
146
100
AcDbEntity
  8
mytext
 62
1
100
AcDbSpline
 70
8
 71
3
 72
8
 73
4
 74
0
 40
0
 40
0
 40
0
 40
0
 40
1
 40
1
 40
1
 40
1
 10
5.492536
 20
168.057920
 30
0.0
 10
6.789824
 20
165.290584
 30
0.0
 10
7.453880
 20
163.456904
 30
0.0
 10
7.483160
 20
162.557920
 30
0.0
  0
LWPOLYLINE
  5
147
100
AcDbEntity
  8
mytext
 62
1
100
AcDbPolyline
 90
3
 70
0
 10
18.606680
 20
134.373968
 30
0.0
 10
18.613880
 20
134.143744
 30
0.0
 10
18.613816
 20
134.143768
 30
0.0
  0
SPLINE
  5
148
100
AcDbEntity
  8
mytext
 62
1
100
AcDbSpline
 70
8
 71
3
 72
8
 73
4
 74
0
 40
0
 40
0
 40
0
 40
0
 40
1
 40
1
 40
1
 40
1
 10
6.594096
 20
158.512608
 30
0.0
 10
6.629056
 20
157.438208
 30
0.0
 10
6.865464
 20
156.578712
 30
0.0
 10
7.303472
 20
155.934480
 30
0.0
  0
SPLINE
  5
149
100
AcDbEntity
  8
mytext
 62
1
100
AcDbSpline
 70
8
 71
3
 72
8
 73
4
 74
0
 40
0
 40
0
 40
0
 40
0
 40
1
 40
1
 40
1
 40
1
 10
7.303472
 20
155.934480
 30
0.0
 10
8.534632
 20
153.984760
 30
0.0
 10
9.797552
 20
152.458720
 30
0.0
 10
11.092536
 20
151.357920
 30
0.0
  0
SPLINE
  5
14a
100
AcDbEntity
  8
mytext
 62
1
100
AcDbSpline
 70
8
 71
3
 72
8
 73
4
 74
0
 40
0
 40
0
 40
0
 40
0
 40
1
 40
1
 40
1
 40
1
 10
11.092536
 20
151.357920
 30
0.0
 10
12.840288
 20
149.872248
 30
0.0
 10
14.645728
 20
149.159784
 30
0.0
 10
16.509728
 20
149.220424
 30
0.0
  0
LWPOLYLINE
  5
14b
100
AcDbEntity
  8
mytext
 62
1
100
AcDbPolyline
 90
3
 70
1
 10
7.483160
 20
162.557920
 30
0.0
 10
6.567536
 20
159.301672
 30
0.0
 10
6.594096
 20
158.512608
 30
0.0
  0
SPLINE
  5
14c
100
AcDbEntity
  8
mytext
 62
1
100
AcDbSpline
 70
8
 71
3
 72
8
 73
4
 74
0
 40
0
 40
0
 40
0
 40
0
 40
1
 40
1
 40
1
 40
1
 10
16.905040
 20
149.234504
 30
0.0
 10
19.013712
 20
149.303144
 30
0.0
 10
20.622208
 20
150.056160
 30
0.0
 10
21.731600
 20
151.495448
 30
0.0
  0
SPLINE
  5
14d
100
AcDbEntity
  8
mytext
 62
1
100
AcDbSpline
 70
8
 71
3
 72
8
 73
4
 74
0
 40
0
 40
0
 40
0
 40
0
 40
1
 40
1
 40
1
 40
1
 10
21.731600
 20
151.495448
 30
0.0
 10
22.675560
 20
152.720112
 30
0.0
 10
23.257992
 20
154.440928
 30
0.0
 10
23.478472
 20
156.657944
 30
0.0
  0
SPLINE
  5
14e
100
AcDbEntity
  8
mytext
 62
1
100
AcDbSpline
 70
8
 71
3
 72
8
 73
4
 74
0
 40
0
 40
0
 40
0
 40
0
 40
1
 40
1
 40
1
 40
1
 10
23.478472
 20
156.657944
 30
0.0
 10
23.508872
 20
158.017528
 30
0.0
 10
23.606048
 20
159.148216
 30
0.0
 10
23.770664
 20
160.050136
 30
0.0
  0
SPLINE
  5
14f
100
AcDbEntity
  8
mytext
 62
1
100
AcDbSpline
 70
8
 71
3
 72
8
 73
4
 74
0
 40
0
 40
0
 40
0
 40
0
 40
1
 40
1
 40
1
 40
1
 10
23.770664
 20
160.050136
 30
0.0
 10
24.090080
 20
161.800208
 30
0.0
 10
24.663088
 20
162.688960
 30
0.0
 10
25.487848
 20
162.715760
 30
0.0
  0
LWPOLYLINE
  5
150
100
AcDbEntity
  8
mytext
 62
1
100
AcDbPolyline
 90
2
 70
1
 10
16.509728
 20
149.220424
 30
0.0
 10
16.905040
 20
149.234504
 30
0.0
  0
SPLINE
  5
151
100
AcDbEntity
  8
mytext
 62
1
100
AcDbSpline
 70
8
 71
3
 72
8
 73
4
 74
0
 40
0
 40
0
 40
0
 40
0
 40
1
 40
1
 40
1
 40
1
 10
26.078472
 20
162.734480
 30
0.0
 10
27.769432
 20
162.789520
 30
0.0
 10
29.150080
 20
162.687360
 30
0.0
 10
30.220664
 20
162.426672
 30
0.0
  0
SPLINE
  5
152
100
AcDbEntity
  8
mytext
 62
1
100
AcDbSpline
 70
8
 71
3
 72
8
 73
4
 74
0
 40
0
 40
0
 40
0
 40
0
 40
1
 40
1
 40
1
 40
1
 10
30.220664
 20
162.426672
 30
0.0
 10
32.023680
 20
161.987656
 30
0.0
 10
32.947536
 20
161.100216
 30
0.0
 10
32.990976
 20
159.765736
 30
0.0
  0
LWPOLYLINE
  5
153
100
AcDbEntity
  8
mytext
 62
1
100
AcDbPolyline
 90
2
 70
1
 10
25.487848
 20
162.715760
 30
0.0
 10
26.078472
 20
162.734480
 30
0.0
  0
SPLINE
  5
154
100
AcDbEntity
  8
mytext
 62
1
100
AcDbSpline
 70
8
 71
3
 72
8
 73
4
 74
0
 40
0
 40
0
 40
0
 40
0
 40
1
 40
1
 40
1
 40
1
 10
33.017536
 20
158.943856
 30
0.0
 10
33.057456
 20
157.715976
 30
0.0
 10
32.346648
 20
156.968736
 30
0.0
 10
30.884728
 20
156.701672
 30
0.0
  0
LWPOLYLINE
  5
155
100
AcDbEntity
  8
mytext
 62
1
100
AcDbPolyline
 90
2
 70
1
 10
32.990976
 20
159.765736
 30
0.0
 10
33.017536
 20
158.943856
 30
0.0
  0
SPLINE
  5
156
100
AcDbEntity
  8
mytext
 62
1
100
AcDbSpline
 70
8
 71
3
 72
8
 73
4
 74
0
 40
0
 40
0
 40
0
 40
0
 40
1
 40
1
 40
1
 40
1
 10
30.687848
 20
156.695272
 30
0.0
 10
29.942344
 20
156.671032
 30
0.0
 10
28.707512
 20
157.497000
 30
0.0
 10
26.984728
 20
159.174952
 30
0.0
  0
LWPOLYLINE
  5
157
100
AcDbEntity
  8
mytext
 62
1
100
AcDbPolyline
 90
2
 70
1
 10
30.884728
 20
156.701672
 30
0.0
 10
30.687848
 20
156.695272
 30
0.0
  0
SPLINE
  5
158
100
AcDbEntity
  8
mytext
 62
1
100
AcDbSpline
 70
8
 71
3
 72
8
 73
4
 74
0
 40
0
 40
0
 40
0
 40
0
 40
1
 40
1
 40
1
 40
1
 10
26.597376
 20
158.965600
 30
0.0
 10
26.672576
 20
156.653808
 30
0.0
 10
26.767040
 20
154.648168
 30
0.0
 10
26.880192
 20
152.949976
 30
0.0
  0
SPLINE
  5
159
100
AcDbEntity
  8
mytext
 62
1
100
AcDbSpline
 70
8
 71
3
 72
8
 73
4
 74
0
 40
0
 40
0
 40
0
 40
0
 40
1
 40
1
 40
1
 40
1
 10
26.880192
 20
152.949976
 30
0.0
 10
27.070744
 20
150.089976
 30
0.0
 10
27.314904
 20
148.100832
 30
0.0
 10
27.613000
 20
146.981224
 30
0.0
  0
SPLINE
  5
15a
100
AcDbEntity
  8
mytext
 62
1
100
AcDbSpline
 70
8
 71
3
 72
8
 73
4
 74
0
 40
0
 40
0
 40
0
 40
0
 40
1
 40
1
 40
1
 40
1
 10
27.613000
 20
146.981224
 30
0.0
 10
28.446208
 20
147.008344
 30
0.0
 10
29.485904
 20
147.777864
 30
0.0
 10
30.731752
 20
149.289032
 30
0.0
  0
SPLINE
  5
15b
100
AcDbEntity
  8
mytext
 62
1
100
AcDbSpline
 70
8
 71
3
 72
8
 73
4
 74
0
 40
0
 40
0
 40
0
 40
0
 40
1
 40
1
 40
1
 40
1
 10
30.731752
 20
149.289032
 30
0.0
 10
32.186224
 20
150.134344
 30
0.0
 10
33.457344
 20
150.970600
 30
0.0
 10
34.545816
 20
151.799976
 30
0.0
  0
SPLINE
  5
15c
100
AcDbEntity
  8
mytext
 62
1
100
AcDbSpline
 70
8
 71
3
 72
8
 73
4
 74
0
 40
0
 40
0
 40
0
 40
0
 40
1
 40
1
 40
1
 40
1
 10
34.545816
 20
151.799976
 30
0.0
 10
35.943200
 20
152.864736
 30
0.0
 10
37.039152
 20
153.917736
 30
0.0
 10
37.833312
 20
154.956224
 30
0.0
  0
SPLINE
  5
15d
100
AcDbEntity
  8
mytext
 62
1
100
AcDbSpline
 70
8
 71
3
 72
8
 73
4
 74
0
 40
0
 40
0
 40
0
 40
0
 40
1
 40
1
 40
1
 40
1
 10
37.833312
 20
154.956224
 30
0.0
 10
38.921816
 20
156.379616
 30
0.0
 10
39.443656
 20
157.777496
 30
0.0
 10
39.398936
 20
159.151536
 30
0.0
  0
LWPOLYLINE
  5
15e
100
AcDbEntity
  8
mytext
 62
1
100
AcDbPolyline
 90
3
 70
1
 10
26.984728
 20
159.174952
 30
0.0
 10
26.590976
 20
159.162472
 30
0.0
 10
26.597376
 20
158.965600
 30
0.0
  0
SPLINE
  5
15f
100
AcDbEntity
  8
mytext
 62
1
100
AcDbSpline
 70
8
 71
3
 72
8
 73
4
 74
0
 40
0
 40
0
 40
0
 40
0
 40
1
 40
1
 40
1
 40
1
 10
39.390936
 20
159.381224
 30
0.0
 10
39.368776
 20
160.060936
 30
0.0
 10
38.869064
 20
161.241560
 30
0.0
 10
37.892496
 20
162.921848
 30
0.0
  0
SPLINE
  5
160
100
AcDbEntity
  8
mytext
 62
1
100
AcDbSpline
 70
8
 71
3
 72
8
 73
4
 74
0
 40
0
 40
0
 40
0
 40
0
 40
1
 40
1
 40
1
 40
1
 10
37.892496
 20
162.921848
 30
0.0
 10
36.738056
 20
164.208184
 30
0.0
 10
35.584560
 20
165.307288
 30
0.0
 10
34.430000
 20
166.218720
 30
0.0
  0
SPLINE
  5
161
100
AcDbEntity
  8
mytext
 62
1
100
AcDbSpline
 70
8
 71
3
 72
8
 73
4
 74
0
 40
0
 40
0
 40
0
 40
0
 40
1
 40
1
 40
1
 40
1
 10
34.430000
 20
166.218720
 30
0.0
 10
33.064408
 20
167.296760
 30
0.0
 10
31.698872
 20
168.112024
 30
0.0
 10
30.333120
 20
168.665600
 30
0.0
  0
SPLINE
  5
162
100
AcDbEntity
  8
mytext
 62
1
100
AcDbSpline
 70
8
 71
3
 72
8
 73
4
 74
0
 40
0
 40
0
 40
0
 40
0
 40
1
 40
1
 40
1
 40
1
 10
30.333120
 20
168.665600
 30
0.0
 10
28.775840
 20
169.296784
 30
0.0
 10
27.218736
 20
169.588192
 30
0.0
 10
25.661248
 20
169.537472
 30
0.0
  0
LWPOLYLINE
  5
163
100
AcDbEntity
  8
mytext
 62
1
100
AcDbPolyline
 90
2
 70
1
 10
39.398936
 20
159.151536
 30
0.0
 10
39.390936
 20
159.381224
 30
0.0
  0
SPLINE
  5
164
100
AcDbEntity
  8
mytext
 62
1
100
AcDbSpline
 70
8
 71
3
 72
8
 73
4
 74
0
 40
0
 40
0
 40
0
 40
0
 40
1
 40
1
 40
1
 40
1
 10
24.870624
 20
169.510912
 30
0.0
 10
23.555032
 20
169.468112
 30
0.0
 10
22.051584
 20
168.486432
 30
0.0
 10
20.358120
 20
166.565600
 30
0.0
  0
SPLINE
  5
165
100
AcDbEntity
  8
mytext
 62
1
100
AcDbSpline
 70
8
 71
3
 72
8
 73
4
 74
0
 40
0
 40
0
 40
0
 40
0
 40
1
 40
1
 40
1
 40
1
 10
20.358120
 20
166.565600
 30
0.0
 10
19.391024
 20
164.517592
 30
0.0
 10
18.550664
 20
162.767704
 30
0.0
 10
17.839376
 20
161.317160
 30
0.0
  0
SPLINE
  5
166
100
AcDbEntity
  8
mytext
 62
1
100
AcDbSpline
 70
8
 71
3
 72
8
 73
4
 74
0
 40
0
 40
0
 40
0
 40
0
 40
1
 40
1
 40
1
 40
1
 10
17.839376
 20
161.317160
 30
0.0
 10
16.406056
 20
158.394168
 30
0.0
 10
15.493320
 20
156.684408
 30
0.0
 10
15.098744
 20
156.187472
 30
0.0
  0
SPLINE
  5
167
100
AcDbEntity
  8
mytext
 62
1
100
AcDbSpline
 70
8
 71
3
 72
8
 73
4
 74
0
 40
0
 40
0
 40
0
 40
0
 40
1
 40
1
 40
1
 40
1
 10
15.098744
 20
156.187472
 30
0.0
 10
13.191144
 20
156.125392
 30
0.0
 10
12.010928
 20
157.293944
 30
0.0
 10
11.559688
 20
159.693720
 30
0.0
  0
LWPOLYLINE
  5
168
100
AcDbEntity
  8
mytext
 62
1
100
AcDbPolyline
 90
2
 70
1
 10
25.661248
 20
169.537472
 30
0.0
 10
24.870624
 20
169.510912
 30
0.0
  0
SPLINE
  5
169
100
AcDbEntity
  8
mytext
 62
1
100
AcDbSpline
 70
8
 71
3
 72
8
 73
4
 74
0
 40
0
 40
0
 40
0
 40
0
 40
1
 40
1
 40
1
 40
1
 10
11.508088
 20
161.273408
 30
0.0
 10
11.475208
 20
162.284552
 30
0.0
 10
11.827504
 20
163.420648
 30
0.0
 10
12.564336
 20
164.681224
 30
0.0
  0
SPLINE
  5
16a
100
AcDbEntity
  8
mytext
 62
1
100
AcDbSpline
 70
8
 71
3
 72
8
 73
4
 74
0
 40
0
 40
0
 40
0
 40
0
 40
1
 40
1
 40
1
 40
1
 10
12.564336
 20
164.681224
 30
0.0
 10
13.089776
 20
165.580136
 30
0.0
 10
13.811560
 20
166.541424
 30
0.0
 10
14.728400
 20
167.567160
 30
0.0
  0
SPLINE
  5
16b
100
AcDbEntity
  8
mytext
 62
1
100
AcDbSpline
 70
8
 71
3
 72
8
 73
4
 74
0
 40
0
 40
0
 40
0
 40
0
 40
1
 40
1
 40
1
 40
1
 10
14.728400
 20
167.567160
 30
0.0
 10
13.462360
 20
167.879888
 30
0.0
 10
12.127704
 20
168.099208
 30
0.0
 10
10.725280
 20
168.223408
 30
0.0
  0
SPLINE
  5
16c
100
AcDbEntity
  8
mytext
 62
1
100
AcDbSpline
 70
8
 71
3
 72
8
 73
4
 74
0
 40
0
 40
0
 40
0
 40
0
 40
1
 40
1
 40
1
 40
1
 10
10.725280
 20
168.223408
 30
0.0
 10
9.431472
 20
168.337968
 30
0.0
 10
8.078912
 20
168.372456
 30
0.0
 10
6.669024
 20
168.326536
 30
0.0
  0
LWPOLYLINE
  5
16d
100
AcDbEntity
  8
mytext
 62
1
100
AcDbPolyline
 90
2
 70
1
 10
11.559688
 20
159.693720
 30
0.0
 10
11.508088
 20
161.273408
 30
0.0
  0
LWPOLYLINE
  5
16e
100
AcDbEntity
  8
mytext
 62
1
100
AcDbPolyline
 90
3
 70
1
 10
6.669024
 20
168.326536
 30
0.0
 10
5.492464
 20
168.057784
 30
0.0
 10
5.492536
 20
168.057920
 30
0.0
  0
SPLINE
  5
16f
100
AcDbEntity
  8
mytext
 62
1
100
AcDbSpline
 70
8
 71
3
 72
8
 73
4
 74
0
 40
0
 40
0
 40
0
 40
0
 40
1
 40
1
 40
1
 40
1
 10
6.573936
 20
195.551672
 30
0.0
 10
8.038592
 20
193.711672
 30
0.0
 10
8.877184
 20
192.201856
 30
0.0
 10
9.091128
 20
191.023544
 30
0.0
  0
LWPOLYLINE
  5
170
100
AcDbEntity
  8
mytext
 62
1
100
AcDbPolyline
 90
2
 70
1
 10
6.567536
 20
195.748544
 30
0.0
 10
6.573936
 20
195.551672
 30
0.0
  0
SPLINE
  5
171
100
AcDbEntity
  8
mytext
 62
1
100
AcDbSpline
 70
8
 71
3
 72
8
 73
4
 74
0
 40
0
 40
0
 40
0
 40
0
 40
1
 40
1
 40
1
 40
1
 10
9.117840
 20
171.993856
 30
0.0
 10
10.610496
 20
173.045376
 30
0.0
 10
12.186664
 20
173.928912
 30
0.0
 10
13.845968
 20
174.643856
 30
0.0
  0
SPLINE
  5
172
100
AcDbEntity
  8
mytext
 62
1
100
AcDbSpline
 70
8
 71
3
 72
8
 73
4
 74
0
 40
0
 40
0
 40
0
 40
0
 40
1
 40
1
 40
1
 40
1
 10
13.845968
 20
174.643856
 30
0.0
 10
15.487536
 20
175.351160
 30
0.0
 10
17.210048
 20
175.894096
 30
0.0
 10
19.014712
 20
176.271984
 30
0.0
  0
SPLINE
  5
173
100
AcDbEntity
  8
mytext
 62
1
100
AcDbSpline
 70
8
 71
3
 72
8
 73
4
 74
0
 40
0
 40
0
 40
0
 40
0
 40
1
 40
1
 40
1
 40
1
 10
19.014712
 20
176.271984
 30
0.0
 10
20.735424
 20
176.632288
 30
0.0
 10
22.531680
 20
176.842432
 30
0.0
 10
24.400656
 20
176.903232
 30
0.0
  0
SPLINE
  5
174
100
AcDbEntity
  8
mytext
 62
1
100
AcDbSpline
 70
8
 71
3
 72
8
 73
4
 74
0
 40
0
 40
0
 40
0
 40
0
 40
1
 40
1
 40
1
 40
1
 10
24.400656
 20
176.903232
 30
0.0
 10
26.094488
 20
176.958352
 30
0.0
 10
27.787720
 20
176.826752
 30
0.0
 10
29.480344
 20
176.506360
 30
0.0
  0
SPLINE
  5
175
100
AcDbEntity
  8
mytext
 62
1
100
AcDbSpline
 70
8
 71
3
 72
8
 73
4
 74
0
 40
0
 40
0
 40
0
 40
0
 40
1
 40
1
 40
1
 40
1
 10
29.480344
 20
176.506360
 30
0.0
 10
31.109720
 20
176.197944
 30
0.0
 10
32.738008
 20
175.715856
 30
0.0
 10
34.366280
 20
175.059480
 30
0.0
  0
SPLINE
  5
176
100
AcDbEntity
  8
mytext
 62
1
100
AcDbSpline
 70
8
 71
3
 72
8
 73
4
 74
0
 40
0
 40
0
 40
0
 40
0
 40
1
 40
1
 40
1
 40
1
 10
34.366280
 20
175.059480
 30
0.0
 10
35.885576
 20
174.447040
 30
0.0
 10
37.404192
 20
173.682680
 30
0.0
 10
38.922528
 20
172.767296
 30
0.0
  0
LWPOLYLINE
  5
177
100
AcDbEntity
  8
mytext
 62
1
100
AcDbPolyline
 90
7
 70
1
 10
9.091128
 20
191.023544
 30
0.0
 10
8.853624
 20
186.209480
 30
0.0
 10
8.614560
 20
181.393856
 30
0.0
 10
8.375504
 20
176.579792
 30
0.0
 10
8.138000
 20
171.765736
 30
0.0
 10
8.144400
 20
171.567296
 30
0.0
 10
9.117840
 20
171.993856
 30
0.0
  0
SPLINE
  5
178
100
AcDbEntity
  8
mytext
 62
1
100
AcDbSpline
 70
8
 71
3
 72
8
 73
4
 74
0
 40
0
 40
0
 40
0
 40
0
 40
1
 40
1
 40
1
 40
1
 10
31.925312
 20
197.562608
 30
0.0
 10
29.908080
 20
197.496928
 30
0.0
 10
28.512752
 20
197.253280
 30
0.0
 10
27.736248
 20
196.832920
 30
0.0
  0
LWPOLYLINE
  5
179
100
AcDbEntity
  8
mytext
 62
1
100
AcDbPolyline
 90
8
 70
1
 10
38.922528
 20
172.767296
 30
0.0
 10
39.541280
 20
172.984480
 30
0.0
 10
38.684688
 20
181.607920
 30
0.0
 10
38.365936
 20
186.857920
 30
0.0
 10
38.047184
 20
192.106360
 30
0.0
 10
37.726872
 20
197.356360
 30
0.0
 10
37.320624
 20
197.737608
 30
0.0
 10
31.925312
 20
197.562608
 30
0.0
  0
SPLINE
  5
17a
100
AcDbEntity
  8
mytext
 62
1
100
AcDbSpline
 70
8
 71
3
 72
8
 73
4
 74
0
 40
0
 40
0
 40
0
 40
0
 40
1
 40
1
 40
1
 40
1
 10
30.419056
 20
194.318856
 30
0.0
 10
31.236224
 20
194.345416
 30
0.0
 10
31.814312
 20
193.199984
 30
0.0
 10
32.153432
 20
190.882920
 30
0.0
  0
SPLINE
  5
17b
100
AcDbEntity
  8
mytext
 62
1
100
AcDbSpline
 70
8
 71
3
 72
8
 73
4
 74
0
 40
0
 40
0
 40
0
 40
0
 40
1
 40
1
 40
1
 40
1
 10
32.153432
 20
190.882920
 30
0.0
 10
32.314784
 20
189.780528
 30
0.0
 10
32.420624
 20
188.412688
 30
0.0
 10
32.473744
 20
186.779792
 30
0.0
  0
SPLINE
  5
17c
100
AcDbEntity
  8
mytext
 62
1
100
AcDbSpline
 70
8
 71
3
 72
8
 73
4
 74
0
 40
0
 40
0
 40
0
 40
0
 40
1
 40
1
 40
1
 40
1
 10
32.473744
 20
186.779792
 30
0.0
 10
32.424944
 20
184.232048
 30
0.0
 10
32.193472
 20
182.952688
 30
0.0
 10
31.776872
 20
182.939168
 30
0.0
  0
LWPOLYLINE
  5
17d
100
AcDbEntity
  8
mytext
 62
1
100
AcDbPolyline
 90
2
 70
1
 10
27.736248
 20
196.832920
 30
0.0
 10
30.419056
 20
194.318856
 30
0.0
  0
SPLINE
  5
17e
100
AcDbEntity
  8
mytext
 62
1
100
AcDbSpline
 70
8
 71
3
 72
8
 73
4
 74
0
 40
0
 40
0
 40
0
 40
0
 40
1
 40
1
 40
1
 40
1
 10
29.770624
 20
182.873568
 30
0.0
 10
28.433104
 20
182.830048
 30
0.0
 10
27.032888
 20
182.993144
 30
0.0
 10
25.572184
 20
183.362632
 30
0.0
  0
LWPOLYLINE
  5
17f
100
AcDbEntity
  8
mytext
 62
1
100
AcDbPolyline
 90
2
 70
1
 10
31.776872
 20
182.939168
 30
0.0
 10
29.770624
 20
182.873568
 30
0.0
  0
SPLINE
  5
180
100
AcDbEntity
  8
mytext
 62
1
100
AcDbSpline
 70
8
 71
3
 72
8
 73
4
 74
0
 40
0
 40
0
 40
0
 40
0
 40
1
 40
1
 40
1
 40
1
 10
25.554984
 20
183.922008
 30
0.0
 10
25.541224
 20
184.344424
 30
0.0
 10
25.858944
 20
185.445984
 30
0.0
 10
26.508104
 20
187.226696
 30
0.0
  0
SPLINE
  5
181
100
AcDbEntity
  8
mytext
 62
1
100
AcDbSpline
 70
8
 71
3
 72
8
 73
4
 74
0
 40
0
 40
0
 40
0
 40
0
 40
1
 40
1
 40
1
 40
1
 10
26.508104
 20
187.226696
 30
0.0
 10
26.836144
 20
188.126544
 30
0.0
 10
27.248288
 20
189.198752
 30
0.0
 10
27.745608
 20
190.445448
 30
0.0
  0
LWPOLYLINE
  5
182
100
AcDbEntity
  8
mytext
 62
1
100
AcDbPolyline
 90
2
 70
1
 10
25.572184
 20
183.362632
 30
0.0
 10
25.554984
 20
183.922008
 30
0.0
  0
SPLINE
  5
183
100
AcDbEntity
  8
mytext
 62
1
100
AcDbSpline
 70
8
 71
3
 72
8
 73
4
 74
0
 40
0
 40
0
 40
0
 40
0
 40
1
 40
1
 40
1
 40
1
 10
26.745632
 20
190.807960
 30
0.0
 10
25.017024
 20
190.751720
 30
0.0
 10
23.444240
 20
190.648080
 30
0.0
 10
22.025320
 20
190.495464
 30
0.0
  0
SPLINE
  5
184
100
AcDbEntity
  8
mytext
 62
1
100
AcDbSpline
 70
8
 71
3
 72
8
 73
4
 74
0
 40
0
 40
0
 40
0
 40
0
 40
1
 40
1
 40
1
 40
1
 10
22.025320
 20
190.495464
 30
0.0
 10
20.222584
 20
190.301560
 30
0.0
 10
18.668784
 20
190.029288
 30
0.0
 10
17.365944
 20
189.679832
 30
0.0
  0
SPLINE
  5
185
100
AcDbEntity
  8
mytext
 62
1
100
AcDbSpline
 70
8
 71
3
 72
8
 73
4
 74
0
 40
0
 40
0
 40
0
 40
0
 40
1
 40
1
 40
1
 40
1
 10
17.365944
 20
189.679832
 30
0.0
 10
18.333256
 20
188.754776
 30
0.0
 10
19.094936
 20
187.844560
 30
0.0
 10
19.648752
 20
186.948584
 30
0.0
  0
SPLINE
  5
186
100
AcDbEntity
  8
mytext
 62
1
100
AcDbSpline
 70
8
 71
3
 72
8
 73
4
 74
0
 40
0
 40
0
 40
0
 40
0
 40
1
 40
1
 40
1
 40
1
 10
19.648752
 20
186.948584
 30
0.0
 10
20.353088
 20
185.809112
 30
0.0
 10
20.722608
 20
184.692592
 30
0.0
 10
20.758128
 20
183.600152
 30
0.0
  0
LWPOLYLINE
  5
187
100
AcDbEntity
  8
mytext
 62
1
100
AcDbPolyline
 90
3
 70
1
 10
27.745608
 20
190.445448
 30
0.0
 10
27.733128
 20
190.840760
 30
0.0
 10
26.745632
 20
190.807960
 30
0.0
  0
SPLINE
  5
188
100
AcDbEntity
  8
mytext
 62
1
100
AcDbSpline
 70
8
 71
3
 72
8
 73
4
 74
0
 40
0
 40
0
 40
0
 40
0
 40
1
 40
1
 40
1
 40
1
 10
18.969064
 20
182.917360
 30
0.0
 10
16.162480
 20
182.826024
 30
0.0
 10
14.482648
 20
183.176336
 30
0.0
 10
13.930008
 20
183.970488
 30
0.0
  0
LWPOLYLINE
  5
189
100
AcDbEntity
  8
mytext
 62
1
100
AcDbPolyline
 90
3
 70
1
 10
20.758128
 20
183.600152
 30
0.0
 10
20.186256
 20
182.956400
 30
0.0
 10
18.969064
 20
182.917360
 30
0.0
  0
SPLINE
  5
18a
100
AcDbEntity
  8
mytext
 62
1
100
AcDbSpline
 70
8
 71
3
 72
8
 73
4
 74
0
 40
0
 40
0
 40
0
 40
0
 40
1
 40
1
 40
1
 40
1
 10
13.978408
 20
189.570488
 30
0.0
 10
13.931608
 20
191.007608
 30
0.0
 10
14.328320
 20
192.416048
 30
0.0
 10
15.169032
 20
193.795488
 30
0.0
  0
SPLINE
  5
18b
100
AcDbEntity
  8
mytext
 62
1
100
AcDbSpline
 70
8
 71
3
 72
8
 73
4
 74
0
 40
0
 40
0
 40
0
 40
0
 40
1
 40
1
 40
1
 40
1
 10
15.169032
 20
193.795488
 30
0.0
 10
15.854712
 20
194.920568
 30
0.0
 10
16.836744
 20
196.025968
 30
0.0
 10
18.112784
 20
197.112672
 30
0.0
  0
LWPOLYLINE
  5
18c
100
AcDbEntity
  8
mytext
 62
1
100
AcDbPolyline
 90
2
 70
1
 10
13.930008
 20
183.970488
 30
0.0
 10
13.978408
 20
189.570488
 30
0.0
  0
SPLINE
  5
18d
100
AcDbEntity
  8
mytext
 62
1
100
AcDbSpline
 70
8
 71
3
 72
8
 73
4
 74
0
 40
0
 40
0
 40
0
 40
0
 40
1
 40
1
 40
1
 40
1
 10
17.895592
 20
197.698456
 30
0.0
 10
15.613472
 20
197.531632
 30
0.0
 10
13.675616
 20
197.356112
 30
0.0
 10
12.083088
 20
197.171896
 30
0.0
  0
SPLINE
  5
18e
100
AcDbEntity
  8
mytext
 62
1
100
AcDbSpline
 70
8
 71
3
 72
8
 73
4
 74
0
 40
0
 40
0
 40
0
 40
0
 40
1
 40
1
 40
1
 40
1
 10
12.083088
 20
197.171896
 30
0.0
 10
8.388488
 20
196.744528
 30
0.0
 10
6.550504
 20
196.269408
 30
0.0
 10
6.567464
 20
195.748456
 30
0.0
  0
LWPOLYLINE
  5
18f
100
AcDbEntity
  8
mytext
 62
1
100
AcDbPolyline
 90
3
 70
1
 10
18.112784
 20
197.112672
 30
0.0
 10
18.092464
 20
197.704856
 30
0.0
 10
17.895592
 20
197.698456
 30
0.0
  0
LWPOLYLINE
  5
190
100
AcDbEntity
  8
mytext
 62
1
100
AcDbPolyline
 90
2
 70
1
 10
6.567464
 20
195.748456
 30
0.0
 10
6.567536
 20
195.748544
 30
0.0
  0
SPLINE
  5
191
100
AcDbEntity
  8
mytext
 62
1
100
AcDbSpline
 70
8
 71
3
 72
8
 73
4
 74
0
 40
0
 40
0
 40
0
 40
0
 40
1
 40
1
 40
1
 40
1
 10
3.256600
 20
200.383104
 30
0.0
 10
4.929184
 20
201.145240
 30
0.0
 10
6.484912
 20
201.814600
 30
0.0
 10
7.925352
 20
202.390920
 30
0.0
  0
SPLINE
  5
192
100
AcDbEntity
  8
mytext
 62
1
100
AcDbSpline
 70
8
 71
3
 72
8
 73
4
 74
0
 40
0
 40
0
 40
0
 40
0
 40
1
 40
1
 40
1
 40
1
 10
7.925352
 20
202.390920
 30
0.0
 10
9.696744
 20
203.099664
 30
0.0
 10
11.292472
 20
203.667872
 30
0.0
 10
12.712848
 20
204.095608
 30
0.0
  0
SPLINE
  5
193
100
AcDbEntity
  8
mytext
 62
1
100
AcDbSpline
 70
8
 71
3
 72
8
 73
4
 74
0
 40
0
 40
0
 40
0
 40
0
 40
1
 40
1
 40
1
 40
1
 10
12.712848
 20
204.095608
 30
0.0
 10
14.722800
 20
204.700896
 30
0.0
 10
16.382272
 20
205.024936
 30
0.0
 10
17.689416
 20
205.067480
 30
0.0
  0
LWPOLYLINE
  5
194
100
AcDbEntity
  8
mytext
 62
1
100
AcDbPolyline
 90
3
 70
1
 10
2.619096
 20
200.756360
 30
0.0
 10
3.025352
 20
200.375104
 30
0.0
 10
3.256600
 20
200.383104
 30
0.0
  0
SPLINE
  5
195
100
AcDbEntity
  8
mytext
 62
1
100
AcDbSpline
 70
8
 71
3
 72
8
 73
4
 74
0
 40
0
 40
0
 40
0
 40
0
 40
1
 40
1
 40
1
 40
1
 10
22.497224
 20
205.025320
 30
0.0
 10
24.222192
 20
204.888080
 30
0.0
 10
25.790736
 20
204.731536
 30
0.0
 10
27.203472
 20
204.555008
 30
0.0
  0
SPLINE
  5
196
100
AcDbEntity
  8
mytext
 62
1
100
AcDbSpline
 70
8
 71
3
 72
8
 73
4
 74
0
 40
0
 40
0
 40
0
 40
0
 40
1
 40
1
 40
1
 40
1
 10
27.203472
 20
204.555008
 30
0.0
 10
29.015416
 20
204.328608
 30
0.0
 10
30.570872
 20
204.069480
 30
0.0
 10
31.869096
 20
203.778448
 30
0.0
  0
SPLINE
  5
197
100
AcDbEntity
  8
mytext
 62
1
100
AcDbSpline
 70
8
 71
3
 72
8
 73
4
 74
0
 40
0
 40
0
 40
0
 40
0
 40
1
 40
1
 40
1
 40
1
 10
31.869096
 20
203.778448
 30
0.0
 10
34.039528
 20
203.291744
 30
0.0
 10
35.491280
 20
202.715960
 30
0.0
 10
36.225352
 20
202.048760
 30
0.0
  0
LWPOLYLINE
  5
198
100
AcDbEntity
  8
mytext
 62
1
100
AcDbPolyline
 90
3
 70
1
 10
17.689416
 20
205.067480
 30
0.0
 10
19.498784
 20
205.125320
 30
0.0
 10
22.497224
 20
205.025320
 30
0.0
  0
SPLINE
  5
199
100
AcDbEntity
  8
mytext
 62
1
100
AcDbSpline
 70
8
 71
3
 72
8
 73
4
 74
0
 40
0
 40
0
 40
0
 40
0
 40
1
 40
1
 40
1
 40
1
 10
34.820664
 20
213.822048
 30
0.0
 10
33.441696
 20
212.721904
 30
0.0
 10
31.851472
 20
211.893800
 30
0.0
 10
30.050352
 20
211.337672
 30
0.0
  0
SPLINE
  5
19a
100
AcDbEntity
  8
mytext
 62
1
100
AcDbSpline
 70
8
 71
3
 72
8
 73
4
 74
0
 40
0
 40
0
 40
0
 40
0
 40
1
 40
1
 40
1
 40
1
 10
30.050352
 20
211.337672
 30
0.0
 10
28.442312
 20
210.841168
 30
0.0
 10
26.666568
 20
210.561880
 30
0.0
 10
24.722224
 20
210.498608
 30
0.0
  0
LWPOLYLINE
  5
19b
100
AcDbEntity
  8
mytext
 62
1
100
AcDbPolyline
 90
7
 70
1
 10
36.225352
 20
202.048760
 30
0.0
 10
36.606600
 20
202.456576
 30
0.0
 10
35.861288
 20
206.647200
 30
0.0
 10
35.115976
 20
210.836264
 30
0.0
 10
35.222224
 20
213.637824
 30
0.0
 10
35.023784
 20
213.631424
 30
0.0
 10
34.820664
 20
213.822048
 30
0.0
  0
SPLINE
  5
19c
100
AcDbEntity
  8
mytext
 62
1
100
AcDbSpline
 70
8
 71
3
 72
8
 73
4
 74
0
 40
0
 40
0
 40
0
 40
0
 40
1
 40
1
 40
1
 40
1
 10
24.519096
 20
210.687672
 30
0.0
 10
24.498616
 20
211.317816
 30
0.0
 10
24.663968
 20
211.964704
 30
0.0
 10
25.005040
 20
212.626736
 30
0.0
  0
LWPOLYLINE
  5
19d
100
AcDbEntity
  8
mytext
 62
1
100
AcDbPolyline
 90
2
 70
1
 10
24.722224
 20
210.498608
 30
0.0
 10
24.519096
 20
210.687672
 30
0.0
  0
SPLINE
  5
19e
100
AcDbEntity
  8
mytext
 62
1
100
AcDbSpline
 70
8
 71
3
 72
8
 73
4
 74
0
 40
0
 40
0
 40
0
 40
0
 40
1
 40
1
 40
1
 40
1
 10
25.236288
 20
212.789232
 30
0.0
 10
27.024568
 20
213.858288
 30
0.0
 10
28.775936
 20
214.786120
 30
0.0
 10
30.487848
 20
215.579856
 30
0.0
  0
SPLINE
  5
19f
100
AcDbEntity
  8
mytext
 62
1
100
AcDbSpline
 70
8
 71
3
 72
8
 73
4
 74
0
 40
0
 40
0
 40
0
 40
0
 40
1
 40
1
 40
1
 40
1
 10
30.487848
 20
215.579856
 30
0.0
 10
32.384840
 20
216.459400
 30
0.0
 10
34.233984
 20
217.174184
 30
0.0
 10
36.030040
 20
217.734544
 30
0.0
  0
SPLINE
  5
1a0
100
AcDbEntity
  8
mytext
 62
1
100
AcDbSpline
 70
8
 71
3
 72
8
 73
4
 74
0
 40
0
 40
0
 40
0
 40
0
 40
1
 40
1
 40
1
 40
1
 10
36.030040
 20
217.734544
 30
0.0
 10
38.028832
 20
218.358160
 30
0.0
 10
39.962992
 20
218.791200
 30
0.0
 10
41.826912
 20
219.045488
 30
0.0
  0
SPLINE
  5
1a1
100
AcDbEntity
  8
mytext
 62
1
100
AcDbSpline
 70
8
 71
3
 72
8
 73
4
 74
0
 40
0
 40
0
 40
0
 40
0
 40
1
 40
1
 40
1
 40
1
 10
41.826912
 20
219.045488
 30
0.0
 10
43.893680
 20
219.327448
 30
0.0
 10
45.873816
 20
219.389936
 30
0.0
 10
47.761288
 20
219.253296
 30
0.0
  0
SPLINE
  5
1a2
100
AcDbEntity
  8
mytext
 62
1
100
AcDbSpline
 70
8
 71
3
 72
8
 73
4
 74
0
 40
0
 40
0
 40
0
 40
0
 40
1
 40
1
 40
1
 40
1
 10
47.761288
 20
219.253296
 30
0.0
 10
49.816568
 20
219.104504
 30
0.0
 10
51.761136
 20
218.719408
 30
0.0
 10
53.586288
 20
218.120488
 30
0.0
  0
SPLINE
  5
1a3
100
AcDbEntity
  8
mytext
 62
1
100
AcDbSpline
 70
8
 71
3
 72
8
 73
4
 74
0
 40
0
 40
0
 40
0
 40
0
 40
1
 40
1
 40
1
 40
1
 10
53.586288
 20
218.120488
 30
0.0
 10
55.504856
 20
217.490912
 30
0.0
 10
57.291168
 20
216.625656
 30
0.0
 10
58.934728
 20
215.553296
 30
0.0
  0
SPLINE
  5
1a4
100
AcDbEntity
  8
mytext
 62
1
100
AcDbSpline
 70
8
 71
3
 72
8
 73
4
 74
0
 40
0
 40
0
 40
0
 40
0
 40
1
 40
1
 40
1
 40
1
 10
58.934728
 20
215.553296
 30
0.0
 10
60.590376
 20
214.473056
 30
0.0
 10
62.101656
 20
213.182096
 30
0.0
 10
63.456600
 20
211.709544
 30
0.0
  0
SPLINE
  5
1a5
100
AcDbEntity
  8
mytext
 62
1
100
AcDbSpline
 70
8
 71
3
 72
8
 73
4
 74
0
 40
0
 40
0
 40
0
 40
0
 40
1
 40
1
 40
1
 40
1
 10
63.456600
 20
211.709544
 30
0.0
 10
64.721936
 20
210.334376
 30
0.0
 10
65.852208
 20
208.779656
 30
0.0
 10
66.828472
 20
207.061112
 30
0.0
  0
SPLINE
  5
1a6
100
AcDbEntity
  8
mytext
 62
1
100
AcDbSpline
 70
8
 71
3
 72
8
 73
4
 74
0
 40
0
 40
0
 40
0
 40
0
 40
1
 40
1
 40
1
 40
1
 10
66.828472
 20
207.061112
 30
0.0
 10
67.744736
 20
205.448168
 30
0.0
 10
68.525328
 20
203.691488
 30
0.0
 10
69.153472
 20
201.804856
 30
0.0
  0
SPLINE
  5
1a7
100
AcDbEntity
  8
mytext
 62
1
100
AcDbSpline
 70
8
 71
3
 72
8
 73
4
 74
0
 40
0
 40
0
 40
0
 40
0
 40
1
 40
1
 40
1
 40
1
 10
69.153472
 20
201.804856
 30
0.0
 10
69.737656
 20
200.050224
 30
0.0
 10
70.189328
 20
198.182320
 30
0.0
 10
70.497224
 20
196.214232
 30
0.0
  0
SPLINE
  5
1a8
100
AcDbEntity
  8
mytext
 62
1
100
AcDbSpline
 70
8
 71
3
 72
8
 73
4
 74
0
 40
0
 40
0
 40
0
 40
0
 40
1
 40
1
 40
1
 40
1
 10
70.497224
 20
196.214232
 30
0.0
 10
70.782952
 20
194.387832
 30
0.0
 10
70.944528
 20
192.474608
 30
0.0
 10
70.970664
 20
190.482984
 30
0.0
  0
SPLINE
  5
1a9
100
AcDbEntity
  8
mytext
 62
1
100
AcDbSpline
 70
8
 71
3
 72
8
 73
4
 74
0
 40
0
 40
0
 40
0
 40
0
 40
1
 40
1
 40
1
 40
1
 10
70.970664
 20
190.482984
 30
0.0
 10
70.994904
 20
188.632888
 30
0.0
 10
70.903464
 20
186.715416
 30
0.0
 10
70.686288
 20
184.737672
 30
0.0
  0
SPLINE
  5
1aa
100
AcDbEntity
  8
mytext
 62
1
100
AcDbSpline
 70
8
 71
3
 72
8
 73
4
 74
0
 40
0
 40
0
 40
0
 40
0
 40
1
 40
1
 40
1
 40
1
 10
70.686288
 20
184.737672
 30
0.0
 10
70.484112
 20
182.895784
 30
0.0
 10
70.172744
 20
181.001688
 30
0.0
 10
69.747224
 20
179.061112
 30
0.0
  0
SPLINE
  5
1ab
100
AcDbEntity
  8
mytext
 62
1
100
AcDbSpline
 70
8
 71
3
 72
8
 73
4
 74
0
 40
0
 40
0
 40
0
 40
0
 40
1
 40
1
 40
1
 40
1
 10
69.747224
 20
179.061112
 30
0.0
 10
69.349856
 20
177.248248
 30
0.0
 10
68.852592
 20
175.395592
 30
0.0
 10
68.248784
 20
173.506424
 30
0.0
  0
SPLINE
  5
1ac
100
AcDbEntity
  8
mytext
 62
1
100
AcDbSpline
 70
8
 71
3
 72
8
 73
4
 74
0
 40
0
 40
0
 40
0
 40
0
 40
1
 40
1
 40
1
 40
1
 10
68.248784
 20
173.506424
 30
0.0
 10
67.682816
 20
171.735648
 30
0.0
 10
67.022568
 20
169.933088
 30
0.0
 10
66.265976
 20
168.103296
 30
0.0
  0
LWPOLYLINE
  5
1ad
100
AcDbEntity
  8
mytext
 62
1
100
AcDbPolyline
 90
2
 70
1
 10
25.005040
 20
212.626736
 30
0.0
 10
25.236288
 20
212.789232
 30
0.0
  0
SPLINE
  5
1ae
100
AcDbEntity
  8
mytext
 62
1
100
AcDbSpline
 70
8
 71
3
 72
8
 73
4
 74
0
 40
0
 40
0
 40
0
 40
0
 40
1
 40
1
 40
1
 40
1
 10
66.269176
 20
168.103296
 30
0.0
 10
65.692312
 20
166.558544
 30
0.0
 10
65.048392
 20
164.989424
 30
0.0
 10
64.337928
 20
163.397048
 30
0.0
  0
SPLINE
  5
1af
100
AcDbEntity
  8
mytext
 62
1
100
AcDbSpline
 70
8
 71
3
 72
8
 73
4
 74
0
 40
0
 40
0
 40
0
 40
0
 40
1
 40
1
 40
1
 40
1
 10
64.337928
 20
163.397048
 30
0.0
 10
63.665024
 20
161.888864
 30
0.0
 10
62.932128
 20
160.359320
 30
0.0
 10
62.137928
 20
158.809544
 30
0.0
  0
SPLINE
  5
1b0
100
AcDbEntity
  8
mytext
 62
1
100
AcDbSpline
 70
8
 71
3
 72
8
 73
4
 74
0
 40
0
 40
0
 40
0
 40
0
 40
1
 40
1
 40
1
 40
1
 10
62.137928
 20
158.809544
 30
0.0
 10
61.383584
 20
157.337536
 30
0.0
 10
60.574824
 20
155.846232
 30
0.0
 10
59.709808
 20
154.337672
 30
0.0
  0
SPLINE
  5
1b1
100
AcDbEntity
  8
mytext
 62
1
100
AcDbSpline
 70
8
 71
3
 72
8
 73
4
 74
0
 40
0
 40
0
 40
0
 40
0
 40
1
 40
1
 40
1
 40
1
 10
59.709808
 20
154.337672
 30
0.0
 10
58.886032
 20
152.901016
 30
0.0
 10
58.011600
 20
151.448832
 30
0.0
 10
57.086368
 20
149.979856
 30
0.0
  0
SPLINE
  5
1b2
100
AcDbEntity
  8
mytext
 62
1
100
AcDbSpline
 70
8
 71
3
 72
8
 73
4
 74
0
 40
0
 40
0
 40
0
 40
0
 40
1
 40
1
 40
1
 40
1
 10
57.086368
 20
149.979856
 30
0.0
 10
56.063808
 20
148.339792
 30
0.0
 10
55.065056
 20
146.704728
 30
0.0
 10
54.114488
 20
145.072048
 30
0.0
  0
SPLINE
  5
1b3
100
AcDbEntity
  8
mytext
 62
1
100
AcDbSpline
 70
8
 71
3
 72
8
 73
4
 74
0
 40
0
 40
0
 40
0
 40
0
 40
1
 40
1
 40
1
 40
1
 10
54.114488
 20
145.072048
 30
0.0
 10
53.136608
 20
143.392456
 30
0.0
 10
52.209928
 20
141.715024
 30
0.0
 10
51.359808
 20
140.039232
 30
0.0
  0
SPLINE
  5
1b4
100
AcDbEntity
  8
mytext
 62
1
100
AcDbSpline
 70
8
 71
3
 72
8
 73
4
 74
0
 40
0
 40
0
 40
0
 40
0
 40
1
 40
1
 40
1
 40
1
 10
51.359808
 20
140.039232
 30
0.0
 10
50.476520
 20
138.298048
 30
0.0
 10
49.675704
 20
136.557360
 30
0.0
 10
48.987928
 20
134.815800
 30
0.0
  0
SPLINE
  5
1b5
100
AcDbEntity
  8
mytext
 62
1
100
AcDbSpline
 70
8
 71
3
 72
8
 73
4
 74
0
 40
0
 40
0
 40
0
 40
0
 40
1
 40
1
 40
1
 40
1
 10
48.987928
 20
134.815800
 30
0.0
 10
48.270296
 20
132.998648
 30
0.0
 10
47.675872
 20
131.180632
 30
0.0
 10
47.236368
 20
129.357984
 30
0.0
  0
SPLINE
  5
1b6
100
AcDbEntity
  8
mytext
 62
1
100
AcDbSpline
 70
8
 71
3
 72
8
 73
4
 74
0
 40
0
 40
0
 40
0
 40
0
 40
1
 40
1
 40
1
 40
1
 10
47.236368
 20
129.357984
 30
0.0
 10
46.802944
 20
127.560696
 30
0.0
 10
46.520896
 20
125.759384
 30
0.0
 10
46.422304
 20
123.951736
 30
0.0
  0
SPLINE
  5
1b7
100
AcDbEntity
  8
mytext
 62
1
100
AcDbSpline
 70
8
 71
3
 72
8
 73
4
 74
0
 40
0
 40
0
 40
0
 40
0
 40
1
 40
1
 40
1
 40
1
 10
46.422304
 20
123.951736
 30
0.0
 10
46.323512
 20
122.140312
 30
0.0
 10
46.408064
 20
120.322272
 30
0.0
 10
46.709808
 20
118.495488
 30
0.0
  0
SPLINE
  5
1b8
100
AcDbEntity
  8
mytext
 62
1
100
AcDbSpline
 70
8
 71
3
 72
8
 73
4
 74
0
 40
0
 40
0
 40
0
 40
0
 40
1
 40
1
 40
1
 40
1
 10
46.709808
 20
118.495488
 30
0.0
 10
46.997824
 20
116.751800
 30
0.0
 10
47.483888
 20
114.999776
 30
0.0
 10
48.194176
 20
113.237672
 30
0.0
  0
SPLINE
  5
1b9
100
AcDbEntity
  8
mytext
 62
1
100
AcDbSpline
 70
8
 71
3
 72
8
 73
4
 74
0
 40
0
 40
0
 40
0
 40
0
 40
1
 40
1
 40
1
 40
1
 10
48.194176
 20
113.237672
 30
0.0
 10
48.841792
 20
111.631000
 30
0.0
 10
49.676000
 20
110.016216
 30
0.0
 10
50.719176
 20
108.390800
 30
0.0
  0
SPLINE
  5
1ba
100
AcDbEntity
  8
mytext
 62
1
100
AcDbSpline
 70
8
 71
3
 72
8
 73
4
 74
0
 40
0
 40
0
 40
0
 40
0
 40
1
 40
1
 40
1
 40
1
 10
50.719176
 20
108.390800
 30
0.0
 10
51.794704
 20
106.713472
 30
0.0
 10
53.047352
 20
105.249120
 30
0.0
 10
54.420744
 20
103.986112
 30
0.0
  0
SPLINE
  5
1bb
100
AcDbEntity
  8
mytext
 62
1
100
AcDbSpline
 70
8
 71
3
 72
8
 73
4
 74
0
 40
0
 40
0
 40
0
 40
0
 40
1
 40
1
 40
1
 40
1
 10
54.420744
 20
103.986112
 30
0.0
 10
55.870136
 20
102.653216
 30
0.0
 10
57.453688
 20
101.545200
 30
0.0
 10
59.106680
 20
100.647048
 30
0.0
  0
SPLINE
  5
1bc
100
AcDbEntity
  8
mytext
 62
1
100
AcDbSpline
 70
8
 71
3
 72
8
 73
4
 74
0
 40
0
 40
0
 40
0
 40
0
 40
1
 40
1
 40
1
 40
1
 10
59.106680
 20
100.647048
 30
0.0
 10
60.836960
 20
99.706912
 30
0.0
 10
62.643072
 20
98.996272
 30
0.0
 10
64.448864
 20
98.501736
 30
0.0
  0
SPLINE
  5
1bd
100
AcDbEntity
  8
mytext
 62
1
100
AcDbSpline
 70
8
 71
3
 72
8
 73
4
 74
0
 40
0
 40
0
 40
0
 40
0
 40
1
 40
1
 40
1
 40
1
 10
64.448864
 20
98.501736
 30
0.0
 10
66.376304
 20
97.973888
 30
0.0
 10
68.303760
 20
97.691736
 30
0.0
 10
70.139496
 20
97.634544
 30
0.0
  0
SPLINE
  5
1be
100
AcDbEntity
  8
mytext
 62
1
100
AcDbSpline
 70
8
 71
3
 72
8
 73
4
 74
0
 40
0
 40
0
 40
0
 40
0
 40
1
 40
1
 40
1
 40
1
 10
70.139496
 20
97.634544
 30
0.0
 10
72.202728
 20
97.570224
 30
0.0
 10
74.150832
 20
97.791584
 30
0.0
 10
75.851992
 20
98.270488
 30
0.0
  0
SPLINE
  5
1bf
100
AcDbEntity
  8
mytext
 62
1
100
AcDbSpline
 70
8
 71
3
 72
8
 73
4
 74
0
 40
0
 40
0
 40
0
 40
0
 40
1
 40
1
 40
1
 40
1
 10
75.851992
 20
98.270488
 30
0.0
 10
77.782752
 20
98.814416
 30
0.0
 10
79.608800
 20
99.671264
 30
0.0
 10
81.281680
 20
100.809544
 30
0.0
  0
SPLINE
  5
1c0
100
AcDbEntity
  8
mytext
 62
1
100
AcDbSpline
 70
8
 71
3
 72
8
 73
4
 74
0
 40
0
 40
0
 40
0
 40
0
 40
1
 40
1
 40
1
 40
1
 10
81.281680
 20
100.809544
 30
0.0
 10
82.906232
 20
101.914936
 30
0.0
 10
84.386440
 20
103.285584
 30
0.0
 10
85.676992
 20
104.892360
 30
0.0
  0
SPLINE
  5
1c1
100
AcDbEntity
  8
mytext
 62
1
100
AcDbSpline
 70
8
 71
3
 72
8
 73
4
 74
0
 40
0
 40
0
 40
0
 40
0
 40
1
 40
1
 40
1
 40
1
 10
85.676992
 20
104.892360
 30
0.0
 10
86.891656
 20
106.404648
 30
0.0
 10
87.938280
 20
108.125072
 30
0.0
 10
88.780120
 20
110.031424
 30
0.0
  0
SPLINE
  5
1c2
100
AcDbEntity
  8
mytext
 62
1
100
AcDbSpline
 70
8
 71
3
 72
8
 73
4
 74
0
 40
0
 40
0
 40
0
 40
0
 40
1
 40
1
 40
1
 40
1
 10
88.780120
 20
110.031424
 30
0.0
 10
89.557912
 20
111.792720
 30
0.0
 10
90.159960
 20
113.712704
 30
0.0
 10
90.558240
 20
115.770488
 30
0.0
  0
SPLINE
  5
1c3
100
AcDbEntity
  8
mytext
 62
1
100
AcDbSpline
 70
8
 71
3
 72
8
 73
4
 74
0
 40
0
 40
0
 40
0
 40
0
 40
1
 40
1
 40
1
 40
1
 10
90.558240
 20
115.770488
 30
0.0
 10
90.955344
 20
117.821032
 30
0.0
 10
91.078216
 20
119.731000
 30
0.0
 10
91.014488
 20
121.473608
 30
0.0
  0
SPLINE
  5
1c4
100
AcDbEntity
  8
mytext
 62
1
100
AcDbSpline
 70
8
 71
3
 72
8
 73
4
 74
0
 40
0
 40
0
 40
0
 40
0
 40
1
 40
1
 40
1
 40
1
 10
91.014488
 20
121.473608
 30
0.0
 10
90.935768
 20
123.626496
 30
0.0
 10
90.572312
 20
125.524016
 30
0.0
 10
90.094176
 20
127.117360
 30
0.0
  0
SPLINE
  5
1c5
100
AcDbEntity
  8
mytext
 62
1
100
AcDbSpline
 70
8
 71
3
 72
8
 73
4
 74
0
 40
0
 40
0
 40
0
 40
0
 40
1
 40
1
 40
1
 40
1
 10
90.094176
 20
127.117360
 30
0.0
 10
89.325112
 20
129.680256
 30
0.0
 10
88.256600
 20
131.454792
 30
0.0
 10
87.587928
 20
132.236112
 30
0.0
  0
SPLINE
  5
1c6
100
AcDbEntity
  8
mytext
 62
1
100
AcDbSpline
 70
8
 71
3
 72
8
 73
4
 74
0
 40
0
 40
0
 40
0
 40
0
 40
1
 40
1
 40
1
 40
1
 10
87.587928
 20
132.236112
 30
0.0
 10
86.630920
 20
133.499120
 30
0.0
 10
85.337104
 20
134.663568
 30
0.0
 10
83.772304
 20
135.562672
 30
0.0
  0
SPLINE
  5
1c7
100
AcDbEntity
  8
mytext
 62
1
100
AcDbSpline
 70
8
 71
3
 72
8
 73
4
 74
0
 40
0
 40
0
 40
0
 40
0
 40
1
 40
1
 40
1
 40
1
 10
83.772304
 20
135.562672
 30
0.0
 10
82.374584
 20
136.365784
 30
0.0
 10
80.760992
 20
136.957960
 30
0.0
 10
78.981680
 20
137.218920
 30
0.0
  0
SPLINE
  5
1c8
100
AcDbEntity
  8
mytext
 62
1
100
AcDbSpline
 70
8
 71
3
 72
8
 73
4
 74
0
 40
0
 40
0
 40
0
 40
0
 40
1
 40
1
 40
1
 40
1
 10
78.981680
 20
137.218920
 30
0.0
 10
77.788664
 20
137.392216
 30
0.0
 10
76.022712
 20
137.454288
 30
0.0
 10
74.317616
 20
136.900176
 30
0.0
  0
SPLINE
  5
1c9
100
AcDbEntity
  8
mytext
 62
1
100
AcDbSpline
 70
8
 71
3
 72
8
 73
4
 74
0
 40
0
 40
0
 40
0
 40
0
 40
1
 40
1
 40
1
 40
1
 10
74.317616
 20
136.900176
 30
0.0
 10
72.944736
 20
136.454016
 30
0.0
 10
71.611536
 20
135.607928
 30
0.0
 10
70.647304
 20
134.098608
 30
0.0
  0
SPLINE
  5
1ca
100
AcDbEntity
  8
mytext
 62
1
100
AcDbSpline
 70
8
 71
3
 72
8
 73
4
 74
0
 40
0
 40
0
 40
0
 40
0
 40
1
 40
1
 40
1
 40
1
 10
70.647304
 20
134.098608
 30
0.0
 10
69.944728
 20
132.998856
 30
0.0
 10
69.437576
 20
131.547160
 30
0.0
 10
69.255120
 20
129.640800
 30
0.0
  0
SPLINE
  5
1cb
100
AcDbEntity
  8
mytext
 62
1
100
AcDbSpline
 70
8
 71
3
 72
8
 73
4
 74
0
 40
0
 40
0
 40
0
 40
0
 40
1
 40
1
 40
1
 40
1
 10
69.255120
 20
129.640800
 30
0.0
 10
69.013296
 20
127.140520
 30
0.0
 10
69.771056
 20
125.227000
 30
0.0
 10
70.936368
 20
123.893920
 30
0.0
  0
SPLINE
  5
1cc
100
AcDbEntity
  8
mytext
 62
1
100
AcDbSpline
 70
8
 71
3
 72
8
 73
4
 74
0
 40
0
 40
0
 40
0
 40
0
 40
1
 40
1
 40
1
 40
1
 10
70.936368
 20
123.893920
 30
0.0
 10
72.500120
 20
122.105032
 30
0.0
 10
74.799696
 20
121.360992
 30
0.0
 10
76.411368
 20
121.647048
 30
0.0
  0
SPLINE
  5
1cd
100
AcDbEntity
  8
mytext
 62
1
100
AcDbSpline
 70
8
 71
3
 72
8
 73
4
 74
0
 40
0
 40
0
 40
0
 40
0
 40
1
 40
1
 40
1
 40
1
 10
76.411368
 20
121.647048
 30
0.0
 10
78.870088
 20
122.091104
 30
0.0
 10
80.444352
 20
123.521536
 30
0.0
 10
81.398864
 20
125.147048
 30
0.0
  0
SPLINE
  5
1ce
100
AcDbEntity
  8
mytext
 62
1
100
AcDbSpline
 70
8
 71
3
 72
8
 73
4
 74
0
 40
0
 40
0
 40
0
 40
0
 40
1
 40
1
 40
1
 40
1
 10
81.398864
 20
125.147048
 30
0.0
 10
82.870832
 20
127.653792
 30
0.0
 10
82.867160
 20
130.625360
 30
0.0
 10
82.350432
 20
131.161112
 30
0.0
  0
SPLINE
  5
1cf
100
AcDbEntity
  8
mytext
 62
1
100
AcDbSpline
 70
8
 71
3
 72
8
 73
4
 74
0
 40
0
 40
0
 40
0
 40
0
 40
1
 40
1
 40
1
 40
1
 10
82.350432
 20
131.161112
 30
0.0
 10
82.350432
 20
131.161112
 30
0.0
 10
84.450040
 20
130.219960
 30
0.0
 10
84.828552
 20
127.518920
 30
0.0
  0
SPLINE
  5
1d0
100
AcDbEntity
  8
mytext
 62
1
100
AcDbSpline
 70
8
 71
3
 72
8
 73
4
 74
0
 40
0
 40
0
 40
0
 40
0
 40
1
 40
1
 40
1
 40
1
 10
84.828552
 20
127.518920
 30
0.0
 10
84.989488
 20
126.370464
 30
0.0
 10
84.839592
 20
124.902616
 30
0.0
 10
84.084808
 20
123.054856
 30
0.0
  0
SPLINE
  5
1d1
100
AcDbEntity
  8
mytext
 62
1
100
AcDbSpline
 70
8
 71
3
 72
8
 73
4
 74
0
 40
0
 40
0
 40
0
 40
0
 40
1
 40
1
 40
1
 40
1
 10
84.084808
 20
123.054856
 30
0.0
 10
83.751408
 20
122.361400
 30
0.0
 10
83.364264
 20
121.697176
 30
0.0
 10
82.894176
 20
121.089232
 30
0.0
  0
SPLINE
  5
1d2
100
AcDbEntity
  8
mytext
 62
1
100
AcDbSpline
 70
8
 71
3
 72
8
 73
4
 74
0
 40
0
 40
0
 40
0
 40
0
 40
1
 40
1
 40
1
 40
1
 10
82.894176
 20
121.089232
 30
0.0
 10
81.717056
 20
119.555992
 30
0.0
 10
80.246760
 20
118.483480
 30
0.0
 10
78.597304
 20
117.911112
 30
0.0
  0
SPLINE
  5
1d3
100
AcDbEntity
  8
mytext
 62
1
100
AcDbSpline
 70
8
 71
3
 72
8
 73
4
 74
0
 40
0
 40
0
 40
0
 40
0
 40
1
 40
1
 40
1
 40
1
 10
78.597304
 20
117.911112
 30
0.0
 10
76.956688
 20
117.341816
 30
0.0
 10
75.138896
 20
117.267056
 30
0.0
 10
73.255120
 20
117.728296
 30
0.0
  0
SPLINE
  5
1d4
100
AcDbEntity
  8
mytext
 62
1
100
AcDbSpline
 70
8
 71
3
 72
8
 73
4
 74
0
 40
0
 40
0
 40
0
 40
0
 40
1
 40
1
 40
1
 40
1
 10
73.255120
 20
117.728296
 30
0.0
 10
71.908312
 20
118.059048
 30
0.0
 10
70.728792
 20
118.656456
 30
0.0
 10
69.708240
 20
119.404856
 30
0.0
  0
SPLINE
  5
1d5
100
AcDbEntity
  8
mytext
 62
1
100
AcDbSpline
 70
8
 71
3
 72
8
 73
4
 74
0
 40
0
 40
0
 40
0
 40
0
 40
1
 40
1
 40
1
 40
1
 10
69.708240
 20
119.404856
 30
0.0
 10
68.606880
 20
120.212536
 30
0.0
 10
67.690544
 20
121.196744
 30
0.0
 10
66.950432
 20
122.209544
 30
0.0
  0
SPLINE
  5
1d6
100
AcDbEntity
  8
mytext
 62
1
100
AcDbSpline
 70
8
 71
3
 72
8
 73
4
 74
0
 40
0
 40
0
 40
0
 40
0
 40
1
 40
1
 40
1
 40
1
 10
66.950432
 20
122.209544
 30
0.0
 10
65.873776
 20
123.687344
 30
0.0
 10
65.091160
 20
125.238744
 30
0.0
 10
64.556680
 20
126.857984
 30
0.0
  0
SPLINE
  5
1d7
100
AcDbEntity
  8
mytext
 62
1
100
AcDbSpline
 70
8
 71
3
 72
8
 73
4
 74
0
 40
0
 40
0
 40
0
 40
0
 40
1
 40
1
 40
1
 40
1
 10
64.556680
 20
126.857984
 30
0.0
 10
64.012256
 20
128.507360
 30
0.0
 10
63.725864
 20
130.226368
 30
0.0
 10
63.651992
 20
132.011112
 30
0.0
  0
SPLINE
  5
1d8
100
AcDbEntity
  8
mytext
 62
1
100
AcDbSpline
 70
8
 71
3
 72
8
 73
4
 74
0
 40
0
 40
0
 40
0
 40
0
 40
1
 40
1
 40
1
 40
1
 10
63.651992
 20
132.011112
 30
0.0
 10
63.582152
 20
133.698872
 30
0.0
 10
63.702072
 20
135.445088
 30
0.0
 10
63.972304
 20
137.243920
 30
0.0
  0
SPLINE
  5
1d9
100
AcDbEntity
  8
mytext
 62
1
100
AcDbSpline
 70
8
 71
3
 72
8
 73
4
 74
0
 40
0
 40
0
 40
0
 40
0
 40
1
 40
1
 40
1
 40
1
 10
63.972304
 20
137.243920
 30
0.0
 10
64.222384
 20
138.908984
 30
0.0
 10
64.600360
 20
140.619800
 30
0.0
 10
65.076992
 20
142.372048
 30
0.0
  0
SPLINE
  5
1da
100
AcDbEntity
  8
mytext
 62
1
100
AcDbSpline
 70
8
 71
3
 72
8
 73
4
 74
0
 40
0
 40
0
 40
0
 40
0
 40
1
 40
1
 40
1
 40
1
 10
65.076992
 20
142.372048
 30
0.0
 10
65.521704
 20
144.006856
 30
0.0
 10
66.051496
 20
145.677200
 30
0.0
 10
66.641056
 20
147.381424
 30
0.0
  0
SPLINE
  5
1db
100
AcDbEntity
  8
mytext
 62
1
100
AcDbSpline
 70
8
 71
3
 72
8
 73
4
 74
0
 40
0
 40
0
 40
0
 40
0
 40
1
 40
1
 40
1
 40
1
 10
66.641056
 20
147.381424
 30
0.0
 10
67.302072
 20
149.292224
 30
0.0
 10
68.037056
 20
151.246424
 30
0.0
 10
68.811368
 20
153.237672
 30
0.0
  0
SPLINE
  5
1dc
100
AcDbEntity
  8
mytext
 62
1
100
AcDbSpline
 70
8
 71
3
 72
8
 73
4
 74
0
 40
0
 40
0
 40
0
 40
0
 40
1
 40
1
 40
1
 40
1
 10
68.811368
 20
153.237672
 30
0.0
 10
69.551304
 20
155.140568
 30
0.0
 10
70.327120
 20
157.078344
 30
0.0
 10
71.108240
 20
159.045488
 30
0.0
  0
SPLINE
  5
1dd
100
AcDbEntity
  8
mytext
 62
1
100
AcDbSpline
 70
8
 71
3
 72
8
 73
4
 74
0
 40
0
 40
0
 40
0
 40
0
 40
1
 40
1
 40
1
 40
1
 10
71.108240
 20
159.045488
 30
0.0
 10
71.867912
 20
160.958632
 30
0.0
 10
72.633592
 20
162.898720
 30
0.0
 10
73.375432
 20
164.864232
 30
0.0
  0
SPLINE
  5
1de
100
AcDbEntity
  8
mytext
 62
1
100
AcDbSpline
 70
8
 71
3
 72
8
 73
4
 74
0
 40
0
 40
0
 40
0
 40
0
 40
1
 40
1
 40
1
 40
1
 10
73.375432
 20
164.864232
 30
0.0
 10
73.382632
 20
164.880472
 30
0.0
 10
73.389112
 20
164.897912
 30
0.0
 10
73.395752
 20
164.914232
 30
0.0
  0
SPLINE
  5
1df
100
AcDbEntity
  8
mytext
 62
1
100
AcDbSpline
 70
8
 71
3
 72
8
 73
4
 74
0
 40
0
 40
0
 40
0
 40
0
 40
1
 40
1
 40
1
 40
1
 10
73.395752
 20
164.914232
 30
0.0
 10
74.091320
 20
166.605336
 30
0.0
 10
74.680928
 20
168.500792
 30
0.0
 10
75.187936
 20
170.453296
 30
0.0
  0
SPLINE
  5
1e0
100
AcDbEntity
  8
mytext
 62
1
100
AcDbSpline
 70
8
 71
3
 72
8
 73
4
 74
0
 40
0
 40
0
 40
0
 40
0
 40
1
 40
1
 40
1
 40
1
 10
75.187936
 20
170.453296
 30
0.0
 10
75.677576
 20
172.338960
 30
0.0
 10
76.088904
 20
174.278320
 30
0.0
 10
76.444184
 20
176.140800
 30
0.0
  0
SPLINE
  5
1e1
100
AcDbEntity
  8
mytext
 62
1
100
AcDbSpline
 70
8
 71
3
 72
8
 73
4
 74
0
 40
0
 40
0
 40
0
 40
0
 40
1
 40
1
 40
1
 40
1
 10
76.444184
 20
176.140800
 30
0.0
 10
76.838608
 20
178.208624
 30
0.0
 10
77.163952
 20
180.181840
 30
0.0
 10
77.445752
 20
181.879856
 30
0.0
  0
SPLINE
  5
1e2
100
AcDbEntity
  8
mytext
 62
1
100
AcDbSpline
 70
8
 71
3
 72
8
 73
4
 74
0
 40
0
 40
0
 40
0
 40
0
 40
1
 40
1
 40
1
 40
1
 10
77.445752
 20
181.879856
 30
0.0
 10
77.792608
 20
183.969856
 30
0.0
 10
78.002224
 20
185.994392
 30
0.0
 10
78.084816
 20
187.954856
 30
0.0
  0
SPLINE
  5
1e3
100
AcDbEntity
  8
mytext
 62
1
100
AcDbSpline
 70
8
 71
3
 72
8
 73
4
 74
0
 40
0
 40
0
 40
0
 40
0
 40
1
 40
1
 40
1
 40
1
 10
78.084816
 20
187.954856
 30
0.0
 10
78.173728
 20
190.065360
 30
0.0
 10
78.115296
 20
192.100856
 30
0.0
 10
77.920752
 20
194.061112
 30
0.0
  0
SPLINE
  5
1e4
100
AcDbEntity
  8
mytext
 62
1
100
AcDbSpline
 70
8
 71
3
 72
8
 73
4
 74
0
 40
0
 40
0
 40
0
 40
0
 40
1
 40
1
 40
1
 40
1
 10
77.920752
 20
194.061112
 30
0.0
 10
77.713344
 20
196.150616
 30
0.0
 10
77.350704
 20
198.154968
 30
0.0
 10
76.848872
 20
200.073608
 30
0.0
  0
SPLINE
  5
1e5
100
AcDbEntity
  8
mytext
 62
1
100
AcDbSpline
 70
8
 71
3
 72
8
 73
4
 74
0
 40
0
 40
0
 40
0
 40
0
 40
1
 40
1
 40
1
 40
1
 10
76.848872
 20
200.073608
 30
0.0
 10
76.322064
 20
202.087792
 30
0.0
 10
75.641304
 20
204.007264
 30
0.0
 10
74.822312
 20
205.832984
 30
0.0
  0
SPLINE
  5
1e6
100
AcDbEntity
  8
mytext
 62
1
100
AcDbSpline
 70
8
 71
3
 72
8
 73
4
 74
0
 40
0
 40
0
 40
0
 40
0
 40
1
 40
1
 40
1
 40
1
 10
74.822312
 20
205.832984
 30
0.0
 10
73.978208
 20
207.714688
 30
0.0
 10
72.987992
 20
209.496976
 30
0.0
 10
71.869184
 20
211.178296
 30
0.0
  0
SPLINE
  5
1e7
100
AcDbEntity
  8
mytext
 62
1
100
AcDbSpline
 70
8
 71
3
 72
8
 73
4
 74
0
 40
0
 40
0
 40
0
 40
0
 40
1
 40
1
 40
1
 40
1
 10
71.869184
 20
211.178296
 30
0.0
 10
70.736072
 20
212.881096
 30
0.0
 10
69.471696
 20
214.481232
 30
0.0
 10
68.094184
 20
215.978296
 30
0.0
  0
SPLINE
  5
1e8
100
AcDbEntity
  8
mytext
 62
1
100
AcDbSpline
 70
8
 71
3
 72
8
 73
4
 74
0
 40
0
 40
0
 40
0
 40
0
 40
1
 40
1
 40
1
 40
1
 10
68.094184
 20
215.978296
 30
0.0
 10
66.726976
 20
217.464176
 30
0.0
 10
65.223536
 20
218.790136
 30
0.0
 10
63.602000
 20
219.945488
 30
0.0
  0
SPLINE
  5
1e9
100
AcDbEntity
  8
mytext
 62
1
100
AcDbSpline
 70
8
 71
3
 72
8
 73
4
 74
0
 40
0
 40
0
 40
0
 40
0
 40
1
 40
1
 40
1
 40
1
 10
63.602000
 20
219.945488
 30
0.0
 10
61.977152
 20
221.103208
 30
0.0
 10
60.232928
 20
222.089000
 30
0.0
 10
58.384816
 20
222.892360
 30
0.0
  0
SPLINE
  5
1ea
100
AcDbEntity
  8
mytext
 62
1
100
AcDbSpline
 70
8
 71
3
 72
8
 73
4
 74
0
 40
0
 40
0
 40
0
 40
0
 40
1
 40
1
 40
1
 40
1
 10
58.384816
 20
222.892360
 30
0.0
 10
56.575832
 20
223.678704
 30
0.0
 10
54.667864
 20
224.290312
 30
0.0
 10
52.675440
 20
224.715800
 30
0.0
  0
SPLINE
  5
1eb
100
AcDbEntity
  8
mytext
 62
1
100
AcDbSpline
 70
8
 71
3
 72
8
 73
4
 74
0
 40
0
 40
0
 40
0
 40
0
 40
1
 40
1
 40
1
 40
1
 10
52.675440
 20
224.715800
 30
0.0
 10
50.763688
 20
225.124088
 30
0.0
 10
48.774216
 20
225.360360
 30
0.0
 10
46.720752
 20
225.417360
 30
0.0
  0
SPLINE
  5
1ec
100
AcDbEntity
  8
mytext
 62
1
100
AcDbSpline
 70
8
 71
3
 72
8
 73
4
 74
0
 40
0
 40
0
 40
0
 40
0
 40
1
 40
1
 40
1
 40
1
 10
46.720752
 20
225.417360
 30
0.0
 10
44.778440
 20
225.471280
 30
0.0
 10
42.779168
 20
225.364240
 30
0.0
 10
40.733248
 20
225.087672
 30
0.0
  0
SPLINE
  5
1ed
100
AcDbEntity
  8
mytext
 62
1
100
AcDbSpline
 70
8
 71
3
 72
8
 73
4
 74
0
 40
0
 40
0
 40
0
 40
0
 40
1
 40
1
 40
1
 40
1
 10
40.733248
 20
225.087672
 30
0.0
 10
38.813712
 20
224.828176
 30
0.0
 10
36.852896
 20
224.420328
 30
0.0
 10
34.861376
 20
223.856424
 30
0.0
  0
SPLINE
  5
1ee
100
AcDbEntity
  8
mytext
 62
1
100
AcDbSpline
 70
8
 71
3
 72
8
 73
4
 74
0
 40
0
 40
0
 40
0
 40
0
 40
1
 40
1
 40
1
 40
1
 10
34.861376
 20
223.856424
 30
0.0
 10
33.000056
 20
223.329408
 30
0.0
 10
31.112032
 20
222.666600
 30
0.0
 10
29.203560
 20
221.862672
 30
0.0
  0
SPLINE
  5
1ef
100
AcDbEntity
  8
mytext
 62
1
100
AcDbSpline
 70
8
 71
3
 72
8
 73
4
 74
0
 40
0
 40
0
 40
0
 40
0
 40
1
 40
1
 40
1
 40
1
 10
29.203560
 20
221.862672
 30
0.0
 10
27.420368
 20
221.111512
 30
0.0
 10
25.619800
 20
220.236424
 30
0.0
 10
23.808248
 20
219.234544
 30
0.0
  0
LWPOLYLINE
  5
1f0
100
AcDbEntity
  8
mytext
 62
1
100
AcDbPolyline
 90
2
 70
1
 10
66.265976
 20
168.103296
 30
0.0
 10
66.269176
 20
168.103296
 30
0.0
  0
SPLINE
  5
1f1
100
AcDbEntity
  8
mytext
 62
1
100
AcDbSpline
 70
8
 71
3
 72
8
 73
4
 74
0
 40
0
 40
0
 40
0
 40
0
 40
1
 40
1
 40
1
 40
1
 10
23.772328
 20
219.309504
 30
0.0
 10
23.460968
 20
219.121504
 30
0.0
 10
23.161768
 20
218.918928
 30
0.0
 10
22.877016
 20
218.701696
 30
0.0
  0
SPLINE
  5
1f2
100
AcDbEntity
  8
mytext
 62
1
100
AcDbSpline
 70
8
 71
3
 72
8
 73
4
 74
0
 40
0
 40
0
 40
0
 40
0
 40
1
 40
1
 40
1
 40
1
 10
22.877016
 20
218.701696
 30
0.0
 10
22.585560
 20
218.533800
 30
0.0
 10
22.295528
 20
218.373096
 30
0.0
 10
22.003576
 20
218.198568
 30
0.0
  0
LWPOLYLINE
  5
1f3
100
AcDbEntity
  8
mytext
 62
1
100
AcDbPolyline
 90
2
 70
1
 10
23.808248
 20
219.234544
 30
0.0
 10
23.772328
 20
219.309504
 30
0.0
  0
SPLINE
  5
1f4
100
AcDbEntity
  8
mytext
 62
1
100
AcDbSpline
 70
8
 71
3
 72
8
 73
4
 74
0
 40
0
 40
0
 40
0
 40
0
 40
1
 40
1
 40
1
 40
1
 10
21.930136
 20
218.150168
 30
0.0
 10
20.702088
 20
219.302240
 30
0.0
 10
19.615224
 20
220.248272
 30
0.0
 10
18.669192
 20
220.989224
 30
0.0
  0
SPLINE
  5
1f5
100
AcDbEntity
  8
mytext
 62
1
100
AcDbSpline
 70
8
 71
3
 72
8
 73
4
 74
0
 40
0
 40
0
 40
0
 40
0
 40
1
 40
1
 40
1
 40
1
 10
18.669192
 20
220.989224
 30
0.0
 10
16.940064
 20
222.343504
 30
0.0
 10
15.682896
 20
223.009992
 30
0.0
 10
14.900448
 20
222.984536
 30
0.0
  0
SPLINE
  5
1f6
100
AcDbEntity
  8
mytext
 62
1
100
AcDbSpline
 70
8
 71
3
 72
8
 73
4
 74
0
 40
0
 40
0
 40
0
 40
0
 40
1
 40
1
 40
1
 40
1
 10
14.900448
 20
222.984536
 30
0.0
 10
13.034864
 20
222.923816
 30
0.0
 10
11.314632
 20
222.291240
 30
0.0
 10
9.741072
 20
221.084536
 30
0.0
  0
SPLINE
  5
1f7
100
AcDbEntity
  8
mytext
 62
1
100
AcDbSpline
 70
8
 71
3
 72
8
 73
4
 74
0
 40
0
 40
0
 40
0
 40
0
 40
1
 40
1
 40
1
 40
1
 10
9.741072
 20
221.084536
 30
0.0
 10
8.429536
 20
220.078776
 30
0.0
 10
7.220176
 20
218.674248
 30
0.0
 10
6.111384
 20
216.872040
 30
0.0
  0
SPLINE
  5
1f8
100
AcDbEntity
  8
mytext
 62
1
100
AcDbSpline
 70
8
 71
3
 72
8
 73
4
 74
0
 40
0
 40
0
 40
0
 40
0
 40
1
 40
1
 40
1
 40
1
 10
6.111384
 20
216.872040
 30
0.0
 10
5.519376
 20
216.852760
 30
0.0
 10
4.930944
 20
215.500048
 30
0.0
 10
4.348880
 20
212.814224
 30
0.0
  0
SPLINE
  5
1f9
100
AcDbEntity
  8
mytext
 62
1
100
AcDbSpline
 70
8
 71
3
 72
8
 73
4
 74
0
 40
0
 40
0
 40
0
 40
0
 40
1
 40
1
 40
1
 40
1
 10
4.348880
 20
212.814224
 30
0.0
 10
4.011776
 20
211.258864
 30
0.0
 10
3.676264
 20
209.255832
 30
0.0
 10
3.342632
 20
206.806416
 30
0.0
  0
SPLINE
  5
1fa
100
AcDbEntity
  8
mytext
 62
1
100
AcDbSpline
 70
8
 71
3
 72
8
 73
4
 74
0
 40
0
 40
0
 40
0
 40
0
 40
1
 40
1
 40
1
 40
1
 10
3.342632
 20
206.806416
 30
0.0
 10
3.100136
 20
205.026144
 30
0.0
 10
2.859984
 20
203.009232
 30
0.0
 10
2.619192
 20
200.756416
 30
0.0
  0
LWPOLYLINE
  5
1fb
100
AcDbEntity
  8
mytext
 62
1
100
AcDbPolyline
 90
2
 70
1
 10
22.003576
 20
218.198568
 30
0.0
 10
21.930136
 20
218.150168
 30
0.0
  0
SPLINE
  5
1fc
100
AcDbEntity
  8
mytext
 62
1
100
AcDbSpline
 70
8
 71
3
 72
8
 73
4
 74
0
 40
0
 40
0
 40
0
 40
0
 40
1
 40
1
 40
1
 40
1
 10
8.703472
 20
214.715736
 30
0.0
 10
8.784064
 20
213.557296
 30
0.0
 10
9.334088
 20
212.685376
 30
0.0
 10
10.040976
 20
212.086048
 30
0.0
  0
SPLINE
  5
1fd
100
AcDbEntity
  8
mytext
 62
1
100
AcDbSpline
 70
8
 71
3
 72
8
 73
4
 74
0
 40
0
 40
0
 40
0
 40
0
 40
1
 40
1
 40
1
 40
1
 10
10.040976
 20
212.086048
 30
0.0
 10
9.809848
 20
211.669168
 30
0.0
 10
9.604848
 20
211.193752
 30
0.0
 10
9.503472
 20
210.679792
 30
0.0
  0
SPLINE
  5
1fe
100
AcDbEntity
  8
mytext
 62
1
100
AcDbSpline
 70
8
 71
3
 72
8
 73
4
 74
0
 40
0
 40
0
 40
0
 40
0
 40
1
 40
1
 40
1
 40
1
 10
9.503472
 20
210.679792
 30
0.0
 10
9.339088
 20
209.908144
 30
0.0
 10
9.395616
 20
209.190840
 30
0.0
 10
9.680040
 20
208.532920
 30
0.0
  0
SPLINE
  5
1ff
100
AcDbEntity
  8
mytext
 62
1
100
AcDbSpline
 70
8
 71
3
 72
8
 73
4
 74
0
 40
0
 40
0
 40
0
 40
0
 40
1
 40
1
 40
1
 40
1
 10
9.680040
 20
208.532920
 30
0.0
 10
10.034848
 20
207.691952
 30
0.0
 10
10.643904
 20
207.273216
 30
0.0
 10
10.922224
 20
207.082920
 30
0.0
  0
SPLINE
  5
200
100
AcDbEntity
  8
mytext
 62
1
100
AcDbSpline
 70
8
 71
3
 72
8
 73
4
 74
0
 40
0
 40
0
 40
0
 40
0
 40
1
 40
1
 40
1
 40
1
 10
10.922224
 20
207.082920
 30
0.0
 10
11.597288
 20
206.628720
 30
0.0
 10
12.447296
 20
206.438216
 30
0.0
 10
13.262848
 20
206.561048
 30
0.0
  0
SPLINE
  5
201
100
AcDbEntity
  8
mytext
 62
1
100
AcDbSpline
 70
8
 71
3
 72
8
 73
4
 74
0
 40
0
 40
0
 40
0
 40
0
 40
1
 40
1
 40
1
 40
1
 10
13.262848
 20
206.561048
 30
0.0
 10
14.527672
 20
206.756040
 30
0.0
 10
15.684896
 20
207.787768
 30
0.0
 10
16.633160
 20
208.992296
 30
0.0
  0
SPLINE
  5
202
100
AcDbEntity
  8
mytext
 62
1
100
AcDbSpline
 70
8
 71
3
 72
8
 73
4
 74
0
 40
0
 40
0
 40
0
 40
0
 40
1
 40
1
 40
1
 40
1
 10
16.633160
 20
208.992296
 30
0.0
 10
17.641624
 20
210.273280
 30
0.0
 10
18.413048
 20
211.750456
 30
0.0
 10
18.825352
 20
212.625104
 30
0.0
  0
LWPOLYLINE
  5
203
100
AcDbEntity
  8
mytext
 62
1
100
AcDbPolyline
 90
2
 70
1
 10
2.619192
 20
200.756416
 30
0.0
 10
2.619096
 20
200.756360
 30
0.0
  0
SPLINE
  5
204
100
AcDbEntity
  8
mytext
 62
1
100
AcDbSpline
 70
8
 71
3
 72
8
 73
4
 74
0
 40
0
 40
0
 40
0
 40
0
 40
1
 40
1
 40
1
 40
1
 10
18.576912
 20
214.311048
 30
0.0
 10
18.044296
 20
214.878480
 30
0.0
 10
16.819152
 20
216.122984
 30
0.0
 10
15.384728
 20
217.100112
 30
0.0
  0
SPLINE
  5
205
100
AcDbEntity
  8
mytext
 62
1
100
AcDbSpline
 70
8
 71
3
 72
8
 73
4
 74
0
 40
0
 40
0
 40
0
 40
0
 40
1
 40
1
 40
1
 40
1
 10
15.384728
 20
217.100112
 30
0.0
 10
14.124000
 20
217.958904
 30
0.0
 10
12.701184
 20
218.611440
 30
0.0
 10
11.445664
 20
218.417296
 30
0.0
  0
SPLINE
  5
206
100
AcDbEntity
  8
mytext
 62
1
100
AcDbSpline
 70
8
 71
3
 72
8
 73
4
 74
0
 40
0
 40
0
 40
0
 40
0
 40
1
 40
1
 40
1
 40
1
 10
11.445664
 20
218.417296
 30
0.0
 10
10.124560
 20
218.214496
 30
0.0
 10
9.058952
 20
217.245552
 30
0.0
 10
8.797224
 20
216.025104
 30
0.0
  0
LWPOLYLINE
  5
207
100
AcDbEntity
  8
mytext
 62
1
100
AcDbPolyline
 90
3
 70
1
 10
18.825352
 20
212.625104
 30
0.0
 10
19.278472
 20
213.553232
 30
0.0
 10
18.576912
 20
214.311048
 30
0.0
  0
SPLINE
  5
208
100
AcDbEntity
  8
mytext
 62
1
100
AcDbSpline
 70
8
 71
3
 72
8
 73
4
 74
0
 40
0
 40
0
 40
0
 40
0
 40
1
 40
1
 40
1
 40
1
 10
8.790824
 20
215.970464
 30
0.0
 10
8.701880
 20
215.520200
 30
0.0
 10
8.676456
 20
215.101920
 30
0.0
 10
8.703320
 20
214.715776
 30
0.0
  0
LWPOLYLINE
  5
209
100
AcDbEntity
  8
mytext
 62
1
100
AcDbPolyline
 90
2
 70
1
 10
8.797224
 20
216.025104
 30
0.0
 10
8.790824
 20
215.970464
 30
0.0
  0
SPLINE
  5
20a
100
AcDbEntity
  8
mytext
 62
1
100
AcDbSpline
 70
8
 71
3
 72
8
 73
4
 74
0
 40
0
 40
0
 40
0
 40
0
 40
1
 40
1
 40
1
 40
1
 10
66.611288
 20
81.834480
 30
0.0
 10
66.636568
 20
81.121352
 30
0.0
 10
67.254192
 20
80.575272
 30
0.0
 10
67.959728
 20
80.615736
 30
0.0
  0
LWPOLYLINE
  5
20b
100
AcDbEntity
  8
mytext
 62
1
100
AcDbPolyline
 90
2
 70
1
 10
8.703320
 20
214.715776
 30
0.0
 10
8.703472
 20
214.715736
 30
0.0
  0
SPLINE
  5
20c
100
AcDbEntity
  8
mytext
 62
1
100
AcDbSpline
 70
8
 71
3
 72
8
 73
4
 74
0
 40
0
 40
0
 40
0
 40
0
 40
1
 40
1
 40
1
 40
1
 10
84.692536
 20
81.671952
 30
0.0
 10
85.951712
 20
81.750112
 30
0.0
 10
86.938320
 20
82.752656
 30
0.0
 10
86.942536
 20
84.003200
 30
0.0
  0
LWPOLYLINE
  5
20d
100
AcDbEntity
  8
mytext
 62
1
100
AcDbPolyline
 90
2
 70
1
 10
67.959728
 20
80.615736
 30
0.0
 10
84.692536
 20
81.671952
 30
0.0
  0
SPLINE
  5
20e
100
AcDbEntity
  8
mytext
 62
1
100
AcDbSpline
 70
8
 71
3
 72
8
 73
4
 74
0
 40
0
 40
0
 40
0
 40
0
 40
1
 40
1
 40
1
 40
1
 10
85.909728
 20
93.461200
 30
0.0
 10
85.722600
 20
95.236424
 30
0.0
 10
84.617056
 20
95.572712
 30
0.0
 10
83.726912
 20
95.522136
 30
0.0
  0
SPLINE
  5
20f
100
AcDbEntity
  8
mytext
 62
1
100
AcDbSpline
 70
8
 71
3
 72
8
 73
4
 74
0
 40
0
 40
0
 40
0
 40
0
 40
1
 40
1
 40
1
 40
1
 10
83.726912
 20
95.522136
 30
0.0
 10
81.114656
 20
95.405816
 30
0.0
 10
80.689416
 20
94.083448
 30
0.0
 10
80.689416
 20
93.309632
 30
0.0
  0
SPLINE
  5
210
100
AcDbEntity
  8
mytext
 62
1
100
AcDbSpline
 70
8
 71
3
 72
8
 73
4
 74
0
 40
0
 40
0
 40
0
 40
0
 40
1
 40
1
 40
1
 40
1
 10
80.689416
 20
93.309632
 30
0.0
 10
80.687016
 20
93.259072
 30
0.0
 10
80.687016
 20
93.207088
 30
0.0
 10
80.689416
 20
93.156512
 30
0.0
  0
LWPOLYLINE
  5
211
100
AcDbEntity
  8
mytext
 62
1
100
AcDbPolyline
 90
4
 70
1
 10
86.942536
 20
84.003200
 30
0.0
 10
86.942536
 20
84.011200
 30
0.0
 10
86.942536
 20
84.320576
 30
0.0
 10
85.909728
 20
93.461200
 30
0.0
  0
SPLINE
  5
212
100
AcDbEntity
  8
mytext
 62
1
100
AcDbSpline
 70
8
 71
3
 72
8
 73
4
 74
0
 40
0
 40
0
 40
0
 40
0
 40
1
 40
1
 40
1
 40
1
 10
80.776912
 20
92.453344
 30
0.0
 10
80.658296
 20
92.301240
 30
0.0
 10
80.591040
 20
92.108304
 30
0.0
 10
80.603472
 20
91.864280
 30
0.0
  0
SPLINE
  5
213
100
AcDbEntity
  8
mytext
 62
1
100
AcDbSpline
 70
8
 71
3
 72
8
 73
4
 74
0
 40
0
 40
0
 40
0
 40
0
 40
1
 40
1
 40
1
 40
1
 10
80.603472
 20
91.864280
 30
0.0
 10
80.603472
 20
91.864280
 30
0.0
 10
80.792680
 20
90.442136
 30
0.0
 10
80.797240
 20
90.384592
 30
0.0
  0
SPLINE
  5
214
100
AcDbEntity
  8
mytext
 62
1
100
AcDbSpline
 70
8
 71
3
 72
8
 73
4
 74
0
 40
0
 40
0
 40
0
 40
0
 40
1
 40
1
 40
1
 40
1
 10
80.797240
 20
90.384592
 30
0.0
 10
80.797240
 20
90.384592
 30
0.0
 10
80.027960
 20
90.290912
 30
0.0
 10
79.800368
 20
90.290912
 30
0.0
  0
LWPOLYLINE
  5
215
100
AcDbEntity
  8
mytext
 62
1
100
AcDbPolyline
 90
3
 70
1
 10
80.689416
 20
93.156512
 30
0.0
 10
80.689416
 20
93.108032
 30
0.0
 10
80.776912
 20
92.453344
 30
0.0
  0
SPLINE
  5
216
100
AcDbEntity
  8
mytext
 62
1
100
AcDbSpline
 70
8
 71
3
 72
8
 73
4
 74
0
 40
0
 40
0
 40
0
 40
0
 40
1
 40
1
 40
1
 40
1
 10
79.598800
 20
91.953408
 30
0.0
 10
79.588720
 20
92.494568
 30
0.0
 10
79.498544
 20
93.241112
 30
0.0
 10
78.947240
 20
93.772160
 30
0.0
  0
SPLINE
  5
217
100
AcDbEntity
  8
mytext
 62
1
100
AcDbSpline
 70
8
 71
3
 72
8
 73
4
 74
0
 40
0
 40
0
 40
0
 40
0
 40
1
 40
1
 40
1
 40
1
 10
78.947240
 20
93.772160
 30
0.0
 10
78.383312
 20
94.318384
 30
0.0
 10
77.685336
 20
94.267472
 30
0.0
 10
77.303488
 20
94.267472
 30
0.0
  0
LWPOLYLINE
  5
218
100
AcDbEntity
  8
mytext
 62
1
100
AcDbPolyline
 90
2
 70
1
 10
79.800368
 20
90.290912
 30
0.0
 10
79.598800
 20
91.953408
 30
0.0
  0
SPLINE
  5
219
100
AcDbEntity
  8
mytext
 62
1
100
AcDbSpline
 70
8
 71
3
 72
8
 73
4
 74
0
 40
0
 40
0
 40
0
 40
0
 40
1
 40
1
 40
1
 40
1
 10
77.151928
 20
94.267472
 30
0.0
 10
76.618352
 20
94.267472
 30
0.0
 10
74.991280
 20
94.262672
 30
0.0
 10
74.965992
 20
92.386224
 30
0.0
  0
SPLINE
  5
21a
100
AcDbEntity
  8
mytext
 62
1
100
AcDbSpline
 70
8
 71
3
 72
8
 73
4
 74
0
 40
0
 40
0
 40
0
 40
0
 40
1
 40
1
 40
1
 40
1
 10
74.965992
 20
92.386224
 30
0.0
 10
74.965992
 20
92.163688
 30
0.0
 10
74.992232
 20
91.909128
 30
0.0
 10
75.017512
 20
91.681536
 30
0.0
  0
LWPOLYLINE
  5
21b
100
AcDbEntity
  8
mytext
 62
1
100
AcDbPolyline
 90
2
 70
1
 10
77.303488
 20
94.267472
 30
0.0
 10
77.151928
 20
94.267472
 30
0.0
  0
SPLINE
  5
21c
100
AcDbEntity
  8
mytext
 62
1
100
AcDbSpline
 70
8
 71
3
 72
8
 73
4
 74
0
 40
0
 40
0
 40
0
 40
0
 40
1
 40
1
 40
1
 40
1
 10
75.028472
 20
91.542472
 30
0.0
 10
74.888176
 20
91.365864
 30
0.0
 10
74.852056
 20
91.040360
 30
0.0
 10
74.936288
 20
90.414344
 30
0.0
  0
LWPOLYLINE
  5
21d
100
AcDbEntity
  8
mytext
 62
1
100
AcDbPolyline
 90
2
 70
1
 10
75.017512
 20
91.681536
 30
0.0
 10
75.028472
 20
91.542472
 30
0.0
  0
SPLINE
  5
21e
100
AcDbEntity
  8
mytext
 62
1
100
AcDbSpline
 70
8
 71
3
 72
8
 73
4
 74
0
 40
0
 40
0
 40
0
 40
0
 40
1
 40
1
 40
1
 40
1
 10
73.858200
 20
89.948760
 30
0.0
 10
73.807640
 20
90.075200
 30
0.0
 10
73.731640
 20
90.403952
 30
0.0
 10
73.731640
 20
91.155008
 30
0.0
  0
LWPOLYLINE
  5
21f
100
AcDbEntity
  8
mytext
 62
1
100
AcDbPolyline
 90
3
 70
1
 10
74.936288
 20
90.414344
 30
0.0
 10
74.970688
 20
89.973720
 30
0.0
 10
73.858200
 20
89.948760
 30
0.0
  0
SPLINE
  5
220
100
AcDbEntity
  8
mytext
 62
1
100
AcDbSpline
 70
8
 71
3
 72
8
 73
4
 74
0
 40
0
 40
0
 40
0
 40
0
 40
1
 40
1
 40
1
 40
1
 10
73.656680
 20
92.875320
 30
0.0
 10
73.598520
 20
93.553048
 30
0.0
 10
73.213920
 20
95.122368
 30
0.0
 10
70.905120
 20
94.970640
 30
0.0
  0
LWPOLYLINE
  5
221
100
AcDbEntity
  8
mytext
 62
1
100
AcDbPolyline
 90
2
 70
1
 10
73.731640
 20
91.155008
 30
0.0
 10
73.656680
 20
92.875320
 30
0.0
  0
SPLINE
  5
222
100
AcDbEntity
  8
mytext
 62
1
100
AcDbSpline
 70
8
 71
3
 72
8
 73
4
 74
0
 40
0
 40
0
 40
0
 40
0
 40
1
 40
1
 40
1
 40
1
 10
68.589496
 20
94.819072
 30
0.0
 10
67.317496
 20
94.722976
 30
0.0
 10
66.278552
 20
93.648424
 30
0.0
 10
66.278552
 20
92.361264
 30
0.0
  0
LWPOLYLINE
  5
223
100
AcDbEntity
  8
mytext
 62
1
100
AcDbPolyline
 90
2
 70
1
 10
70.905120
 20
94.970640
 30
0.0
 10
68.589496
 20
94.819072
 30
0.0
  0
SPLINE
  5
224
100
AcDbEntity
  8
mytext
 62
1
100
AcDbSpline
 70
8
 71
3
 72
8
 73
4
 74
0
 40
0
 40
0
 40
0
 40
0
 40
1
 40
1
 40
1
 40
1
 10
67.317568
 20
65.642296
 30
0.0
 10
67.368128
 20
64.921584
 30
0.0
 10
68.013216
 20
64.385608
 30
0.0
 10
68.723816
 20
64.423544
 30
0.0
  0
LWPOLYLINE
  5
225
100
AcDbEntity
  8
mytext
 62
1
100
AcDbPolyline
 90
2
 70
1
 10
66.278552
 20
92.361264
 30
0.0
 10
66.611288
 20
81.834480
 30
0.0
  0
SPLINE
  5
226
100
AcDbEntity
  8
mytext
 62
1
100
AcDbSpline
 70
8
 71
3
 72
8
 73
4
 74
0
 40
0
 40
0
 40
0
 40
0
 40
1
 40
1
 40
1
 40
1
 10
85.223816
 20
65.567296
 30
0.0
 10
86.493280
 20
65.648224
 30
0.0
 10
87.525384
 20
66.698200
 30
0.0
 10
87.525384
 20
67.962608
 30
0.0
  0
LWPOLYLINE
  5
227
100
AcDbEntity
  8
mytext
 62
1
100
AcDbPolyline
 90
2
 70
1
 10
68.723816
 20
64.423544
 30
0.0
 10
85.223816
 20
65.567296
 30
0.0
  0
SPLINE
  5
228
100
AcDbEntity
  8
mytext
 62
1
100
AcDbSpline
 70
8
 71
3
 72
8
 73
4
 74
0
 40
0
 40
0
 40
0
 40
0
 40
1
 40
1
 40
1
 40
1
 10
86.876800
 20
77.811064
 30
0.0
 10
86.780704
 20
79.131104
 30
0.0
 10
85.619832
 20
80.177264
 30
0.0
 10
84.284616
 20
80.126688
 30
0.0
  0
LWPOLYLINE
  5
229
100
AcDbEntity
  8
mytext
 62
1
100
AcDbPolyline
 90
3
 70
1
 10
87.525384
 20
67.962608
 30
0.0
 10
87.518984
 20
67.953248
 30
0.0
 10
86.876800
 20
77.811064
 30
0.0
  0
SPLINE
  5
22a
100
AcDbEntity
  8
mytext
 62
1
100
AcDbSpline
 70
8
 71
3
 72
8
 73
4
 74
0
 40
0
 40
0
 40
0
 40
0
 40
1
 40
1
 40
1
 40
1
 10
83.520520
 20
80.050128
 30
0.0
 10
82.256120
 20
79.974288
 30
0.0
 10
81.233016
 20
78.927400
 30
0.0
 10
81.233016
 20
77.657936
 30
0.0
  0
SPLINE
  5
22b
100
AcDbEntity
  8
mytext
 62
1
100
AcDbSpline
 70
8
 71
3
 72
8
 73
4
 74
0
 40
0
 40
0
 40
0
 40
0
 40
1
 40
1
 40
1
 40
1
 10
81.233016
 20
77.657936
 30
0.0
 10
81.230616
 20
77.607376
 30
0.0
 10
81.233016
 20
77.555384
 30
0.0
 10
81.233016
 20
77.504808
 30
0.0
  0
LWPOLYLINE
  5
22c
100
AcDbEntity
  8
mytext
 62
1
100
AcDbPolyline
 90
3
 70
1
 10
84.284616
 20
80.126688
 30
0.0
 10
84.233016
 20
80.126688
 30
0.0
 10
83.520520
 20
80.050128
 30
0.0
  0
SPLINE
  5
22d
100
AcDbEntity
  8
mytext
 62
1
100
AcDbSpline
 70
8
 71
3
 72
8
 73
4
 74
0
 40
0
 40
0
 40
0
 40
0
 40
1
 40
1
 40
1
 40
1
 10
81.268936
 20
74.214184
 30
0.0
 10
81.256376
 20
74.209384
 30
0.0
 10
81.245976
 20
74.193864
 30
0.0
 10
81.233016
 20
74.193864
 30
0.0
  0
LWPOLYLINE
  5
22e
100
AcDbEntity
  8
mytext
 62
1
100
AcDbPolyline
 90
2
 70
1
 10
81.233016
 20
77.504808
 30
0.0
 10
81.268936
 20
74.214184
 30
0.0
  0
SPLINE
  5
22f
100
AcDbEntity
  8
mytext
 62
1
100
AcDbSpline
 70
8
 71
3
 72
8
 73
4
 74
0
 40
0
 40
0
 40
0
 40
0
 40
1
 40
1
 40
1
 40
1
 10
69.376768
 20
73.137616
 30
0.0
 10
68.160408
 20
73.008648
 30
0.0
 10
67.167392
 20
71.911536
 30
0.0
 10
67.167392
 20
70.634488
 30
0.0
  0
LWPOLYLINE
  5
230
100
AcDbEntity
  8
mytext
 62
1
100
AcDbPolyline
 90
3
 70
1
 10
81.233016
 20
74.193864
 30
0.0
 10
75.304896
 20
73.665744
 30
0.0
 10
69.376768
 20
73.137616
 30
0.0
  0
SPLINE
  5
231
100
AcDbEntity
  8
mytext
 62
1
100
AcDbSpline
 70
8
 71
3
 72
8
 73
4
 74
0
 40
0
 40
0
 40
0
 40
0
 40
1
 40
1
 40
1
 40
1
 10
67.828472
 20
19.293856
 30
0.0
 10
67.795592
 20
17.627368
 30
0.0
 10
69.133864
 20
16.242360
 30
0.0
 10
70.800352
 20
16.209480
 30
0.0
  0
SPLINE
  5
232
100
AcDbEntity
  8
mytext
 62
1
100
AcDbSpline
 70
8
 71
3
 72
8
 73
4
 74
0
 40
0
 40
0
 40
0
 40
0
 40
1
 40
1
 40
1
 40
1
 10
70.800352
 20
16.209480
 30
0.0
 10
71.199632
 20
16.203080
 30
0.0
 10
71.579272
 20
16.281960
 30
0.0
 10
71.931600
 20
16.417296
 30
0.0
  0
SPLINE
  5
233
100
AcDbEntity
  8
mytext
 62
1
100
AcDbSpline
 70
8
 71
3
 72
8
 73
4
 74
0
 40
0
 40
0
 40
0
 40
0
 40
1
 40
1
 40
1
 40
1
 10
71.931600
 20
16.417296
 30
0.0
 10
71.957280
 20
16.416496
 30
0.0
 10
71.980800
 20
16.407376
 30
0.0
 10
72.006560
 20
16.406336
 30
0.0
  0
SPLINE
  5
234
100
AcDbEntity
  8
mytext
 62
1
100
AcDbSpline
 70
8
 71
3
 72
8
 73
4
 74
0
 40
0
 40
0
 40
0
 40
0
 40
1
 40
1
 40
1
 40
1
 10
72.006560
 20
16.406336
 30
0.0
 10
74.322952
 20
16.363376
 30
0.0
 10
76.248456
 20
18.209064
 30
0.0
 10
76.273744
 20
20.520400
 30
0.0
  0
SPLINE
  5
235
100
AcDbEntity
  8
mytext
 62
1
100
AcDbSpline
 70
8
 71
3
 72
8
 73
4
 74
0
 40
0
 40
0
 40
0
 40
0
 40
1
 40
1
 40
1
 40
1
 10
76.273744
 20
20.520400
 30
0.0
 10
76.314224
 20
22.829200
 30
0.0
 10
74.471384
 20
24.734848
 30
0.0
 10
72.155000
 20
24.782896
 30
0.0
  0
SPLINE
  5
236
100
AcDbEntity
  8
mytext
 62
1
100
AcDbSpline
 70
8
 71
3
 72
8
 73
4
 74
0
 40
0
 40
0
 40
0
 40
0
 40
1
 40
1
 40
1
 40
1
 10
72.155000
 20
24.782896
 30
0.0
 10
69.846192
 20
24.823376
 30
0.0
 10
67.938384
 20
22.973920
 30
0.0
 10
67.887808
 20
20.662584
 30
0.0
  0
SPLINE
  5
237
100
AcDbEntity
  8
mytext
 62
1
100
AcDbSpline
 70
8
 71
3
 72
8
 73
4
 74
0
 40
0
 40
0
 40
0
 40
0
 40
1
 40
1
 40
1
 40
1
 10
67.887808
 20
20.662584
 30
0.0
 10
67.883808
 20
20.445440
 30
0.0
 10
67.912448
 20
20.235584
 30
0.0
 10
67.940928
 20
20.026648
 30
0.0
  0
SPLINE
  5
238
100
AcDbEntity
  8
mytext
 62
1
100
AcDbSpline
 70
8
 71
3
 72
8
 73
4
 74
0
 40
0
 40
0
 40
0
 40
0
 40
1
 40
1
 40
1
 40
1
 10
67.940928
 20
20.026648
 30
0.0
 10
67.877328
 20
19.790928
 30
0.0
 10
67.832288
 20
19.549136
 30
0.0
 10
67.828424
 20
19.293832
 30
0.0
  0
LWPOLYLINE
  5
239
100
AcDbEntity
  8
mytext
 62
1
100
AcDbPolyline
 90
2
 70
1
 10
67.167392
 20
70.634488
 30
0.0
 10
67.317568
 20
65.642296
 30
0.0
  0
SPLINE
  5
23a
100
AcDbEntity
  8
mytext
 62
1
100
AcDbSpline
 70
8
 71
3
 72
8
 73
4
 74
0
 40
0
 40
0
 40
0
 40
0
 40
1
 40
1
 40
1
 40
1
 10
69.965976
 20
47.518856
 30
0.0
 10
70.041816
 20
46.808264
 30
0.0
 10
70.672936
 20
46.273336
 30
0.0
 10
71.378472
 20
46.318856
 30
0.0
  0
LWPOLYLINE
  5
23b
100
AcDbEntity
  8
mytext
 62
1
100
AcDbPolyline
 90
2
 70
1
 10
67.828424
 20
19.293832
 30
0.0
 10
67.828472
 20
19.293856
 30
0.0
  0
SPLINE
  5
23c
100
AcDbEntity
  8
mytext
 62
1
100
AcDbSpline
 70
8
 71
3
 72
8
 73
4
 74
0
 40
0
 40
0
 40
0
 40
0
 40
1
 40
1
 40
1
 40
1
 10
75.944096
 20
46.950080
 30
0.0
 10
77.178160
 20
47.066400
 30
0.0
 10
78.126624
 20
48.074064
 30
0.0
 10
78.151912
 20
49.315704
 30
0.0
  0
LWPOLYLINE
  5
23d
100
AcDbEntity
  8
mytext
 62
1
100
AcDbPolyline
 90
2
 70
1
 10
71.378472
 20
46.318856
 30
0.0
 10
75.944096
 20
46.950080
 30
0.0
  0
SPLINE
  5
23e
100
AcDbEntity
  8
mytext
 62
1
100
AcDbSpline
 70
8
 71
3
 72
8
 73
4
 74
0
 40
0
 40
0
 40
0
 40
0
 40
1
 40
1
 40
1
 40
1
 10
77.947224
 20
51.678200
 30
0.0
 10
77.947224
 20
51.690360
 30
0.0
 10
77.959224
 20
51.693800
 30
0.0
 10
77.962824
 20
51.706360
 30
0.0
  0
LWPOLYLINE
  5
23f
100
AcDbEntity
  8
mytext
 62
1
100
AcDbPolyline
 90
2
 70
1
 10
78.151912
 20
49.315704
 30
0.0
 10
77.947224
 20
51.678200
 30
0.0
  0
SPLINE
  5
240
100
AcDbEntity
  8
mytext
 62
1
100
AcDbSpline
 70
8
 71
3
 72
8
 73
4
 74
0
 40
0
 40
0
 40
0
 40
0
 40
1
 40
1
 40
1
 40
1
 10
87.205016
 20
52.462584
 30
0.0
 10
88.466888
 20
52.604200
 30
0.0
 10
89.495640
 20
53.698552
 30
0.0
 10
89.495640
 20
54.957896
 30
0.0
  0
LWPOLYLINE
  5
241
100
AcDbEntity
  8
mytext
 62
1
100
AcDbPolyline
 90
2
 70
1
 10
77.962824
 20
51.706360
 30
0.0
 10
87.205016
 20
52.462584
 30
0.0
  0
SPLINE
  5
242
100
AcDbEntity
  8
mytext
 62
1
100
AcDbSpline
 70
8
 71
3
 72
8
 73
4
 74
0
 40
0
 40
0
 40
0
 40
0
 40
1
 40
1
 40
1
 40
1
 10
89.417560
 20
57.012584
 30
0.0
 10
89.387240
 20
57.667544
 30
0.0
 10
89.105248
 20
58.266920
 30
0.0
 10
88.622248
 20
58.709456
 30
0.0
  0
SPLINE
  5
243
100
AcDbEntity
  8
mytext
 62
1
100
AcDbSpline
 70
8
 71
3
 72
8
 73
4
 74
0
 40
0
 40
0
 40
0
 40
0
 40
1
 40
1
 40
1
 40
1
 10
88.622248
 20
58.709456
 30
0.0
 10
88.141776
 20
59.149472
 30
0.0
 10
87.509880
 20
59.377896
 30
0.0
 10
86.867560
 20
59.350088
 30
0.0
  0
LWPOLYLINE
  5
244
100
AcDbEntity
  8
mytext
 62
1
100
AcDbPolyline
 90
2
 70
1
 10
89.495640
 20
54.957896
 30
0.0
 10
89.417560
 20
57.012584
 30
0.0
  0
SPLINE
  5
245
100
AcDbEntity
  8
mytext
 62
1
100
AcDbSpline
 70
8
 71
3
 72
8
 73
4
 74
0
 40
0
 40
0
 40
0
 40
0
 40
1
 40
1
 40
1
 40
1
 10
77.387872
 20
59.062584
 30
0.0
 10
77.286720
 20
59.062584
 30
0.0
 10
77.187872
 20
59.138344
 30
0.0
 10
77.187872
 20
59.234456
 30
0.0
  0
LWPOLYLINE
  5
246
100
AcDbEntity
  8
mytext
 62
1
100
AcDbPolyline
 90
2
 70
1
 10
86.867560
 20
59.350088
 30
0.0
 10
77.387872
 20
59.062584
 30
0.0
  0
SPLINE
  5
247
100
AcDbEntity
  8
mytext
 62
1
100
AcDbSpline
 70
8
 71
3
 72
8
 73
4
 74
0
 40
0
 40
0
 40
0
 40
0
 40
1
 40
1
 40
1
 40
1
 10
77.009752
 20
61.095400
 30
0.0
 10
76.888368
 20
62.412904
 30
0.0
 10
75.713776
 20
63.442848
 30
0.0
 10
74.345688
 20
63.392272
 30
0.0
  0
LWPOLYLINE
  5
248
100
AcDbEntity
  8
mytext
 62
1
100
AcDbPolyline
 90
2
 70
1
 10
77.187872
 20
59.234456
 30
0.0
 10
77.009752
 20
61.095400
 30
0.0
  0
SPLINE
  5
249
100
AcDbEntity
  8
mytext
 62
1
100
AcDbSpline
 70
8
 71
3
 72
8
 73
4
 74
0
 40
0
 40
0
 40
0
 40
0
 40
1
 40
1
 40
1
 40
1
 10
71.219120
 20
63.131336
 30
0.0
 10
69.942072
 20
63.103496
 30
0.0
 10
68.898808
 20
62.080256
 30
0.0
 10
68.898808
 20
60.803208
 30
0.0
  0
LWPOLYLINE
  5
24a
100
AcDbEntity
  8
mytext
 62
1
100
AcDbPolyline
 90
2
 70
1
 10
74.345688
 20
63.392272
 30
0.0
 10
71.219120
 20
63.131336
 30
0.0
  0
SPLINE
  5
24b
100
AcDbEntity
  8
mytext
 62
1
100
AcDbSpline
 70
8
 71
3
 72
8
 73
4
 74
0
 40
0
 40
0
 40
0
 40
0
 40
1
 40
1
 40
1
 40
1
 10
71.450352
 20
29.048544
 30
0.0
 10
71.526192
 20
28.340480
 30
0.0
 10
72.152624
 20
27.801088
 30
0.0
 10
72.858160
 20
27.851672
 30
0.0
  0
LWPOLYLINE
  5
24c
100
AcDbEntity
  8
mytext
 62
1
100
AcDbPolyline
 90
2
 70
1
 10
68.898808
 20
60.803208
 30
0.0
 10
69.965976
 20
47.518856
 30
0.0
  0
SPLINE
  5
24d
100
AcDbEntity
  8
mytext
 62
1
100
AcDbSpline
 70
8
 71
3
 72
8
 73
4
 74
0
 40
0
 40
0
 40
0
 40
0
 40
1
 40
1
 40
1
 40
1
 10
77.434728
 20
28.498568
 30
0.0
 10
78.671312
 20
28.609840
 30
0.0
 10
79.618808
 20
29.617632
 30
0.0
 10
79.644096
 20
30.851696
 30
0.0
  0
LWPOLYLINE
  5
24e
100
AcDbEntity
  8
mytext
 62
1
100
AcDbPolyline
 90
2
 70
1
 10
72.858160
 20
27.851672
 30
0.0
 10
77.434728
 20
28.498568
 30
0.0
  0
SPLINE
  5
24f
100
AcDbEntity
  8
mytext
 62
1
100
AcDbSpline
 70
8
 71
3
 72
8
 73
4
 74
0
 40
0
 40
0
 40
0
 40
0
 40
1
 40
1
 40
1
 40
1
 10
79.417536
 20
33.222008
 30
0.0
 10
79.417536
 20
33.229208
 30
0.0
 10
79.426416
 20
33.231528
 30
0.0
 10
79.428496
 20
33.239208
 30
0.0
  0
LWPOLYLINE
  5
250
100
AcDbEntity
  8
mytext
 62
1
100
AcDbPolyline
 90
2
 70
1
 10
79.644096
 20
30.851696
 30
0.0
 10
79.417536
 20
33.222008
 30
0.0
  0
SPLINE
  5
251
100
AcDbEntity
  8
mytext
 62
1
100
AcDbSpline
 70
8
 71
3
 72
8
 73
4
 74
0
 40
0
 40
0
 40
0
 40
0
 40
1
 40
1
 40
1
 40
1
 10
88.680064
 20
33.998560
 30
0.0
 10
89.936880
 20
34.140176
 30
0.0
 10
90.967560
 20
35.235720
 30
0.0
 10
90.967560
 20
36.500128
 30
0.0
  0
LWPOLYLINE
  5
252
100
AcDbEntity
  8
mytext
 62
1
100
AcDbPolyline
 90
2
 70
1
 10
79.428496
 20
33.239208
 30
0.0
 10
88.680064
 20
33.998560
 30
0.0
  0
SPLINE
  5
253
100
AcDbEntity
  8
mytext
 62
1
100
AcDbSpline
 70
8
 71
3
 72
8
 73
4
 74
0
 40
0
 40
0
 40
0
 40
0
 40
1
 40
1
 40
1
 40
1
 10
90.916040
 20
38.561056
 30
0.0
 10
90.885720
 20
39.218544
 30
0.0
 10
90.607824
 20
39.822976
 30
0.0
 10
90.122288
 20
40.257928
 30
0.0
  0
SPLINE
  5
254
100
AcDbEntity
  8
mytext
 62
1
100
AcDbSpline
 70
8
 71
3
 72
8
 73
4
 74
0
 40
0
 40
0
 40
0
 40
0
 40
1
 40
1
 40
1
 40
1
 10
90.122288
 20
40.257928
 30
0.0
 10
89.639288
 20
40.697944
 30
0.0
 10
89.009920
 20
40.922056
 30
0.0
 10
88.367600
 20
40.889176
 30
0.0
  0
LWPOLYLINE
  5
255
100
AcDbEntity
  8
mytext
 62
1
100
AcDbPolyline
 90
2
 70
1
 10
90.967560
 20
36.500128
 30
0.0
 10
90.916040
 20
38.561056
 30
0.0
  0
SPLINE
  5
256
100
AcDbEntity
  8
mytext
 62
1
100
AcDbSpline
 70
8
 71
3
 72
8
 73
4
 74
0
 40
0
 40
0
 40
0
 40
0
 40
1
 40
1
 40
1
 40
1
 10
78.887912
 20
40.611056
 30
0.0
 10
78.786760
 20
40.602976
 30
0.0
 10
78.686352
 20
40.690336
 30
0.0
 10
78.686352
 20
40.781368
 30
0.0
  0
LWPOLYLINE
  5
257
100
AcDbEntity
  8
mytext
 62
1
100
AcDbPolyline
 90
2
 70
1
 10
88.367600
 20
40.889176
 30
0.0
 10
78.887912
 20
40.611056
 30
0.0
  0
SPLINE
  5
258
100
AcDbEntity
  8
mytext
 62
1
100
AcDbSpline
 70
8
 71
3
 72
8
 73
4
 74
0
 40
0
 40
0
 40
0
 40
0
 40
1
 40
1
 40
1
 40
1
 10
78.509792
 20
42.640744
 30
0.0
 10
78.390936
 20
43.960784
 30
0.0
 10
77.214776
 20
44.987224
 30
0.0
 10
75.844160
 20
44.939176
 30
0.0
  0
LWPOLYLINE
  5
259
100
AcDbEntity
  8
mytext
 62
1
100
AcDbPolyline
 90
2
 70
1
 10
78.686352
 20
40.781368
 30
0.0
 10
78.509792
 20
42.640744
 30
0.0
  0
SPLINE
  5
25a
100
AcDbEntity
  8
mytext
 62
1
100
AcDbSpline
 70
8
 71
3
 72
8
 73
4
 74
0
 40
0
 40
0
 40
0
 40
0
 40
1
 40
1
 40
1
 40
1
 10
72.716040
 20
44.681368
 30
0.0
 10
71.436464
 20
44.643448
 30
0.0
 10
70.428824
 20
43.621512
 30
0.0
 10
70.403536
 20
42.346992
 30
0.0
  0
LWPOLYLINE
  5
25b
100
AcDbEntity
  8
mytext
 62
1
100
AcDbPolyline
 90
2
 70
1
 10
75.844160
 20
44.939176
 30
0.0
 10
72.716040
 20
44.681368
 30
0.0
  0
SPLINE
  5
25c
100
AcDbEntity
  8
mytext
 62
1
100
AcDbSpline
 70
8
 71
3
 72
8
 73
4
 74
0
 40
0
 40
0
 40
0
 40
0
 40
1
 40
1
 40
1
 40
1
 10
72.094096
 20
1.720424
 30
0.0
 10
72.144656
 20
0.999712
 30
0.0
 10
72.793472
 20
0.467456
 30
0.0
 10
73.506600
 20
0.507920
 30
0.0
  0
LWPOLYLINE
  5
25d
100
AcDbEntity
  8
mytext
 62
1
100
AcDbPolyline
 90
2
 70
1
 10
70.403536
 20
42.346992
 30
0.0
 10
71.450352
 20
29.048544
 30
0.0
  0
SPLINE
  5
25e
100
AcDbEntity
  8
mytext
 62
1
100
AcDbSpline
 70
8
 71
3
 72
8
 73
4
 74
0
 40
0
 40
0
 40
0
 40
0
 40
1
 40
1
 40
1
 40
1
 10
90.003472
 20
1.645424
 30
0.0
 10
91.267880
 20
1.731400
 30
0.0
 10
92.305040
 20
2.779824
 30
0.0
 10
92.305040
 20
4.039168
 30
0.0
  0
LWPOLYLINE
  5
25f
100
AcDbEntity
  8
mytext
 62
1
100
AcDbPolyline
 90
2
 70
1
 10
73.506600
 20
0.507920
 30
0.0
 10
90.003472
 20
1.645424
 30
0.0
  0
SPLINE
  5
260
100
AcDbEntity
  8
mytext
 62
1
100
AcDbSpline
 70
8
 71
3
 72
8
 73
4
 74
0
 40
0
 40
0
 40
0
 40
0
 40
1
 40
1
 40
1
 40
1
 10
91.686248
 20
13.895384
 30
0.0
 10
91.585096
 20
15.228064
 30
0.0
 10
90.426144
 20
16.269168
 30
0.0
 10
89.090936
 20
16.211008
 30
0.0
  0
LWPOLYLINE
  5
261
100
AcDbEntity
  8
mytext
 62
1
100
AcDbPolyline
 90
2
 70
1
 10
92.305040
 20
4.039168
 30
0.0
 10
91.686248
 20
13.895384
 30
0.0
  0
SPLINE
  5
262
100
AcDbEntity
  8
mytext
 62
1
100
AcDbSpline
 70
8
 71
3
 72
8
 73
4
 74
0
 40
0
 40
0
 40
0
 40
0
 40
1
 40
1
 40
1
 40
1
 10
88.322144
 20
16.129752
 30
0.0
 10
87.060264
 20
16.061512
 30
0.0
 10
86.037768
 20
15.015440
 30
0.0
 10
86.037768
 20
13.748504
 30
0.0
  0
SPLINE
  5
263
100
AcDbEntity
  8
mytext
 62
1
100
AcDbSpline
 70
8
 71
3
 72
8
 73
4
 74
0
 40
0
 40
0
 40
0
 40
0
 40
1
 40
1
 40
1
 40
1
 10
86.037768
 20
13.748504
 30
0.0
 10
86.037768
 20
13.748504
 30
0.0
 10
86.018008
 20
10.531136
 30
0.0
 10
86.012728
 20
10.270392
 30
0.0
  0
LWPOLYLINE
  5
264
100
AcDbEntity
  8
mytext
 62
1
100
AcDbPolyline
 90
2
 70
1
 10
89.090936
 20
16.211008
 30
0.0
 10
88.322144
 20
16.129752
 30
0.0
  0
SPLINE
  5
265
100
AcDbEntity
  8
mytext
 62
1
100
AcDbSpline
 70
8
 71
3
 72
8
 73
4
 74
0
 40
0
 40
0
 40
0
 40
0
 40
1
 40
1
 40
1
 40
1
 10
74.164288
 20
9.220392
 30
0.0
 10
72.945408
 20
9.091416
 30
0.0
 10
71.972392
 20
7.985536
 30
0.0
 10
71.947104
 20
6.711016
 30
0.0
  0
LWPOLYLINE
  5
266
100
AcDbEntity
  8
mytext
 62
1
100
AcDbPolyline
 90
2
 70
1
 10
86.012728
 20
10.270392
 30
0.0
 10
74.164288
 20
9.220392
 30
0.0
  0
SPLINE
  5
267
100
AcDbEntity
  8
mytext
 62
1
100
AcDbSpline
 70
8
 71
3
 72
8
 73
4
 74
0
 40
0
 40
0
 40
0
 40
0
 40
1
 40
1
 40
1
 40
1
 10
77.586288
 20
18.307920
 30
0.0
 10
77.636848
 20
17.604912
 30
0.0
 10
78.279040
 20
17.086632
 30
0.0
 10
78.997224
 20
17.175104
 30
0.0
  0
LWPOLYLINE
  5
268
100
AcDbEntity
  8
mytext
 62
1
100
AcDbPolyline
 90
2
 70
1
 10
71.947104
 20
6.711016
 30
0.0
 10
72.094096
 20
1.720424
 30
0.0
  0
SPLINE
  5
269
100
AcDbEntity
  8
mytext
 62
1
100
AcDbSpline
 70
8
 71
3
 72
8
 73
4
 74
0
 40
0
 40
0
 40
0
 40
0
 40
1
 40
1
 40
1
 40
1
 10
89.117536
 20
18.359480
 30
0.0
 10
90.371824
 20
18.488456
 30
0.0
 10
91.359728
 20
19.542552
 30
0.0
 10
91.359728
 20
20.809480
 30
0.0
  0
LWPOLYLINE
  5
26a
100
AcDbEntity
  8
mytext
 62
1
100
AcDbPolyline
 90
2
 70
1
 10
78.997224
 20
17.175104
 30
0.0
 10
89.117536
 20
18.359480
 30
0.0
  0
SPLINE
  5
26b
100
AcDbEntity
  8
mytext
 62
1
100
AcDbSpline
 70
8
 71
3
 72
8
 73
4
 74
0
 40
0
 40
0
 40
0
 40
0
 40
1
 40
1
 40
1
 40
1
 10
91.008312
 20
25.082920
 30
0.0
 10
90.962792
 20
25.750528
 30
0.0
 10
90.640416
 20
26.357400
 30
0.0
 10
90.127064
 20
26.759480
 30
0.0
  0
SPLINE
  5
26c
100
AcDbEntity
  8
mytext
 62
1
100
AcDbSpline
 70
8
 71
3
 72
8
 73
4
 74
0
 40
0
 40
0
 40
0
 40
0
 40
1
 40
1
 40
1
 40
1
 10
90.127064
 20
26.759480
 30
0.0
 10
89.611184
 20
27.164096
 30
0.0
 10
88.950776
 20
27.335040
 30
0.0
 10
88.295816
 20
27.231360
 30
0.0
  0
LWPOLYLINE
  5
26d
100
AcDbEntity
  8
mytext
 62
1
100
AcDbPolyline
 90
2
 70
1
 10
91.359728
 20
20.809480
 30
0.0
 10
91.008312
 20
25.082920
 30
0.0
  0
SPLINE
  5
26e
100
AcDbEntity
  8
mytext
 62
1
100
AcDbSpline
 70
8
 71
3
 72
8
 73
4
 74
0
 40
0
 40
0
 40
0
 40
0
 40
1
 40
1
 40
1
 40
1
 10
79.381752
 20
25.828232
 30
0.0
 10
78.185624
 20
25.625920
 30
0.0
 10
77.242688
 20
24.568960
 30
0.0
 10
77.242688
 20
23.350112
 30
0.0
  0
LWPOLYLINE
  5
26f
100
AcDbEntity
  8
mytext
 62
1
100
AcDbPolyline
 90
2
 70
1
 10
88.295816
 20
27.231360
 30
0.0
 10
79.381752
 20
25.828232
 30
0.0
  0
SPLINE
  5
270
100
AcDbEntity
  8
mytext
 62
1
100
AcDbSpline
 70
8
 71
3
 72
8
 73
4
 74
0
 40
0
 40
0
 40
0
 40
0
 40
1
 40
1
 40
1
 40
1
 10
1.045664
 20
45.525104
 30
0.0
 10
1.048864
 20
45.066392
 30
0.0
 10
1.137904
 20
43.864168
 30
0.0
 10
1.137904
 20
43.864168
 30
0.0
  0
SPLINE
  5
271
100
AcDbEntity
  8
mytext
 62
1
100
AcDbSpline
 70
8
 71
3
 72
8
 73
4
 74
0
 40
0
 40
0
 40
0
 40
0
 40
1
 40
1
 40
1
 40
1
 10
1.137904
 20
43.864168
 30
0.0
 10
1.441000
 20
41.248656
 30
0.0
 10
2.098096
 20
38.794664
 30
0.0
 10
3.073840
 20
36.553232
 30
0.0
  0
SPLINE
  5
272
100
AcDbEntity
  8
mytext
 62
1
100
AcDbSpline
 70
8
 71
3
 72
8
 73
4
 74
0
 40
0
 40
0
 40
0
 40
0
 40
1
 40
1
 40
1
 40
1
 10
3.073840
 20
36.553232
 30
0.0
 10
4.105312
 20
34.183768
 30
0.0
 10
5.491960
 20
32.052832
 30
0.0
 10
7.192592
 20
30.220424
 30
0.0
  0
SPLINE
  5
273
100
AcDbEntity
  8
mytext
 62
1
100
AcDbSpline
 70
8
 71
3
 72
8
 73
4
 74
0
 40
0
 40
0
 40
0
 40
0
 40
1
 40
1
 40
1
 40
1
 10
7.192592
 20
30.220424
 30
0.0
 10
8.899872
 20
28.380832
 30
0.0
 10
10.923136
 20
26.842112
 30
0.0
 10
13.219152
 20
25.667296
 30
0.0
  0
SPLINE
  5
274
100
AcDbEntity
  8
mytext
 62
1
100
AcDbSpline
 70
8
 71
3
 72
8
 73
4
 74
0
 40
0
 40
0
 40
0
 40
0
 40
1
 40
1
 40
1
 40
1
 10
13.219152
 20
25.667296
 30
0.0
 10
12.866072
 20
23.336968
 30
0.0
 10
12.782160
 20
21.088344
 30
0.0
 10
12.972280
 20
18.945424
 30
0.0
  0
LWPOLYLINE
  5
275
100
AcDbEntity
  8
mytext
 62
1
100
AcDbPolyline
 90
2
 70
1
 10
77.242688
 20
23.350112
 30
0.0
 10
77.586288
 20
18.307920
 30
0.0
  0
SPLINE
  5
276
100
AcDbEntity
  8
mytext
 62
1
100
AcDbSpline
 70
8
 71
3
 72
8
 73
4
 74
0
 40
0
 40
0
 40
0
 40
0
 40
1
 40
1
 40
1
 40
1
 10
13.000440
 20
18.762608
 30
0.0
 10
13.204360
 20
16.572816
 30
0.0
 10
13.692600
 20
14.528640
 30
0.0
 10
14.459816
 20
12.640736
 30
0.0
  0
SPLINE
  5
277
100
AcDbEntity
  8
mytext
 62
1
100
AcDbSpline
 70
8
 71
3
 72
8
 73
4
 74
0
 40
0
 40
0
 40
0
 40
0
 40
1
 40
1
 40
1
 40
1
 10
14.459816
 20
12.640736
 30
0.0
 10
15.256040
 20
10.681448
 30
0.0
 10
16.352512
 20
8.889656
 30
0.0
 10
17.742624
 20
7.278232
 30
0.0
  0
SPLINE
  5
278
100
AcDbEntity
  8
mytext
 62
1
100
AcDbSpline
 70
8
 71
3
 72
8
 73
4
 74
0
 40
0
 40
0
 40
0
 40
0
 40
1
 40
1
 40
1
 40
1
 10
17.742624
 20
7.278232
 30
0.0
 10
18.730264
 20
6.127296
 30
0.0
 10
19.773872
 20
5.224704
 30
0.0
 10
20.805128
 20
4.479792
 30
0.0
  0
SPLINE
  5
279
100
AcDbEntity
  8
mytext
 62
1
100
AcDbSpline
 70
8
 71
3
 72
8
 73
4
 74
0
 40
0
 40
0
 40
0
 40
0
 40
1
 40
1
 40
1
 40
1
 10
20.805128
 20
4.479792
 30
0.0
 10
23.009680
 20
2.621448
 30
0.0
 10
25.292480
 20
1.916992
 30
0.0
 10
26.584816
 20
1.525104
 30
0.0
  0
SPLINE
  5
27a
100
AcDbEntity
  8
mytext
 62
1
100
AcDbSpline
 70
8
 71
3
 72
8
 73
4
 74
0
 40
0
 40
0
 40
0
 40
0
 40
1
 40
1
 40
1
 40
1
 10
26.584816
 20
1.525104
 30
0.0
 10
27.268080
 20
1.318912
 30
0.0
 10
27.969552
 20
1.187136
 30
0.0
 10
28.675440
 20
1.087608
 30
0.0
  0
SPLINE
  5
27b
100
AcDbEntity
  8
mytext
 62
1
100
AcDbSpline
 70
8
 71
3
 72
8
 73
4
 74
0
 40
0
 40
0
 40
0
 40
0
 40
1
 40
1
 40
1
 40
1
 10
28.675440
 20
1.087608
 30
0.0
 10
30.741168
 20
0.660968
 30
0.0
 10
32.883144
 20
0.585656
 30
0.0
 10
34.986376
 20
0.856360
 30
0.0
  0
SPLINE
  5
27c
100
AcDbEntity
  8
mytext
 62
1
100
AcDbSpline
 70
8
 71
3
 72
8
 73
4
 74
0
 40
0
 40
0
 40
0
 40
0
 40
1
 40
1
 40
1
 40
1
 10
34.986376
 20
0.856360
 30
0.0
 10
37.077312
 20
1.125472
 30
0.0
 10
39.128976
 20
1.736768
 30
0.0
 10
41.030128
 20
2.681360
 30
0.0
  0
SPLINE
  5
27d
100
AcDbEntity
  8
mytext
 62
1
100
AcDbSpline
 70
8
 71
3
 72
8
 73
4
 74
0
 40
0
 40
0
 40
0
 40
0
 40
1
 40
1
 40
1
 40
1
 10
41.030128
 20
2.681360
 30
0.0
 10
43.726472
 20
4.016848
 30
0.0
 10
46.063296
 20
6.044696
 30
0.0
 10
48.087936
 20
8.529792
 30
0.0
  0
SPLINE
  5
27e
100
AcDbEntity
  8
mytext
 62
1
100
AcDbSpline
 70
8
 71
3
 72
8
 73
4
 74
0
 40
0
 40
0
 40
0
 40
0
 40
1
 40
1
 40
1
 40
1
 10
48.087936
 20
8.529792
 30
0.0
 10
49.952168
 20
10.818016
 30
0.0
 10
51.552048
 20
13.493488
 30
0.0
 10
52.923872
 20
16.371984
 30
0.0
  0
SPLINE
  5
27f
100
AcDbEntity
  8
mytext
 62
1
100
AcDbSpline
 70
8
 71
3
 72
8
 73
4
 74
0
 40
0
 40
0
 40
0
 40
0
 40
1
 40
1
 40
1
 40
1
 10
52.923872
 20
16.371984
 30
0.0
 10
54.228776
 20
19.110088
 30
0.0
 10
55.327400
 20
22.031368
 30
0.0
 10
56.252000
 20
24.978232
 30
0.0
  0
SPLINE
  5
280
100
AcDbEntity
  8
mytext
 62
1
100
AcDbSpline
 70
8
 71
3
 72
8
 73
4
 74
0
 40
0
 40
0
 40
0
 40
0
 40
1
 40
1
 40
1
 40
1
 10
56.252000
 20
24.978232
 30
0.0
 10
57.196120
 20
27.987336
 30
0.0
 10
57.959272
 20
31.023208
 30
0.0
 10
58.573872
 20
33.915736
 30
0.0
  0
SPLINE
  5
281
100
AcDbEntity
  8
mytext
 62
1
100
AcDbSpline
 70
8
 71
3
 72
8
 73
4
 74
0
 40
0
 40
0
 40
0
 40
0
 40
1
 40
1
 40
1
 40
1
 10
58.573872
 20
33.915736
 30
0.0
 10
59.275544
 20
37.218160
 30
0.0
 10
59.783776
 20
40.335096
 30
0.0
 10
60.150440
 20
43.014168
 30
0.0
  0
LWPOLYLINE
  5
282
100
AcDbEntity
  8
mytext
 62
1
100
AcDbPolyline
 90
2
 70
1
 10
12.972280
 20
18.945424
 30
0.0
 10
13.000440
 20
18.762608
 30
0.0
  0
SPLINE
  5
283
100
AcDbEntity
  8
mytext
 62
1
100
AcDbSpline
 70
8
 71
3
 72
8
 73
4
 74
0
 40
0
 40
0
 40
0
 40
0
 40
1
 40
1
 40
1
 40
1
 10
55.225592
 20
52.973544
 30
0.0
 10
53.134944
 20
54.151520
 30
0.0
 10
50.303648
 20
55.663624
 30
0.0
 10
47.024024
 20
57.193856
 30
0.0
  0
SPLINE
  5
284
100
AcDbEntity
  8
mytext
 62
1
100
AcDbSpline
 70
8
 71
3
 72
8
 73
4
 74
0
 40
0
 40
0
 40
0
 40
0
 40
1
 40
1
 40
1
 40
1
 10
47.024024
 20
57.193856
 30
0.0
 10
44.416648
 20
58.410416
 30
0.0
 10
41.525768
 20
59.637832
 30
0.0
 10
38.500592
 20
60.718856
 30
0.0
  0
SPLINE
  5
285
100
AcDbEntity
  8
mytext
 62
1
100
AcDbSpline
 70
8
 71
3
 72
8
 73
4
 74
0
 40
0
 40
0
 40
0
 40
0
 40
1
 40
1
 40
1
 40
1
 10
38.500592
 20
60.718856
 30
0.0
 10
35.626176
 20
61.746000
 30
0.0
 10
32.631056
 20
62.640264
 30
0.0
 10
29.639656
 20
63.265736
 30
0.0
  0
SPLINE
  5
286
100
AcDbEntity
  8
mytext
 62
1
100
AcDbSpline
 70
8
 71
3
 72
8
 73
4
 74
0
 40
0
 40
0
 40
0
 40
0
 40
1
 40
1
 40
1
 40
1
 10
29.639656
 20
63.265736
 30
0.0
 10
26.534336
 20
63.915024
 30
0.0
 10
23.433200
 20
64.274720
 30
0.0
 10
20.480280
 20
64.192296
 30
0.0
  0
SPLINE
  5
287
100
AcDbEntity
  8
mytext
 62
1
100
AcDbSpline
 70
8
 71
3
 72
8
 73
4
 74
0
 40
0
 40
0
 40
0
 40
0
 40
1
 40
1
 40
1
 40
1
 10
20.480280
 20
64.192296
 30
0.0
 10
17.270048
 20
64.102664
 30
0.0
 10
14.234008
 20
63.490968
 30
0.0
 10
11.553712
 20
62.161048
 30
0.0
  0
SPLINE
  5
288
100
AcDbEntity
  8
mytext
 62
1
100
AcDbSpline
 70
8
 71
3
 72
8
 73
4
 74
0
 40
0
 40
0
 40
0
 40
0
 40
1
 40
1
 40
1
 40
1
 10
11.553712
 20
62.161048
 30
0.0
 10
8.364472
 20
60.581520
 30
0.0
 10
5.751456
 20
58.182264
 30
0.0
 10
3.928712
 20
55.329792
 30
0.0
  0
SPLINE
  5
289
100
AcDbEntity
  8
mytext
 62
1
100
AcDbSpline
 70
8
 71
3
 72
8
 73
4
 74
0
 40
0
 40
0
 40
0
 40
0
 40
1
 40
1
 40
1
 40
1
 10
3.928712
 20
55.329792
 30
0.0
 10
2.060928
 20
52.406824
 30
0.0
 10
1.095664
 20
49.225104
 30
0.0
 10
1.045664
 20
45.525104
 30
0.0
  0
LWPOLYLINE
  5
28a
100
AcDbEntity
  8
mytext
 62
1
100
AcDbPolyline
 90
3
 70
1
 10
60.150440
 20
43.014168
 30
0.0
 10
61.069336
 20
49.679792
 30
0.0
 10
55.225592
 20
52.973544
 30
0.0
  0
LWPOLYLINE
  5
28b
100
AcDbEntity
  8
mytext
 62
1
100
AcDbPolyline
 90
2
 70
1
 10
1.045664
 20
45.525104
 30
0.0
 10
1.045664
 20
45.525104
 30
0.0
  0
SPLINE
  5
28c
100
AcDbEntity
  8
mytext
 62
1
100
AcDbSpline
 70
8
 71
3
 72
8
 73
4
 74
0
 40
0
 40
0
 40
0
 40
0
 40
1
 40
1
 40
1
 40
1
 10
19.223784
 20
46.114024
 30
0.0
 10
19.617608
 20
46.040664
 30
0.0
 10
20.303840
 20
45.952280
 30
0.0
 10
21.281600
 20
45.832776
 30
0.0
  0
SPLINE
  5
28d
100
AcDbEntity
  8
mytext
 62
1
100
AcDbSpline
 70
8
 71
3
 72
8
 73
4
 74
0
 40
0
 40
0
 40
0
 40
0
 40
1
 40
1
 40
1
 40
1
 10
21.281600
 20
45.832776
 30
0.0
 10
22.256648
 20
45.707840
 30
0.0
 10
23.310560
 20
45.541024
 30
0.0
 10
24.415976
 20
45.315592
 30
0.0
  0
SPLINE
  5
28e
100
AcDbEntity
  8
mytext
 62
1
100
AcDbSpline
 70
8
 71
3
 72
8
 73
4
 74
0
 40
0
 40
0
 40
0
 40
0
 40
1
 40
1
 40
1
 40
1
 10
24.415976
 20
45.315592
 30
0.0
 10
25.782120
 20
45.065720
 30
0.0
 10
27.050472
 20
44.710192
 30
0.0
 10
28.223784
 20
44.259336
 30
0.0
  0
SPLINE
  5
28f
100
AcDbEntity
  8
mytext
 62
1
100
AcDbSpline
 70
8
 71
3
 72
8
 73
4
 74
0
 40
0
 40
0
 40
0
 40
0
 40
1
 40
1
 40
1
 40
1
 10
28.223784
 20
44.259336
 30
0.0
 10
29.416112
 20
43.830208
 30
0.0
 10
30.046920
 20
43.287552
 30
0.0
 10
30.117536
 20
42.665592
 30
0.0
  0
SPLINE
  5
290
100
AcDbEntity
  8
mytext
 62
1
100
AcDbSpline
 70
8
 71
3
 72
8
 73
4
 74
0
 40
0
 40
0
 40
0
 40
0
 40
1
 40
1
 40
1
 40
1
 10
30.117536
 20
42.665592
 30
0.0
 10
30.119936
 20
42.594952
 30
0.0
 10
30.116736
 20
42.513656
 30
0.0
 10
30.119136
 20
42.459336
 30
0.0
  0
SPLINE
  5
291
100
AcDbEntity
  8
mytext
 62
1
100
AcDbSpline
 70
8
 71
3
 72
8
 73
4
 74
0
 40
0
 40
0
 40
0
 40
0
 40
1
 40
1
 40
1
 40
1
 10
30.119136
 20
42.459336
 30
0.0
 10
30.116736
 20
42.394136
 30
0.0
 10
30.119776
 20
42.319760
 30
0.0
 10
30.092576
 20
42.243712
 30
0.0
  0
SPLINE
  5
292
100
AcDbEntity
  8
mytext
 62
1
100
AcDbSpline
 70
8
 71
3
 72
8
 73
4
 74
0
 40
0
 40
0
 40
0
 40
0
 40
1
 40
1
 40
1
 40
1
 10
30.092576
 20
42.243712
 30
0.0
 10
30.065376
 20
42.156800
 30
0.0
 10
30.010592
 20
42.072704
 30
0.0
 10
29.901952
 20
42.026528
 30
0.0
  0
SPLINE
  5
293
100
AcDbEntity
  8
mytext
 62
1
100
AcDbSpline
 70
8
 71
3
 72
8
 73
4
 74
0
 40
0
 40
0
 40
0
 40
0
 40
1
 40
1
 40
1
 40
1
 10
29.901952
 20
42.026528
 30
0.0
 10
29.820472
 20
41.964048
 30
0.0
 10
29.712976
 20
41.942416
 30
0.0
 10
29.609768
 20
41.923400
 30
0.0
  0
SPLINE
  5
294
100
AcDbEntity
  8
mytext
 62
1
100
AcDbSpline
 70
8
 71
3
 72
8
 73
4
 74
0
 40
0
 40
0
 40
0
 40
0
 40
1
 40
1
 40
1
 40
1
 10
29.609768
 20
41.923400
 30
0.0
 10
29.555448
 20
41.923400
 30
0.0
 10
29.500984
 20
41.896840
 30
0.0
 10
29.473824
 20
41.896840
 30
0.0
  0
SPLINE
  5
295
100
AcDbEntity
  8
mytext
 62
1
100
AcDbSpline
 70
8
 71
3
 72
8
 73
4
 74
0
 40
0
 40
0
 40
0
 40
0
 40
1
 40
1
 40
1
 40
1
 10
29.473824
 20
41.896840
 30
0.0
 10
29.446624
 20
41.896840
 30
0.0
 10
29.391616
 20
41.896280
 30
0.0
 10
29.364448
 20
41.923400
 30
0.0
  0
SPLINE
  5
296
100
AcDbEntity
  8
mytext
 62
1
100
AcDbSpline
 70
8
 71
3
 72
8
 73
4
 74
0
 40
0
 40
0
 40
0
 40
0
 40
1
 40
1
 40
1
 40
1
 10
29.364448
 20
41.923400
 30
0.0
 10
29.255808
 20
41.923400
 30
0.0
 10
29.173984
 20
41.896280
 30
0.0
 10
29.081640
 20
41.923400
 30
0.0
  0
SPLINE
  5
297
100
AcDbEntity
  8
mytext
 62
1
100
AcDbSpline
 70
8
 71
3
 72
8
 73
4
 74
0
 40
0
 40
0
 40
0
 40
0
 40
1
 40
1
 40
1
 40
1
 10
29.081640
 20
41.923400
 30
0.0
 10
29.000160
 20
41.923400
 30
0.0
 10
28.918776
 20
41.950520
 30
0.0
 10
28.864448
 20
41.964040
 30
0.0
  0
SPLINE
  5
298
100
AcDbEntity
  8
mytext
 62
1
100
AcDbSpline
 70
8
 71
3
 72
8
 73
4
 74
0
 40
0
 40
0
 40
0
 40
0
 40
1
 40
1
 40
1
 40
1
 10
28.864448
 20
41.964040
 30
0.0
 10
28.095832
 20
42.072680
 30
0.0
 10
27.324856
 20
42.198408
 30
0.0
 10
26.553512
 20
42.312480
 30
0.0
  0
SPLINE
  5
299
100
AcDbEntity
  8
mytext
 62
1
100
AcDbSpline
 70
8
 71
3
 72
8
 73
4
 74
0
 40
0
 40
0
 40
0
 40
0
 40
1
 40
1
 40
1
 40
1
 10
26.553512
 20
42.312480
 30
0.0
 10
25.774016
 20
42.418400
 30
0.0
 10
25.000264
 20
42.552016
 30
0.0
 10
24.231640
 20
42.679664
 30
0.0
  0
SPLINE
  5
29a
100
AcDbEntity
  8
mytext
 62
1
100
AcDbSpline
 70
8
 71
3
 72
8
 73
4
 74
0
 40
0
 40
0
 40
0
 40
0
 40
1
 40
1
 40
1
 40
1
 10
24.231640
 20
42.679664
 30
0.0
 10
23.433136
 20
42.810032
 30
0.0
 10
22.672888
 20
42.939848
 30
0.0
 10
21.898824
 20
43.059352
 30
0.0
  0
SPLINE
  5
29b
100
AcDbEntity
  8
mytext
 62
1
100
AcDbSpline
 70
8
 71
3
 72
8
 73
4
 74
0
 40
0
 40
0
 40
0
 40
0
 40
1
 40
1
 40
1
 40
1
 10
21.898824
 20
43.059352
 30
0.0
 10
21.116616
 20
43.173424
 30
0.0
 10
20.349784
 20
43.286944
 30
0.0
 10
19.567576
 20
43.439040
 30
0.0
  0
LWPOLYLINE
  5
29c
100
AcDbEntity
  8
mytext
 62
1
100
AcDbPolyline
 90
3
 70
1
 10
18.562848
 20
52.423544
 30
0.0
 10
19.309728
 20
46.120424
 30
0.0
 10
19.223784
 20
46.114024
 30
0.0
  0
SPLINE
  5
29d
100
AcDbEntity
  8
mytext
 62
1
100
AcDbSpline
 70
8
 71
3
 72
8
 73
4
 74
0
 40
0
 40
0
 40
0
 40
0
 40
1
 40
1
 40
1
 40
1
 10
20.328512
 20
37.110920
 30
0.0
 10
20.991216
 20
37.015856
 30
0.0
 10
21.672536
 20
36.901624
 30
0.0
 10
22.348824
 20
36.798416
 30
0.0
  0
SPLINE
  5
29e
100
AcDbEntity
  8
mytext
 62
1
100
AcDbSpline
 70
8
 71
3
 72
8
 73
4
 74
0
 40
0
 40
0
 40
0
 40
0
 40
1
 40
1
 40
1
 40
1
 10
22.348824
 20
36.798416
 30
0.0
 10
23.019680
 20
36.687064
 30
0.0
 10
23.710120
 20
36.584928
 30
0.0
 10
24.397264
 20
36.495296
 30
0.0
  0
SPLINE
  5
29f
100
AcDbEntity
  8
mytext
 62
1
100
AcDbSpline
 70
8
 71
3
 72
8
 73
4
 74
0
 40
0
 40
0
 40
0
 40
0
 40
1
 40
1
 40
1
 40
1
 10
24.397264
 20
36.495296
 30
0.0
 10
25.087128
 20
36.392088
 30
0.0
 10
27.363016
 20
35.921872
 30
0.0
 10
27.726960
 20
35.807800
 30
0.0
  0
SPLINE
  5
2a0
100
AcDbEntity
  8
mytext
 62
1
100
AcDbSpline
 70
8
 71
3
 72
8
 73
4
 74
0
 40
0
 40
0
 40
0
 40
0
 40
1
 40
1
 40
1
 40
1
 10
27.726960
 20
35.807800
 30
0.0
 10
28.071888
 20
35.680144
 30
0.0
 10
28.454272
 20
35.531144
 30
0.0
 10
28.853520
 20
35.343736
 30
0.0
  0
SPLINE
  5
2a1
100
AcDbEntity
  8
mytext
 62
1
100
AcDbSpline
 70
8
 71
3
 72
8
 73
4
 74
0
 40
0
 40
0
 40
0
 40
0
 40
1
 40
1
 40
1
 40
1
 10
28.853520
 20
35.343736
 30
0.0
 10
29.309808
 20
35.175344
 30
0.0
 10
29.758768
 20
34.933080
 30
0.0
 10
30.187896
 20
34.685928
 30
0.0
  0
SPLINE
  5
2a2
100
AcDbEntity
  8
mytext
 62
1
100
AcDbSpline
 70
8
 71
3
 72
8
 73
4
 74
0
 40
0
 40
0
 40
0
 40
0
 40
1
 40
1
 40
1
 40
1
 10
30.187896
 20
34.685928
 30
0.0
 10
30.644184
 20
34.417040
 30
0.0
 10
30.978720
 20
34.136392
 30
0.0
 10
31.239464
 20
33.859360
 30
0.0
  0
SPLINE
  5
2a3
100
AcDbEntity
  8
mytext
 62
1
100
AcDbSpline
 70
8
 71
3
 72
8
 73
4
 74
0
 40
0
 40
0
 40
0
 40
0
 40
1
 40
1
 40
1
 40
1
 10
31.239464
 20
33.859360
 30
0.0
 10
31.320944
 20
33.758864
 30
0.0
 10
31.402328
 20
33.650480
 30
0.0
 10
31.456648
 20
33.549992
 30
0.0
  0
SPLINE
  5
2a4
100
AcDbEntity
  8
mytext
 62
1
100
AcDbSpline
 70
8
 71
3
 72
8
 73
4
 74
0
 40
0
 40
0
 40
0
 40
0
 40
1
 40
1
 40
1
 40
1
 10
31.456648
 20
33.549992
 30
0.0
 10
31.510968
 20
33.444064
 30
0.0
 10
31.537296
 20
33.338240
 30
0.0
 10
31.564456
 20
33.218736
 30
0.0
  0
LWPOLYLINE
  5
2a5
100
AcDbEntity
  8
mytext
 62
1
100
AcDbPolyline
 90
2
 70
1
 10
19.567576
 20
43.439040
 30
0.0
 10
20.328512
 20
37.110920
 30
0.0
  0
SPLINE
  5
2a6
100
AcDbEntity
  8
mytext
 62
1
100
AcDbSpline
 70
8
 71
3
 72
8
 73
4
 74
0
 40
0
 40
0
 40
0
 40
0
 40
1
 40
1
 40
1
 40
1
 10
31.564456
 20
32.895304
 30
0.0
 10
31.510136
 20
32.868104
 30
0.0
 10
31.455680
 20
32.843704
 30
0.0
 10
31.428520
 20
32.843704
 30
0.0
  0
LWPOLYLINE
  5
2a7
100
AcDbEntity
  8
mytext
 62
1
100
AcDbPolyline
 90
3
 70
1
 10
31.564456
 20
33.218736
 30
0.0
 10
31.564456
 20
33.015616
 30
0.0
 10
31.564456
 20
32.895304
 30
0.0
  0
SPLINE
  5
2a8
100
AcDbEntity
  8
mytext
 62
1
100
AcDbSpline
 70
8
 71
3
 72
8
 73
4
 74
0
 40
0
 40
0
 40
0
 40
0
 40
1
 40
1
 40
1
 40
1
 10
31.320712
 20
32.843704
 30
0.0
 10
31.130592
 20
32.805704
 30
0.0
 10
30.836360
 20
32.817224
 30
0.0
 10
30.494144
 20
32.846904
 30
0.0
  0
SPLINE
  5
2a9
100
AcDbEntity
  8
mytext
 62
1
100
AcDbSpline
 70
8
 71
3
 72
8
 73
4
 74
0
 40
0
 40
0
 40
0
 40
0
 40
1
 40
1
 40
1
 40
1
 10
30.494144
 20
32.846904
 30
0.0
 10
30.146488
 20
32.890344
 30
0.0
 10
29.771664
 20
32.930424
 30
0.0
 10
29.394144
 20
32.976592
 30
0.0
  0
SPLINE
  5
2aa
100
AcDbEntity
  8
mytext
 62
1
100
AcDbSpline
 70
8
 71
3
 72
8
 73
4
 74
0
 40
0
 40
0
 40
0
 40
0
 40
1
 40
1
 40
1
 40
1
 10
29.394144
 20
32.976592
 30
0.0
 10
29.312664
 20
32.976592
 30
0.0
 10
29.231880
 20
33.015712
 30
0.0
 10
29.150400
 20
33.026592
 30
0.0
  0
SPLINE
  5
2ab
100
AcDbEntity
  8
mytext
 62
1
100
AcDbSpline
 70
8
 71
3
 72
8
 73
4
 74
0
 40
0
 40
0
 40
0
 40
0
 40
1
 40
1
 40
1
 40
1
 10
29.150400
 20
33.026592
 30
0.0
 10
29.068920
 20
33.026592
 30
0.0
 10
28.986568
 20
33.026360
 30
0.0
 10
28.905088
 20
33.056272
 30
0.0
  0
SPLINE
  5
2ac
100
AcDbEntity
  8
mytext
 62
1
100
AcDbSpline
 70
8
 71
3
 72
8
 73
4
 74
0
 40
0
 40
0
 40
0
 40
0
 40
1
 40
1
 40
1
 40
1
 10
28.905088
 20
33.056272
 30
0.0
 10
28.584600
 20
33.086112
 30
0.0
 10
28.266680
 20
33.151136
 30
0.0
 10
27.959776
 20
33.200024
 30
0.0
  0
SPLINE
  5
2ad
100
AcDbEntity
  8
mytext
 62
1
100
AcDbSpline
 70
8
 71
3
 72
8
 73
4
 74
0
 40
0
 40
0
 40
0
 40
0
 40
1
 40
1
 40
1
 40
1
 10
27.959776
 20
33.200024
 30
0.0
 10
27.661016
 20
33.265224
 30
0.0
 10
27.420352
 20
33.286176
 30
0.0
 10
27.251960
 20
33.318768
 30
0.0
  0
SPLINE
  5
2ae
100
AcDbEntity
  8
mytext
 62
1
100
AcDbSpline
 70
8
 71
3
 72
8
 73
4
 74
0
 40
0
 40
0
 40
0
 40
0
 40
1
 40
1
 40
1
 40
1
 10
27.251960
 20
33.318768
 30
0.0
 10
26.901600
 20
33.386688
 30
0.0
 10
26.552888
 20
33.425840
 30
0.0
 10
26.226960
 20
33.431272
 30
0.0
  0
SPLINE
  5
2af
100
AcDbEntity
  8
mytext
 62
1
100
AcDbSpline
 70
8
 71
3
 72
8
 73
4
 74
0
 40
0
 40
0
 40
0
 40
0
 40
1
 40
1
 40
1
 40
1
 10
26.226960
 20
33.431272
 30
0.0
 10
25.901040
 20
33.431272
 30
0.0
 10
25.569728
 20
33.404232
 30
0.0
 10
25.251960
 20
33.390632
 30
0.0
  0
SPLINE
  5
2b0
100
AcDbEntity
  8
mytext
 62
1
100
AcDbSpline
 70
8
 71
3
 72
8
 73
4
 74
0
 40
0
 40
0
 40
0
 40
0
 40
1
 40
1
 40
1
 40
1
 10
25.251960
 20
33.390632
 30
0.0
 10
24.287776
 20
33.254832
 30
0.0
 10
23.448600
 20
32.941712
 30
0.0
 10
22.720712
 20
32.409376
 30
0.0
  0
SPLINE
  5
2b1
100
AcDbEntity
  8
mytext
 62
1
100
AcDbSpline
 70
8
 71
3
 72
8
 73
4
 74
0
 40
0
 40
0
 40
0
 40
0
 40
1
 40
1
 40
1
 40
1
 10
22.720712
 20
32.409376
 30
0.0
 10
21.995536
 20
31.860744
 30
0.0
 10
21.514736
 20
31.143576
 30
0.0
 10
21.267584
 20
30.250008
 30
0.0
  0
SPLINE
  5
2b2
100
AcDbEntity
  8
mytext
 62
1
100
AcDbSpline
 70
8
 71
3
 72
8
 73
4
 74
0
 40
0
 40
0
 40
0
 40
0
 40
1
 40
1
 40
1
 40
1
 10
21.267584
 20
30.250008
 30
0.0
 10
21.158944
 20
29.902360
 30
0.0
 10
21.132840
 20
29.560224
 30
0.0
 10
21.078520
 20
29.223440
 30
0.0
  0
SPLINE
  5
2b3
100
AcDbEntity
  8
mytext
 62
1
100
AcDbSpline
 70
8
 71
3
 72
8
 73
4
 74
0
 40
0
 40
0
 40
0
 40
0
 40
1
 40
1
 40
1
 40
1
 10
21.078520
 20
29.223440
 30
0.0
 10
21.078520
 20
28.873072
 30
0.0
 10
21.077968
 20
28.546984
 30
0.0
 10
21.105080
 20
28.215632
 30
0.0
  0
SPLINE
  5
2b4
100
AcDbEntity
  8
mytext
 62
1
100
AcDbSpline
 70
8
 71
3
 72
8
 73
4
 74
0
 40
0
 40
0
 40
0
 40
0
 40
1
 40
1
 40
1
 40
1
 10
21.105080
 20
28.215632
 30
0.0
 10
21.213720
 20
27.327504
 30
0.0
 10
21.544688
 20
26.504576
 30
0.0
 10
22.087888
 20
25.735944
 30
0.0
  0
SPLINE
  5
2b5
100
AcDbEntity
  8
mytext
 62
1
100
AcDbSpline
 70
8
 71
3
 72
8
 73
4
 74
0
 40
0
 40
0
 40
0
 40
0
 40
1
 40
1
 40
1
 40
1
 10
22.087888
 20
25.735944
 30
0.0
 10
22.641952
 20
24.970032
 30
0.0
 10
23.394208
 20
24.298976
 30
0.0
 10
24.328512
 20
23.742192
 30
0.0
  0
SPLINE
  5
2b6
100
AcDbEntity
  8
mytext
 62
1
100
AcDbSpline
 70
8
 71
3
 72
8
 73
4
 74
0
 40
0
 40
0
 40
0
 40
0
 40
1
 40
1
 40
1
 40
1
 10
24.328512
 20
23.742192
 30
0.0
 10
23.728272
 20
23.505904
 30
0.0
 10
23.258640
 20
23.172952
 30
0.0
 10
22.919136
 20
22.754688
 30
0.0
  0
SPLINE
  5
2b7
100
AcDbEntity
  8
mytext
 62
1
100
AcDbSpline
 70
8
 71
3
 72
8
 73
4
 74
0
 40
0
 40
0
 40
0
 40
0
 40
1
 40
1
 40
1
 40
1
 10
22.919136
 20
22.754688
 30
0.0
 10
22.574208
 20
22.339144
 30
0.0
 10
22.343592
 20
21.890856
 30
0.0
 10
22.205080
 20
21.404688
 30
0.0
  0
SPLINE
  5
2b8
100
AcDbEntity
  8
mytext
 62
1
100
AcDbSpline
 70
8
 71
3
 72
8
 73
4
 74
0
 40
0
 40
0
 40
0
 40
0
 40
1
 40
1
 40
1
 40
1
 10
22.205080
 20
21.404688
 30
0.0
 10
22.123600
 20
21.097784
 30
0.0
 10
22.069736
 20
20.782104
 30
0.0
 10
22.042576
 20
20.445320
 30
0.0
  0
SPLINE
  5
2b9
100
AcDbEntity
  8
mytext
 62
1
100
AcDbSpline
 70
8
 71
3
 72
8
 73
4
 74
0
 40
0
 40
0
 40
0
 40
0
 40
1
 40
1
 40
1
 40
1
 10
22.042576
 20
20.445320
 30
0.0
 10
22.042576
 20
20.135696
 30
0.0
 10
22.042944
 20
19.815472
 30
0.0
 10
22.097296
 20
19.503128
 30
0.0
  0
LWPOLYLINE
  5
2ba
100
AcDbEntity
  8
mytext
 62
1
100
AcDbPolyline
 90
2
 70
1
 10
31.428520
 20
32.843704
 30
0.0
 10
31.320712
 20
32.843704
 30
0.0
  0
SPLINE
  5
2bb
100
AcDbEntity
  8
mytext
 62
1
100
AcDbSpline
 70
8
 71
3
 72
8
 73
4
 74
0
 40
0
 40
0
 40
0
 40
0
 40
1
 40
1
 40
1
 40
1
 10
22.097296
 20
19.307816
 30
0.0
 10
22.099696
 20
19.239896
 30
0.0
 10
22.097296
 20
19.168456
 30
0.0
 10
22.097296
 20
19.125000
 30
0.0
  0
SPLINE
  5
2bc
100
AcDbEntity
  8
mytext
 62
1
100
AcDbSpline
 70
8
 71
3
 72
8
 73
4
 74
0
 40
0
 40
0
 40
0
 40
0
 40
1
 40
1
 40
1
 40
1
 10
22.097296
 20
19.125000
 30
0.0
 10
22.233104
 20
18.473168
 30
0.0
 10
22.469472
 20
17.870152
 30
0.0
 10
22.803544
 20
17.267192
 30
0.0
  0
SPLINE
  5
2bd
100
AcDbEntity
  8
mytext
 62
1
100
AcDbSpline
 70
8
 71
3
 72
8
 73
4
 74
0
 40
0
 40
0
 40
0
 40
0
 40
1
 40
1
 40
1
 40
1
 10
22.803544
 20
17.267192
 30
0.0
 10
23.121312
 20
16.656096
 30
0.0
 10
23.513896
 20
16.125040
 30
0.0
 10
23.945736
 20
15.668752
 30
0.0
  0
LWPOLYLINE
  5
2be
100
AcDbEntity
  8
mytext
 62
1
100
AcDbPolyline
 90
2
 70
1
 10
22.097296
 20
19.503128
 30
0.0
 10
22.097296
 20
19.307816
 30
0.0
  0
SPLINE
  5
2bf
100
AcDbEntity
  8
mytext
 62
1
100
AcDbSpline
 70
8
 71
3
 72
8
 73
4
 74
0
 40
0
 40
0
 40
0
 40
0
 40
1
 40
1
 40
1
 40
1
 10
37.605112
 20
13.531256
 30
0.0
 10
37.442152
 20
13.558456
 30
0.0
 10
37.118512
 20
13.609896
 30
0.0
 10
36.616048
 20
13.685944
 30
0.0
  0
SPLINE
  5
2c0
100
AcDbEntity
  8
mytext
 62
1
100
AcDbSpline
 70
8
 71
3
 72
8
 73
4
 74
0
 40
0
 40
0
 40
0
 40
0
 40
1
 40
1
 40
1
 40
1
 10
36.616048
 20
13.685944
 30
0.0
 10
36.110872
 20
13.745704
 30
0.0
 10
35.589336
 20
13.834336
 30
0.0
 10
35.048856
 20
13.885944
 30
0.0
  0
SPLINE
  5
2c1
100
AcDbEntity
  8
mytext
 62
1
100
AcDbSpline
 70
8
 71
3
 72
8
 73
4
 74
0
 40
0
 40
0
 40
0
 40
0
 40
1
 40
1
 40
1
 40
1
 10
35.048856
 20
13.885944
 30
0.0
 10
34.391576
 20
13.986432
 30
0.0
 10
33.563200
 20
14.138608
 30
0.0
 10
32.506672
 20
14.301568
 30
0.0
  0
SPLINE
  5
2c2
100
AcDbEntity
  8
mytext
 62
1
100
AcDbSpline
 70
8
 71
3
 72
8
 73
4
 74
0
 40
0
 40
0
 40
0
 40
0
 40
1
 40
1
 40
1
 40
1
 10
32.506672
 20
14.301568
 30
0.0
 10
31.037320
 20
14.554160
 30
0.0
 10
29.850240
 20
14.842880
 30
0.0
 10
28.956672
 20
15.117192
 30
0.0
  0
SPLINE
  5
2c3
100
AcDbEntity
  8
mytext
 62
1
100
AcDbSpline
 70
8
 71
3
 72
8
 73
4
 74
0
 40
0
 40
0
 40
0
 40
0
 40
1
 40
1
 40
1
 40
1
 10
28.956672
 20
15.117192
 30
0.0
 10
28.063112
 20
15.405088
 30
0.0
 10
27.379520
 20
15.681600
 30
0.0
 10
26.887920
 20
15.964064
 30
0.0
  0
SPLINE
  5
2c4
100
AcDbEntity
  8
mytext
 62
1
100
AcDbSpline
 70
8
 71
3
 72
8
 73
4
 74
0
 40
0
 40
0
 40
0
 40
0
 40
1
 40
1
 40
1
 40
1
 10
26.887920
 20
15.964064
 30
0.0
 10
26.697800
 20
16.064560
 30
0.0
 10
26.555792
 20
16.167376
 30
0.0
 10
26.425424
 20
16.251568
 30
0.0
  0
SPLINE
  5
2c5
100
AcDbEntity
  8
mytext
 62
1
100
AcDbSpline
 70
8
 71
3
 72
8
 73
4
 74
0
 40
0
 40
0
 40
0
 40
0
 40
1
 40
1
 40
1
 40
1
 10
26.425424
 20
16.251568
 30
0.0
 10
26.289624
 20
16.373792
 30
0.0
 10
26.155008
 20
16.480904
 30
0.0
 10
26.081672
 20
16.603128
 30
0.0
  0
SPLINE
  5
2c6
100
AcDbEntity
  8
mytext
 62
1
100
AcDbSpline
 70
8
 71
3
 72
8
 73
4
 74
0
 40
0
 40
0
 40
0
 40
0
 40
1
 40
1
 40
1
 40
1
 10
26.081672
 20
16.603128
 30
0.0
 10
25.973032
 20
16.706336
 30
0.0
 10
25.890680
 20
16.817584
 30
0.0
 10
25.836360
 20
16.934376
 30
0.0
  0
SPLINE
  5
2c7
100
AcDbEntity
  8
mytext
 62
1
100
AcDbSpline
 70
8
 71
3
 72
8
 73
4
 74
0
 40
0
 40
0
 40
0
 40
0
 40
1
 40
1
 40
1
 40
1
 10
25.836360
 20
16.934376
 30
0.0
 10
25.782040
 20
17.051160
 30
0.0
 10
25.755112
 20
17.154272
 30
0.0
 10
25.755112
 20
17.265632
 30
0.0
  0
SPLINE
  5
2c8
100
AcDbEntity
  8
mytext
 62
1
100
AcDbSpline
 70
8
 71
3
 72
8
 73
4
 74
0
 40
0
 40
0
 40
0
 40
0
 40
1
 40
1
 40
1
 40
1
 10
25.755112
 20
17.265632
 30
0.0
 10
25.727912
 20
17.442168
 30
0.0
 10
25.755840
 20
17.589048
 30
0.0
 10
25.864480
 20
17.703128
 30
0.0
  0
SPLINE
  5
2c9
100
AcDbEntity
  8
mytext
 62
1
100
AcDbSpline
 70
8
 71
3
 72
8
 73
4
 74
0
 40
0
 40
0
 40
0
 40
0
 40
1
 40
1
 40
1
 40
1
 10
25.864480
 20
17.703128
 30
0.0
 10
25.945968
 20
17.800904
 30
0.0
 10
26.142888
 20
17.889616
 30
0.0
 10
26.414480
 20
17.914064
 30
0.0
  0
SPLINE
  5
2ca
100
AcDbEntity
  8
mytext
 62
1
100
AcDbSpline
 70
8
 71
3
 72
8
 73
4
 74
0
 40
0
 40
0
 40
0
 40
0
 40
1
 40
1
 40
1
 40
1
 10
26.414480
 20
17.914064
 30
0.0
 10
26.523128
 20
17.941264
 30
0.0
 10
26.633104
 20
17.942224
 30
0.0
 10
26.787920
 20
17.942224
 30
0.0
  0
SPLINE
  5
2cb
100
AcDbEntity
  8
mytext
 62
1
100
AcDbSpline
 70
8
 71
3
 72
8
 73
4
 74
0
 40
0
 40
0
 40
0
 40
0
 40
1
 40
1
 40
1
 40
1
 10
26.787920
 20
17.942224
 30
0.0
 10
26.950880
 20
17.942224
 30
0.0
 10
27.107776
 20
17.914304
 30
0.0
 10
27.270736
 20
17.895344
 30
0.0
  0
SPLINE
  5
2cc
100
AcDbEntity
  8
mytext
 62
1
100
AcDbSpline
 70
8
 71
3
 72
8
 73
4
 74
0
 40
0
 40
0
 40
0
 40
0
 40
1
 40
1
 40
1
 40
1
 10
27.270736
 20
17.895344
 30
0.0
 10
28.090968
 20
17.770408
 30
0.0
 10
28.933384
 20
17.626528
 30
0.0
 10
29.764480
 20
17.501592
 30
0.0
  0
SPLINE
  5
2cd
100
AcDbEntity
  8
mytext
 62
1
100
AcDbSpline
 70
8
 71
3
 72
8
 73
4
 74
0
 40
0
 40
0
 40
0
 40
0
 40
1
 40
1
 40
1
 40
1
 10
29.764480
 20
17.501592
 30
0.0
 10
30.587432
 20
17.379376
 30
0.0
 10
31.425504
 20
17.240592
 30
0.0
 10
32.245736
 20
17.115656
 30
0.0
  0
SPLINE
  5
2ce
100
AcDbEntity
  8
mytext
 62
1
100
AcDbSpline
 70
8
 71
3
 72
8
 73
4
 74
0
 40
0
 40
0
 40
0
 40
0
 40
1
 40
1
 40
1
 40
1
 10
32.245736
 20
17.115656
 30
0.0
 10
33.117576
 20
16.974424
 30
0.0
 10
33.964968
 20
16.831216
 30
0.0
 10
34.787920
 20
16.706280
 30
0.0
  0
SPLINE
  5
2cf
100
AcDbEntity
  8
mytext
 62
1
100
AcDbSpline
 70
8
 71
3
 72
8
 73
4
 74
0
 40
0
 40
0
 40
0
 40
0
 40
1
 40
1
 40
1
 40
1
 10
34.787920
 20
16.706280
 30
0.0
 10
35.613584
 20
16.575912
 30
0.0
 10
36.444736
 20
16.433784
 30
0.0
 10
37.278544
 20
16.284400
 30
0.0
  0
LWPOLYLINE
  5
2d0
100
AcDbEntity
  8
mytext
 62
1
100
AcDbPolyline
 90
6
 70
1
 10
23.945736
 20
15.668752
 30
0.0
 10
23.028544
 20
15.835944
 30
0.0
 10
23.772296
 20
9.639064
 30
0.0
 10
31.066048
 20
8.485944
 30
0.0
 10
38.359800
 20
7.332816
 30
0.0
 10
37.605112
 20
13.531256
 30
0.0
  0
SPLINE
  5
2d1
100
AcDbEntity
  8
mytext
 62
1
100
AcDbSpline
 70
8
 71
3
 72
8
 73
4
 74
0
 40
0
 40
0
 40
0
 40
0
 40
1
 40
1
 40
1
 40
1
 10
36.489488
 20
22.829712
 30
0.0
 10
35.859368
 20
22.919344
 30
0.0
 10
35.223656
 20
23.045184
 30
0.0
 10
34.558232
 20
23.137528
 30
0.0
  0
SPLINE
  5
2d2
100
AcDbEntity
  8
mytext
 62
1
100
AcDbSpline
 70
8
 71
3
 72
8
 73
4
 74
0
 40
0
 40
0
 40
0
 40
0
 40
1
 40
1
 40
1
 40
1
 10
34.558232
 20
23.137528
 30
0.0
 10
33.909104
 20
23.235304
 30
0.0
 10
33.253680
 20
23.345808
 30
0.0
 10
32.580112
 20
23.473464
 30
0.0
  0
SPLINE
  5
2d3
100
AcDbEntity
  8
mytext
 62
1
100
AcDbSpline
 70
8
 71
3
 72
8
 73
4
 74
0
 40
0
 40
0
 40
0
 40
0
 40
1
 40
1
 40
1
 40
1
 10
32.580112
 20
23.473464
 30
0.0
 10
31.952712
 20
23.565808
 30
0.0
 10
31.307352
 20
23.669512
 30
0.0
 10
30.658232
 20
23.778152
 30
0.0
  0
SPLINE
  5
2d4
100
AcDbEntity
  8
mytext
 62
1
100
AcDbSpline
 70
8
 71
3
 72
8
 73
4
 74
0
 40
0
 40
0
 40
0
 40
0
 40
1
 40
1
 40
1
 40
1
 10
30.658232
 20
23.778152
 30
0.0
 10
30.011816
 20
23.881360
 30
0.0
 10
29.369856
 20
23.970592
 30
0.0
 10
28.720736
 20
24.065656
 30
0.0
  0
SPLINE
  5
2d5
100
AcDbEntity
  8
mytext
 62
1
100
AcDbSpline
 70
8
 71
3
 72
8
 73
4
 74
0
 40
0
 40
0
 40
0
 40
0
 40
1
 40
1
 40
1
 40
1
 10
28.720736
 20
24.065656
 30
0.0
 10
28.503456
 20
24.114536
 30
0.0
 10
28.251488
 20
24.182872
 30
0.0
 10
27.947296
 20
24.245344
 30
0.0
  0
SPLINE
  5
2d6
100
AcDbEntity
  8
mytext
 62
1
100
AcDbSpline
 70
8
 71
3
 72
8
 73
4
 74
0
 40
0
 40
0
 40
0
 40
0
 40
1
 40
1
 40
1
 40
1
 10
27.947296
 20
24.245344
 30
0.0
 10
27.653968
 20
24.332256
 30
0.0
 10
27.356920
 20
24.408912
 30
0.0
 10
27.047296
 20
24.509400
 30
0.0
  0
SPLINE
  5
2d7
100
AcDbEntity
  8
mytext
 62
1
100
AcDbSpline
 70
8
 71
3
 72
8
 73
4
 74
0
 40
0
 40
0
 40
0
 40
0
 40
1
 40
1
 40
1
 40
1
 10
27.047296
 20
24.509400
 30
0.0
 10
26.498664
 20
24.713104
 30
0.0
 10
25.978512
 20
24.976600
 30
0.0
 10
25.511360
 20
25.267216
 30
0.0
  0
SPLINE
  5
2d8
100
AcDbEntity
  8
mytext
 62
1
100
AcDbSpline
 70
8
 71
3
 72
8
 73
4
 74
0
 40
0
 40
0
 40
0
 40
0
 40
1
 40
1
 40
1
 40
1
 10
25.511360
 20
25.267216
 30
0.0
 10
25.025200
 20
25.549680
 30
0.0
 10
24.761400
 20
25.921416
 30
0.0
 10
24.709800
 20
26.312528
 30
0.0
  0
SPLINE
  5
2d9
100
AcDbEntity
  8
mytext
 62
1
100
AcDbSpline
 70
8
 71
3
 72
8
 73
4
 74
0
 40
0
 40
0
 40
0
 40
0
 40
1
 40
1
 40
1
 40
1
 10
24.709800
 20
26.312528
 30
0.0
 10
24.682600
 20
26.486352
 30
0.0
 10
24.735960
 20
26.624456
 30
0.0
 10
24.898856
 20
26.714088
 30
0.0
  0
SPLINE
  5
2da
100
AcDbEntity
  8
mytext
 62
1
100
AcDbSpline
 70
8
 71
3
 72
8
 73
4
 74
0
 40
0
 40
0
 40
0
 40
0
 40
1
 40
1
 40
1
 40
1
 10
24.898856
 20
26.714088
 30
0.0
 10
25.034656
 20
26.798280
 30
0.0
 10
25.213984
 20
26.860440
 30
0.0
 10
25.428544
 20
26.898464
 30
0.0
  0
LWPOLYLINE
  5
2db
100
AcDbEntity
  8
mytext
 62
1
100
AcDbPolyline
 90
2
 70
1
 10
37.278544
 20
16.284400
 30
0.0
 10
36.489488
 20
22.829712
 30
0.0
  0
SPLINE
  5
2dc
100
AcDbEntity
  8
mytext
 62
1
100
AcDbSpline
 70
8
 71
3
 72
8
 73
4
 74
0
 40
0
 40
0
 40
0
 40
0
 40
1
 40
1
 40
1
 40
1
 10
25.972296
 20
26.898464
 30
0.0
 10
26.189576
 20
26.898464
 30
0.0
 10
26.391368
 20
26.871904
 30
0.0
 10
26.611360
 20
26.871904
 30
0.0
  0
SPLINE
  5
2dd
100
AcDbEntity
  8
mytext
 62
1
100
AcDbSpline
 70
8
 71
3
 72
8
 73
4
 74
0
 40
0
 40
0
 40
0
 40
0
 40
1
 40
1
 40
1
 40
1
 10
26.611360
 20
26.871904
 30
0.0
 10
26.747160
 20
26.844704
 30
0.0
 10
26.882216
 20
26.844704
 30
0.0
 10
27.020736
 20
26.820304
 30
0.0
  0
SPLINE
  5
2de
100
AcDbEntity
  8
mytext
 62
1
100
AcDbSpline
 70
8
 71
3
 72
8
 73
4
 74
0
 40
0
 40
0
 40
0
 40
0
 40
1
 40
1
 40
1
 40
1
 10
27.020736
 20
26.820304
 30
0.0
 10
27.183696
 20
26.785024
 30
0.0
 10
27.291704
 20
26.770624
 30
0.0
 10
27.389488
 20
26.751584
 30
0.0
  0
SPLINE
  5
2df
100
AcDbEntity
  8
mytext
 62
1
100
AcDbSpline
 70
8
 71
3
 72
8
 73
4
 74
0
 40
0
 40
0
 40
0
 40
0
 40
1
 40
1
 40
1
 40
1
 10
27.389488
 20
26.751584
 30
0.0
 10
27.674664
 20
26.697264
 30
0.0
 10
27.931240
 20
26.654824
 30
0.0
 10
28.156672
 20
26.614080
 30
0.0
  0
SPLINE
  5
2e0
100
AcDbEntity
  8
mytext
 62
1
100
AcDbSpline
 70
8
 71
3
 72
8
 73
4
 74
0
 40
0
 40
0
 40
0
 40
0
 40
1
 40
1
 40
1
 40
1
 10
28.156672
 20
26.614080
 30
0.0
 10
28.373952
 20
26.567920
 30
0.0
 10
28.519280
 20
26.554560
 30
0.0
 10
28.592608
 20
26.532832
 30
0.0
  0
SPLINE
  5
2e1
100
AcDbEntity
  8
mytext
 62
1
100
AcDbSpline
 70
8
 71
3
 72
8
 73
4
 74
0
 40
0
 40
0
 40
0
 40
0
 40
1
 40
1
 40
1
 40
1
 10
28.592608
 20
26.532832
 30
0.0
 10
29.019024
 20
26.448640
 30
0.0
 10
29.454328
 20
26.372608
 30
0.0
 10
29.916048
 20
26.304704
 30
0.0
  0
SPLINE
  5
2e2
100
AcDbEntity
  8
mytext
 62
1
100
AcDbSpline
 70
8
 71
3
 72
8
 73
4
 74
0
 40
0
 40
0
 40
0
 40
0
 40
1
 40
1
 40
1
 40
1
 10
29.916048
 20
26.304704
 30
0.0
 10
30.366904
 20
26.242224
 30
0.0
 10
30.834760
 20
26.206200
 30
0.0
 10
31.291048
 20
26.195336
 30
0.0
  0
LWPOLYLINE
  5
2e3
100
AcDbEntity
  8
mytext
 62
1
100
AcDbPolyline
 90
2
 70
1
 10
25.428544
 20
26.898464
 30
0.0
 10
25.972296
 20
26.898464
 30
0.0
  0
SPLINE
  5
2e4
100
AcDbEntity
  8
mytext
 62
1
100
AcDbSpline
 70
8
 71
3
 72
8
 73
4
 74
0
 40
0
 40
0
 40
0
 40
0
 40
1
 40
1
 40
1
 40
1
 10
31.844168
 20
26.195336
 30
0.0
 10
32.007128
 20
26.195336
 30
0.0
 10
32.209072
 20
26.236056
 30
0.0
 10
32.391048
 20
26.246936
 30
0.0
  0
SPLINE
  5
2e5
100
AcDbEntity
  8
mytext
 62
1
100
AcDbSpline
 70
8
 71
3
 72
8
 73
4
 74
0
 40
0
 40
0
 40
0
 40
0
 40
1
 40
1
 40
1
 40
1
 10
32.391048
 20
26.246936
 30
0.0
 10
32.817456
 20
26.303976
 30
0.0
 10
33.218616
 20
26.385392
 30
0.0
 10
33.598856
 20
26.526624
 30
0.0
  0
SPLINE
  5
2e6
100
AcDbEntity
  8
mytext
 62
1
100
AcDbSpline
 70
8
 71
3
 72
8
 73
4
 74
0
 40
0
 40
0
 40
0
 40
0
 40
1
 40
1
 40
1
 40
1
 10
33.598856
 20
26.526624
 30
0.0
 10
33.976384
 20
26.659712
 30
0.0
 10
34.332120
 20
26.865888
 30
0.0
 10
34.687920
 20
27.126624
 30
0.0
  0
SPLINE
  5
2e7
100
AcDbEntity
  8
mytext
 62
1
100
AcDbSpline
 70
8
 71
3
 72
8
 73
4
 74
0
 40
0
 40
0
 40
0
 40
0
 40
1
 40
1
 40
1
 40
1
 10
34.687920
 20
27.126624
 30
0.0
 10
35.155072
 20
27.496000
 30
0.0
 10
35.477680
 20
27.947120
 30
0.0
 10
35.637920
 20
28.436000
 30
0.0
  0
SPLINE
  5
2e8
100
AcDbEntity
  8
mytext
 62
1
100
AcDbSpline
 70
8
 71
3
 72
8
 73
4
 74
0
 40
0
 40
0
 40
0
 40
0
 40
1
 40
1
 40
1
 40
1
 10
35.637920
 20
28.436000
 30
0.0
 10
35.800880
 20
28.949320
 30
0.0
 10
35.909944
 20
29.434912
 30
0.0
 10
35.931672
 20
29.967248
 30
0.0
  0
SPLINE
  5
2e9
100
AcDbEntity
  8
mytext
 62
1
100
AcDbSpline
 70
8
 71
3
 72
8
 73
4
 74
0
 40
0
 40
0
 40
0
 40
0
 40
1
 40
1
 40
1
 40
1
 10
35.931672
 20
29.967248
 30
0.0
 10
35.934072
 20
30.143784
 30
0.0
 10
35.931672
 20
30.324272
 30
0.0
 10
35.931672
 20
30.495376
 30
0.0
  0
SPLINE
  5
2ea
100
AcDbEntity
  8
mytext
 62
1
100
AcDbSpline
 70
8
 71
3
 72
8
 73
4
 74
0
 40
0
 40
0
 40
0
 40
0
 40
1
 40
1
 40
1
 40
1
 10
35.931672
 20
30.495376
 30
0.0
 10
35.931672
 20
30.663768
 30
0.0
 10
35.931304
 20
30.809232
 30
0.0
 10
35.876952
 20
30.953184
 30
0.0
  0
SPLINE
  5
2eb
100
AcDbEntity
  8
mytext
 62
1
100
AcDbSpline
 70
8
 71
3
 72
8
 73
4
 74
0
 40
0
 40
0
 40
0
 40
0
 40
1
 40
1
 40
1
 40
1
 10
35.876952
 20
30.953184
 30
0.0
 10
35.632512
 20
33.030920
 30
0.0
 10
34.725744
 20
34.553144
 30
0.0
 10
33.161328
 20
35.528184
 30
0.0
  0
SPLINE
  5
2ec
100
AcDbEntity
  8
mytext
 62
1
100
AcDbSpline
 70
8
 71
3
 72
8
 73
4
 74
0
 40
0
 40
0
 40
0
 40
0
 40
1
 40
1
 40
1
 40
1
 10
33.161328
 20
35.528184
 30
0.0
 10
32.862568
 20
35.715592
 30
0.0
 10
32.545056
 20
35.883640
 30
0.0
 10
32.219136
 20
36.054744
 30
0.0
  0
SPLINE
  5
2ed
100
AcDbEntity
  8
mytext
 62
1
100
AcDbSpline
 70
8
 71
3
 72
8
 73
4
 74
0
 40
0
 40
0
 40
0
 40
0
 40
1
 40
1
 40
1
 40
1
 10
32.219136
 20
36.054744
 30
0.0
 10
32.219136
 20
36.054744
 30
0.0
 10
32.246736
 20
36.054112
 30
0.0
 10
32.273856
 20
36.081304
 30
0.0
  0
SPLINE
  5
2ee
100
AcDbEntity
  8
mytext
 62
1
100
AcDbSpline
 70
8
 71
3
 72
8
 73
4
 74
0
 40
0
 40
0
 40
0
 40
0
 40
1
 40
1
 40
1
 40
1
 10
32.273856
 20
36.081304
 30
0.0
 10
32.708416
 20
36.217104
 30
0.0
 10
33.093056
 20
36.419184
 30
0.0
 10
33.448856
 20
36.650056
 30
0.0
  0
SPLINE
  5
2ef
100
AcDbEntity
  8
mytext
 62
1
100
AcDbSpline
 70
8
 71
3
 72
8
 73
4
 74
0
 40
0
 40
0
 40
0
 40
0
 40
1
 40
1
 40
1
 40
1
 10
33.448856
 20
36.650056
 30
0.0
 10
34.038224
 20
37.095472
 30
0.0
 10
34.435776
 20
37.561536
 30
0.0
 10
34.639488
 20
38.104736
 30
0.0
  0
SPLINE
  5
2f0
100
AcDbEntity
  8
mytext
 62
1
100
AcDbSpline
 70
8
 71
3
 72
8
 73
4
 74
0
 40
0
 40
0
 40
0
 40
0
 40
1
 40
1
 40
1
 40
1
 10
34.639488
 20
38.104736
 30
0.0
 10
34.829608
 20
38.604480
 30
0.0
 10
34.910024
 20
39.161208
 30
0.0
 10
34.828544
 20
39.712552
 30
0.0
  0
SPLINE
  5
2f1
100
AcDbEntity
  8
mytext
 62
1
100
AcDbSpline
 70
8
 71
3
 72
8
 73
4
 74
0
 40
0
 40
0
 40
0
 40
0
 40
1
 40
1
 40
1
 40
1
 10
34.828544
 20
39.712552
 30
0.0
 10
34.828544
 20
39.851072
 30
0.0
 10
34.775424
 20
40.016960
 30
0.0
 10
34.775424
 20
40.150056
 30
0.0
  0
SPLINE
  5
2f2
100
AcDbEntity
  8
mytext
 62
1
100
AcDbSpline
 70
8
 71
3
 72
8
 73
4
 74
0
 40
0
 40
0
 40
0
 40
0
 40
1
 40
1
 40
1
 40
1
 10
34.775424
 20
40.150056
 30
0.0
 10
34.748224
 20
40.296712
 30
0.0
 10
34.693208
 20
40.432600
 30
0.0
 10
34.666048
 20
40.565680
 30
0.0
  0
SPLINE
  5
2f3
100
AcDbEntity
  8
mytext
 62
1
100
AcDbSpline
 70
8
 71
3
 72
8
 73
4
 74
0
 40
0
 40
0
 40
0
 40
0
 40
1
 40
1
 40
1
 40
1
 10
34.666048
 20
40.565680
 30
0.0
 10
34.448768
 20
41.258264
 30
0.0
 10
34.123712
 20
41.896832
 30
0.0
 10
33.697296
 20
42.518800
 30
0.0
  0
SPLINE
  5
2f4
100
AcDbEntity
  8
mytext
 62
1
100
AcDbSpline
 70
8
 71
3
 72
8
 73
4
 74
0
 40
0
 40
0
 40
0
 40
0
 40
1
 40
1
 40
1
 40
1
 10
33.697296
 20
42.518800
 30
0.0
 10
33.273600
 20
43.119040
 30
0.0
 10
32.802400
 20
43.637368
 30
0.0
 10
32.286360
 20
44.071928
 30
0.0
  0
SPLINE
  5
2f5
100
AcDbEntity
  8
mytext
 62
1
100
AcDbSpline
 70
8
 71
3
 72
8
 73
4
 74
0
 40
0
 40
0
 40
0
 40
0
 40
1
 40
1
 40
1
 40
1
 10
32.286360
 20
44.071928
 30
0.0
 10
32.807832
 20
44.004008
 30
0.0
 10
33.409176
 20
43.922496
 30
0.0
 10
34.069168
 20
43.832864
 30
0.0
  0
SPLINE
  5
2f6
100
AcDbEntity
  8
mytext
 62
1
100
AcDbSpline
 70
8
 71
3
 72
8
 73
4
 74
0
 40
0
 40
0
 40
0
 40
0
 40
1
 40
1
 40
1
 40
1
 10
34.069168
 20
43.832864
 30
0.0
 10
34.729160
 20
43.740520
 30
0.0
 10
35.413680
 20
43.640616
 30
0.0
 10
36.103544
 20
43.515680
 30
0.0
  0
SPLINE
  5
2f7
100
AcDbEntity
  8
mytext
 62
1
100
AcDbSpline
 70
8
 71
3
 72
8
 73
4
 74
0
 40
0
 40
0
 40
0
 40
0
 40
1
 40
1
 40
1
 40
1
 10
36.103544
 20
43.515680
 30
0.0
 10
37.521296
 20
43.271240
 30
0.0
 10
38.815912
 20
42.863160
 30
0.0
 10
40.008232
 20
42.317240
 30
0.0
  0
SPLINE
  5
2f8
100
AcDbEntity
  8
mytext
 62
1
100
AcDbSpline
 70
8
 71
3
 72
8
 73
4
 74
0
 40
0
 40
0
 40
0
 40
0
 40
1
 40
1
 40
1
 40
1
 10
40.008232
 20
42.317240
 30
0.0
 10
41.203272
 20
41.795768
 30
0.0
 10
41.857816
 20
40.940064
 30
0.0
 10
41.969168
 20
39.753176
 30
0.0
  0
SPLINE
  5
2f9
100
AcDbEntity
  8
mytext
 62
1
100
AcDbSpline
 70
8
 71
3
 72
8
 73
4
 74
0
 40
0
 40
0
 40
0
 40
0
 40
1
 40
1
 40
1
 40
1
 10
41.969168
 20
39.753176
 30
0.0
 10
41.969168
 20
39.753176
 30
0.0
 10
41.916048
 20
39.164640
 30
0.0
 10
41.916048
 20
39.126616
 30
0.0
  0
SPLINE
  5
2fa
100
AcDbEntity
  8
mytext
 62
1
100
AcDbSpline
 70
8
 71
3
 72
8
 73
4
 74
0
 40
0
 40
0
 40
0
 40
0
 40
1
 40
1
 40
1
 40
1
 10
41.916048
 20
39.126616
 30
0.0
 10
41.592848
 20
39.667104
 30
0.0
 10
41.176912
 20
40.076856
 30
0.0
 10
40.647296
 20
40.285992
 30
0.0
  0
SPLINE
  5
2fb
100
AcDbEntity
  8
mytext
 62
1
100
AcDbSpline
 70
8
 71
3
 72
8
 73
4
 74
0
 40
0
 40
0
 40
0
 40
0
 40
1
 40
1
 40
1
 40
1
 10
40.647296
 20
40.285992
 30
0.0
 10
40.128536
 20
40.514136
 30
0.0
 10
39.587040
 20
40.578624
 30
0.0
 10
39.051984
 20
40.529736
 30
0.0
  0
SPLINE
  5
2fc
100
AcDbEntity
  8
mytext
 62
1
100
AcDbSpline
 70
8
 71
3
 72
8
 73
4
 74
0
 40
0
 40
0
 40
0
 40
0
 40
1
 40
1
 40
1
 40
1
 10
39.051984
 20
40.529736
 30
0.0
 10
39.024784
 20
40.502536
 30
0.0
 10
38.998864
 20
40.503176
 30
0.0
 10
38.998864
 20
40.503176
 30
0.0
  0
SPLINE
  5
2fd
100
AcDbEntity
  8
mytext
 62
1
100
AcDbSpline
 70
8
 71
3
 72
8
 73
4
 74
0
 40
0
 40
0
 40
0
 40
0
 40
1
 40
1
 40
1
 40
1
 10
38.998864
 20
40.503176
 30
0.0
 10
38.998864
 20
40.503176
 30
0.0
 10
38.971264
 20
40.503816
 30
0.0
 10
38.944144
 20
40.476616
 30
0.0
  0
SPLINE
  5
2fe
100
AcDbEntity
  8
mytext
 62
1
100
AcDbSpline
 70
8
 71
3
 72
8
 73
4
 74
0
 40
0
 40
0
 40
0
 40
0
 40
1
 40
1
 40
1
 40
1
 10
38.944144
 20
40.476616
 30
0.0
 10
38.202672
 20
40.381552
 30
0.0
 10
37.545832
 20
40.055680
 30
0.0
 10
36.986336
 20
39.501616
 30
0.0
  0
SPLINE
  5
2ff
100
AcDbEntity
  8
mytext
 62
1
100
AcDbSpline
 70
8
 71
3
 72
8
 73
4
 74
0
 40
0
 40
0
 40
0
 40
0
 40
1
 40
1
 40
1
 40
1
 10
36.986336
 20
39.501616
 30
0.0
 10
36.440424
 20
38.955704
 30
0.0
 10
36.187184
 20
38.270088
 30
0.0
 10
36.255088
 20
37.479736
 30
0.0
  0
SPLINE
  5
300
100
AcDbEntity
  8
mytext
 62
1
100
AcDbSpline
 70
8
 71
3
 72
8
 73
4
 74
0
 40
0
 40
0
 40
0
 40
0
 40
1
 40
1
 40
1
 40
1
 10
36.255088
 20
37.479736
 30
0.0
 10
36.255088
 20
37.379240
 30
0.0
 10
36.282688
 20
37.276768
 30
0.0
 10
36.309808
 20
37.184424
 30
0.0
  0
SPLINE
  5
301
100
AcDbEntity
  8
mytext
 62
1
100
AcDbSpline
 70
8
 71
3
 72
8
 73
4
 74
0
 40
0
 40
0
 40
0
 40
0
 40
1
 40
1
 40
1
 40
1
 10
36.309808
 20
37.184424
 30
0.0
 10
36.337008
 20
37.092080
 30
0.0
 10
36.363328
 20
36.993400
 30
0.0
 10
36.417616
 20
36.876616
 30
0.0
  0
SPLINE
  5
302
100
AcDbEntity
  8
mytext
 62
1
100
AcDbSpline
 70
8
 71
3
 72
8
 73
4
 74
0
 40
0
 40
0
 40
0
 40
0
 40
1
 40
1
 40
1
 40
1
 10
36.417616
 20
36.876616
 30
0.0
 10
36.607736
 20
36.298104
 30
0.0
 10
37.017904
 20
35.829360
 30
0.0
 10
37.580120
 20
35.484424
 30
0.0
  0
SPLINE
  5
303
100
AcDbEntity
  8
mytext
 62
1
100
AcDbSpline
 70
8
 71
3
 72
8
 73
4
 74
0
 40
0
 40
0
 40
0
 40
0
 40
1
 40
1
 40
1
 40
1
 10
37.580120
 20
35.484424
 30
0.0
 10
38.155912
 20
35.125912
 30
0.0
 10
38.816144
 20
34.978616
 30
0.0
 10
39.522304
 20
35.043800
 30
0.0
  0
SPLINE
  5
304
100
AcDbEntity
  8
mytext
 62
1
100
AcDbSpline
 70
8
 71
3
 72
8
 73
4
 74
0
 40
0
 40
0
 40
0
 40
0
 40
1
 40
1
 40
1
 40
1
 10
39.522304
 20
35.043800
 30
0.0
 10
39.603784
 20
35.071000
 30
0.0
 10
40.092984
 20
35.174448
 30
0.0
 10
40.147304
 20
35.201640
 30
0.0
  0
SPLINE
  5
305
100
AcDbEntity
  8
mytext
 62
1
100
AcDbSpline
 70
8
 71
3
 72
8
 73
4
 74
0
 40
0
 40
0
 40
0
 40
0
 40
1
 40
1
 40
1
 40
1
 10
40.147304
 20
35.201640
 30
0.0
 10
40.877904
 20
35.432504
 30
0.0
 10
41.489000
 20
35.717712
 30
0.0
 10
41.994176
 20
36.073512
 30
0.0
  0
SPLINE
  5
306
100
AcDbEntity
  8
mytext
 62
1
100
AcDbSpline
 70
8
 71
3
 72
8
 73
4
 74
0
 40
0
 40
0
 40
0
 40
0
 40
1
 40
1
 40
1
 40
1
 10
41.994176
 20
36.073512
 30
0.0
 10
42.496632
 20
36.437456
 30
0.0
 10
42.917592
 20
36.907504
 30
0.0
 10
43.259808
 20
37.486016
 30
0.0
  0
SPLINE
  5
307
100
AcDbEntity
  8
mytext
 62
1
100
AcDbSpline
 70
8
 71
3
 72
8
 73
4
 74
0
 40
0
 40
0
 40
0
 40
0
 40
1
 40
1
 40
1
 40
1
 10
43.259808
 20
37.486016
 30
0.0
 10
43.588448
 20
38.086248
 30
0.0
 10
43.808976
 20
38.724608
 30
0.0
 10
43.917616
 20
39.406328
 30
0.0
  0
SPLINE
  5
308
100
AcDbEntity
  8
mytext
 62
1
100
AcDbSpline
 70
8
 71
3
 72
8
 73
4
 74
0
 40
0
 40
0
 40
0
 40
0
 40
1
 40
1
 40
1
 40
1
 10
43.917616
 20
39.406328
 30
0.0
 10
44.026256
 20
40.079896
 30
0.0
 10
44.025064
 20
40.745736
 30
0.0
 10
43.970736
 20
41.432888
 30
0.0
  0
SPLINE
  5
309
100
AcDbEntity
  8
mytext
 62
1
100
AcDbSpline
 70
8
 71
3
 72
8
 73
4
 74
0
 40
0
 40
0
 40
0
 40
0
 40
1
 40
1
 40
1
 40
1
 10
43.970736
 20
41.432888
 30
0.0
 10
43.943536
 20
41.625720
 30
0.0
 10
43.917216
 20
41.833544
 30
0.0
 10
43.862920
 20
42.045392
 30
0.0
  0
SPLINE
  5
30a
100
AcDbEntity
  8
mytext
 62
1
100
AcDbSpline
 70
8
 71
3
 72
8
 73
4
 74
0
 40
0
 40
0
 40
0
 40
0
 40
1
 40
1
 40
1
 40
1
 10
43.862920
 20
42.045392
 30
0.0
 10
43.808600
 20
42.254520
 30
0.0
 10
43.781304
 20
42.472600
 30
0.0
 10
43.726984
 20
42.684448
 30
0.0
  0
SPLINE
  5
30b
100
AcDbEntity
  8
mytext
 62
1
100
AcDbSpline
 70
8
 71
3
 72
8
 73
4
 74
0
 40
0
 40
0
 40
0
 40
0
 40
1
 40
1
 40
1
 40
1
 10
43.726984
 20
42.684448
 30
0.0
 10
43.259832
 20
44.333064
 30
0.0
 10
42.334240
 20
45.836976
 30
0.0
 10
40.981672
 20
47.192264
 30
0.0
  0
SPLINE
  5
30c
100
AcDbEntity
  8
mytext
 62
1
100
AcDbSpline
 70
8
 71
3
 72
8
 73
4
 74
0
 40
0
 40
0
 40
0
 40
0
 40
1
 40
1
 40
1
 40
1
 10
40.981672
 20
47.192264
 30
0.0
 10
39.620960
 20
48.563848
 30
0.0
 10
38.000952
 20
49.401168
 30
0.0
 10
36.116048
 20
49.678200
 30
0.0
  0
SPLINE
  5
30d
100
AcDbEntity
  8
mytext
 62
1
100
AcDbSpline
 70
8
 71
3
 72
8
 73
4
 74
0
 40
0
 40
0
 40
0
 40
0
 40
1
 40
1
 40
1
 40
1
 10
36.116048
 20
49.678200
 30
0.0
 10
34.652128
 20
49.911776
 30
0.0
 10
33.180112
 20
50.136736
 30
0.0
 10
31.737920
 20
50.359448
 30
0.0
  0
SPLINE
  5
30e
100
AcDbEntity
  8
mytext
 62
1
100
AcDbSpline
 70
8
 71
3
 72
8
 73
4
 74
0
 40
0
 40
0
 40
0
 40
0
 40
1
 40
1
 40
1
 40
1
 10
31.737920
 20
50.359448
 30
0.0
 10
30.287568
 20
50.590312
 30
0.0
 10
28.832128
 20
50.829816
 30
0.0
 10
27.341048
 20
51.068824
 30
0.0
  0
SPLINE
  5
30f
100
AcDbEntity
  8
mytext
 62
1
100
AcDbSpline
 70
8
 71
3
 72
8
 73
4
 74
0
 40
0
 40
0
 40
0
 40
0
 40
1
 40
1
 40
1
 40
1
 10
27.341048
 20
51.068824
 30
0.0
 10
25.882552
 20
51.296968
 30
0.0
 10
24.413264
 20
51.517320
 30
0.0
 10
22.962920
 20
51.756328
 30
0.0
  0
SPLINE
  5
310
100
AcDbEntity
  8
mytext
 62
1
100
AcDbSpline
 70
8
 71
3
 72
8
 73
4
 74
0
 40
0
 40
0
 40
0
 40
0
 40
1
 40
1
 40
1
 40
1
 10
22.962920
 20
51.756328
 30
0.0
 10
21.488128
 20
51.979040
 30
0.0
 10
20.015976
 20
52.214376
 30
0.0
 10
18.562920
 20
52.423512
 30
0.0
  0
LWPOLYLINE
  5
311
100
AcDbEntity
  8
mytext
 62
1
100
AcDbPolyline
 90
2
 70
1
 10
31.291048
 20
26.195336
 30
0.0
 10
31.844168
 20
26.195336
 30
0.0
  0
LWPOLYLINE
  5
312
100
AcDbEntity
  8
mytext
 62
1
100
AcDbPolyline
 90
2
 70
1
 10
18.562920
 20
52.423512
 30
0.0
 10
18.562848
 20
52.423544
 30
0.0
  0
ENDSEC
  0
SECTION
  2
OBJECTS
  0
DICTIONARY
  5
C
330
0
100
AcDbDictionary
  3
ACAD_GROUP
350
D
  3
ACAD_MLINESTYLE
350
17
  0
DICTIONARY
  5
D
330
C
100
AcDbDictionary
  0
DICTIONARY
  5
1A
330
C
100
AcDbDictionary
  0
DICTIONARY
  5
17
330
C
100
AcDbDictionary
  3
STANDARD
350
18
  0
DICTIONARY
  5
19
330
C
100
AcDbDictionary
  0
ENDSEC
  0
EOF
